<?xml version="1.0" encoding="utf-8"?>
<!-- Generator: Adobe Illustrator 16.0.0, SVG Export Plug-In . SVG Version: 6.00 Build 0)  -->
<!DOCTYPE svg PUBLIC "-//W3C//DTD SVG 1.1//EN" "http://www.w3.org/Graphics/SVG/1.1/DTD/svg11.dtd">
<svg version="1.1" id="Layer_1" xmlns="http://www.w3.org/2000/svg" xmlns:xlink="http://www.w3.org/1999/xlink" x="0px" y="0px"
	 width="960px" height="857.957px" viewBox="0 0 960 857.957" enable-background="new 0 0 960 857.957" xml:space="preserve">
<g>
	<g>
		<path fill-rule="evenodd" clip-rule="evenodd" fill="#FC9846" d="M964.812,419.021c-1.434,269.815-218.49,482.845-483.396,482.603
			C213.075,901.378-1.296,683.667-0.957,418.255C-0.619,153.225,213.857-64.013,482.18-63.846
			C746.824-63.681,963.522,149.335,964.812,419.021z M420.011,392.892c-0.004,8.963-0.063,17.928,0.035,26.89
			c0.019,1.716,0.656,3.424,1.008,5.135c0.052,1.996,0.173,3.993,0.146,5.988c-0.734,52.819-1.489,105.639-2.228,158.458
			c-0.223,15.934-0.291,16.365,15.605,19.521c39.493,7.841,79.394,8.743,119.412,5.576c6.735-0.533,13.396-2.441,19.993-4.098
			c3.65-0.916,5.667-3.356,5.854-7.614c1.908-43.438,4.01-86.865,6.014-130.299c1.827-39.606,3.58-79.216,5.41-118.822
			c0.498-10.771,1.158-21.533,1.748-32.372c7.164,0,13.901,0,21.061,0c0,2.17,0.042,3.958-0.006,5.744
			c-0.912,33.977-1.859,67.952-2.75,101.93c-1.42,54.133-2.82,108.266-4.19,162.399c-0.287,11.354,0.511,12.38,11.267,15.908
			c1.423,0.467,2.837,1.003,4.295,1.318c33.849,7.312,67.957,9.087,102.271,4.151c13.65-1.963,15.062-4.182,15.95-17.951
			c2.045-31.747,4.207-63.487,6.386-95.226c3.24-47.191,6.526-94.379,9.812-141.566c1.492-21.433,3.063-42.859,4.534-64.294
			c1.072-15.618,3.726-31.357,2.682-46.842c-1.904-28.261-10.058-55.287-21.894-81.067c-3.955-8.614-10.513-13.464-20.562-14.174
			c-20.593-1.457-41.14-3.601-61.686-5.653c-7.622-0.761-14.455,1.092-21.114,4.602c-5.882,3.1-11.726,6.629-18.021,8.513
			c-18.009,5.39-24.79,2.277-34.349-9.751c-3.825-4.813-7.14-10.037-10.629-15.113c-5.376-7.817-10.506-15.812-16.109-23.462
			c-4.791-6.54-11.241-9.675-19.733-9.685c-20.825-0.023-41.687-0.098-62.46-1.363c-11.93-0.727-20.155,3.875-27.087,12.645
			c-5.269,6.665-10.482,13.388-16.05,19.798c-11.551,13.3-23.739,15.477-39.238,6.917c-5.374-2.969-10.34-6.689-15.424-10.167
			c-5.401-3.693-11.181-5.504-17.85-5.181c-17.802,0.862-35.617,1.65-53.435,1.946c-7.731,0.128-14.137,2.603-19.118,8.17
			c-5.094,5.693-9.683,11.848-14.357,17.903c-5.289,6.852-10.141,14.061-15.705,20.676c-7.068,8.403-16.257,12.246-27.22,9.536
			c-6.428-1.589-12.785-3.751-18.875-6.356c-9.023-3.86-17.667-4.567-27.057-0.842c-12.837,5.094-25.973,9.464-39.096,13.796
			c-7.846,2.591-13.188,7.528-16.331,15.005c-1.415,3.367-2.915,6.734-3.916,10.233c-9.479,33.125-13.657,66.488-8.963,101.137
			c5.117,37.768,8.007,75.838,11.847,113.777c3.622,35.786,7.154,71.581,10.86,107.358c1.23,11.882,2.255,12.789,13.989,15.531
			c0.648,0.151,1.307,0.263,1.96,0.392c19.955,3.909,40.105,3.818,60.252,2.504c6.59-0.431,13.129-2.055,19.619-3.464
			c4.65-1.011,6.571-3.886,6.408-9.048c-0.782-24.812-1.233-49.637-1.679-74.459c-0.909-50.649-1.742-101.301-2.586-151.951
			c-0.023-1.41,0.185-2.824,0.263-3.938c7.231,0,13.952,0,20.992,0c0,2.23-0.032,3.885,0.005,5.537
			c0.914,40.812,1.862,81.622,2.75,122.435c1.069,49.143,2.167,98.286,3.01,147.434c0.087,5.086,2.076,7.745,6.516,9.176
			c3.007,0.969,5.98,2.233,9.07,2.72c10.516,1.655,21.039,3.448,31.629,4.414c21.607,1.97,43.266,2.303,64.826-0.657
			c6.014-0.825,12.357-1.457,16.878-6.476c0.089-3.442,0.177-6.885,0.266-10.328c0.082-3.993,0.163-7.987,0.245-11.98
			c0.612-1.326,1.697-2.633,1.752-3.982c0.211-5.135,0.212-10.287,0.045-15.425c-0.094-2.877-0.672-5.738-1.032-8.606
			c0.211-3.532,0.422-7.064,0.633-10.598c0.479-1.654,1.314-3.296,1.372-4.965c0.181-5.281,0.184-10.576,0.025-15.859
			c-0.076-2.533-0.67-5.052-1.03-7.577c0.063-3.661,0.126-7.321,0.189-10.981c0.627-1.317,1.725-2.609,1.794-3.955
			c0.231-4.476,0.228-8.975,0.049-13.454c-0.127-3.214-0.678-6.41-1.041-9.614c0.064-3.658,0.128-7.317,0.191-10.977
			c0.629-1.314,1.744-2.609,1.8-3.948c0.216-5.142,0.214-10.302,0.048-15.446c-0.093-2.882-0.668-5.748-1.026-8.621
			c0.062-3.662,0.124-7.323,0.186-10.984c0.626-1.317,1.704-2.605,1.792-3.958c0.249-3.806,0.234-7.645,0.053-11.458
			c-0.169-3.545-0.685-7.073-1.048-10.609c0.066-3.658,0.132-7.316,0.199-10.975c0.627-1.316,1.727-2.608,1.796-3.954
			c0.231-4.475,0.227-8.974,0.05-13.452c-0.127-3.214-0.676-6.41-1.037-9.614c0.062-3.66,0.125-7.319,0.188-10.979
			c0.628-1.461,1.766-2.91,1.801-4.386c0.185-7.882,0.094-15.771,0.099-23.657c3.336,0.067,6.673,0.134,10.01,0.201
			c2.537,0.978,5.073,1.956,7.973,3.073c0,10.411-0.048,21.05,0.048,31.688c0.016,1.715,0.673,3.425,1.034,5.137
			c-0.219,6.526-0.438,13.053-0.659,19.584c-0.471,1.495-1.283,2.977-1.348,4.489C419.886,384.289,420.009,388.593,420.011,392.892z
			 M779.122,380.752c-3.053,45.116-6.129,90.631-9.212,136.146c-2.004,29.577-3.964,59.158-6.056,88.729
			c-0.706,9.978-5.349,17.912-14.042,22.883c-4.715,2.696-9.868,5.326-15.126,6.232c-11.767,2.029-23.718,4.086-35.604,4.15
			c-66.156,0.36-132.315,0.174-198.473,0.001c-4.408-0.012-7.618,1.298-10.581,4.337c-10.979,11.26-17.965,24.744-21.981,39.778
			c-1.231,4.608-1.823,9.507-1.877,14.281c-0.074,6.599,2.208,8.818,8.644,9.827c14.311,2.243,28.625,4.462,42.938,6.683
			c57.417,8.907,114.823,17.881,172.262,26.648c9.324,1.424,18.956,3.501,28.152,2.522c16.909-1.8,31.312-10.24,42.842-22.664
			c4.148-4.471,7.673-10.308,9.385-16.137c24.725-84.187,49.075-168.482,73.611-252.725c0.851-2.921,0.499-4.763-1.666-6.989
			c-15.801-16.243-31.365-32.719-47.185-48.944C790.092,390.32,784.485,385.66,779.122,380.752z"/>
		<path fill-rule="evenodd" clip-rule="evenodd" fill="#FFFFFF" d="M413.021,316.028c-3.337-0.067-6.673-0.134-10.01-0.201
			c-0.425,0.767-1.196,1.521-1.222,2.301c-0.292,8.578-0.469,17.161-0.678,25.742c-0.062,3.66-0.125,7.319-0.188,10.979
			c-0.27,9.007-0.54,18.014-0.81,27.021c-0.066,3.658-0.133,7.316-0.199,10.975c-0.266,8.675-0.531,17.351-0.797,26.025
			c-0.062,3.661-0.124,7.322-0.186,10.984c-0.274,9.339-0.548,18.678-0.822,28.016c-0.063,3.659-0.127,7.318-0.191,10.977
			c-0.268,9.008-0.536,18.016-0.804,27.023c-0.063,3.66-0.126,7.32-0.189,10.981c-0.123,9.467-0.245,18.935-0.367,28.401
			c-0.211,3.533-0.422,7.065-0.633,10.598c-0.255,9.338-0.511,18.676-0.766,28.014c-0.082,3.993-0.163,7.987-0.245,11.98
			c-0.088,3.443-0.177,6.886-0.266,10.328c-4.521,5.019-10.865,5.65-16.878,6.476c-21.561,2.96-43.219,2.627-64.826,0.657
			c-10.591-0.966-21.113-2.759-31.629-4.414c-3.09-0.486-6.063-1.751-9.07-2.72c-4.44-1.431-6.429-4.09-6.516-9.176
			c-0.843-49.147-1.941-98.291-3.01-147.434c-0.888-40.812-1.836-81.623-2.75-122.435c-0.037-1.652-0.005-3.307-0.005-5.537
			c-7.04,0-13.76,0-20.992,0c-0.079,1.113-0.287,2.527-0.263,3.938c0.844,50.65,1.677,101.302,2.586,151.951
			c0.445,24.822,0.897,49.646,1.679,74.459c0.163,5.162-1.758,8.037-6.408,9.048c-6.49,1.409-13.029,3.033-19.619,3.464
			c-20.146,1.314-40.297,1.405-60.252-2.504c-0.654-0.129-1.312-0.24-1.96-0.392c-11.734-2.742-12.758-3.649-13.989-15.531
			c-3.706-35.777-7.238-71.572-10.86-107.358c-3.84-37.939-6.73-76.01-11.847-113.777c-4.694-34.648-0.516-68.012,8.963-101.137
			c1.001-3.499,2.501-6.866,3.916-10.233c3.143-7.477,8.484-12.414,16.331-15.005c13.123-4.332,26.259-8.702,39.096-13.796
			c9.389-3.726,18.033-3.019,27.057,0.842c6.089,2.605,12.447,4.768,18.875,6.356c10.963,2.71,20.152-1.133,27.22-9.536
			c5.564-6.615,10.416-13.824,15.705-20.676c4.675-6.056,9.264-12.21,14.357-17.903c4.981-5.567,11.387-8.042,19.118-8.17
			c17.818-0.296,35.633-1.084,53.435-1.946c6.669-0.323,12.449,1.487,17.85,5.181c5.084,3.478,10.05,7.198,15.424,10.167
			c15.499,8.56,27.687,6.383,39.238-6.917c5.568-6.41,10.781-13.133,16.05-19.798c6.932-8.77,15.157-13.371,27.087-12.645
			c20.773,1.266,41.635,1.34,62.46,1.363c8.492,0.01,14.942,3.145,19.733,9.685c5.604,7.649,10.733,15.645,16.109,23.462
			c3.489,5.076,6.804,10.3,10.629,15.113c9.559,12.028,16.34,15.141,34.349,9.751c6.296-1.884,12.14-5.413,18.021-8.513
			c6.659-3.51,13.492-5.362,21.114-4.602c20.546,2.053,41.093,4.196,61.686,5.653c10.049,0.71,16.606,5.56,20.562,14.174
			c11.836,25.78,19.989,52.807,21.894,81.067c1.044,15.484-1.609,31.224-2.682,46.842c-1.471,21.435-3.042,42.861-4.534,64.294
			c-3.285,47.188-6.571,94.375-9.812,141.566c-2.179,31.738-4.341,63.479-6.386,95.226c-0.888,13.77-2.3,15.988-15.95,17.951
			c-34.313,4.936-68.422,3.16-102.271-4.151c-1.458-0.315-2.872-0.852-4.295-1.318c-10.756-3.528-11.554-4.554-11.267-15.908
			c1.37-54.134,2.771-108.267,4.19-162.399c0.891-33.978,1.838-67.953,2.75-101.93c0.048-1.786,0.006-3.574,0.006-5.744
			c-7.159,0-13.896,0-21.061,0c-0.59,10.839-1.25,21.602-1.748,32.372c-1.83,39.606-3.583,79.216-5.41,118.822
			c-2.004,43.434-4.105,86.861-6.014,130.299c-0.188,4.258-2.204,6.698-5.854,7.614c-6.598,1.656-13.258,3.564-19.993,4.098
			c-40.019,3.167-79.919,2.265-119.412-5.576c-15.896-3.155-15.829-3.587-15.605-19.521c0.738-52.819,1.493-105.639,2.228-158.458
			c0.028-1.995-0.094-3.992-0.146-5.988c0.17-10.67,0.341-21.34,0.512-32.011c-0.049-5.8-0.097-11.601-0.146-17.401
			c0.219-6.525,0.438-13.052,0.657-19.578c0-13.092,0-26.183,0-39.897C419.25,316.028,416.136,316.028,413.021,316.028z"/>
		<path fill-rule="evenodd" clip-rule="evenodd" fill="#FFFFFF" d="M779.122,380.752c5.363,4.908,10.97,9.568,16.031,14.76
			c15.819,16.226,31.384,32.701,47.185,48.944c2.165,2.227,2.517,4.068,1.666,6.989c-24.536,84.242-48.887,168.538-73.611,252.725
			c-1.712,5.829-5.236,11.666-9.385,16.137c-11.529,12.424-25.933,20.864-42.842,22.664c-9.196,0.979-18.828-1.099-28.152-2.522
			c-57.438-8.768-114.845-17.741-172.262-26.648c-14.313-2.221-28.628-4.439-42.938-6.683c-6.436-1.009-8.718-3.229-8.644-9.827
			c0.054-4.774,0.646-9.673,1.877-14.281c4.017-15.034,11.002-28.519,21.981-39.778c2.963-3.039,6.173-4.349,10.581-4.337
			c66.157,0.173,132.316,0.359,198.473-0.001c11.887-0.064,23.838-2.121,35.604-4.15c5.258-0.906,10.411-3.536,15.126-6.232
			c8.693-4.971,13.336-12.905,14.042-22.883c2.092-29.571,4.052-59.152,6.056-88.729
			C772.993,471.383,776.069,425.868,779.122,380.752z"/>
		<path fill-rule="evenodd" clip-rule="evenodd" fill="#FB8E32" d="M413.021,316.028c3.114,0,6.229,0,9.055,0
			c0,13.715,0,26.806,0,39.897c-0.361-1.712-1.018-3.422-1.034-5.137c-0.096-10.638-0.048-21.276-0.048-31.688
			C418.095,317.984,415.558,317.006,413.021,316.028z"/>
		<path fill-rule="evenodd" clip-rule="evenodd" fill="#FB8E32" d="M401.112,343.87c0.208-8.581,0.385-17.164,0.678-25.742
			c0.026-0.78,0.797-1.534,1.222-2.301c-0.005,7.887,0.086,15.775-0.099,23.657C402.878,340.96,401.74,342.409,401.112,343.87z"/>
		<path fill-rule="evenodd" clip-rule="evenodd" fill="#FB8E32" d="M398.111,457.87c0.274-9.338,0.548-18.677,0.822-28.016
			c0.358,2.873,0.933,5.739,1.026,8.621c0.166,5.145,0.168,10.305-0.048,15.446C399.854,455.261,398.74,456.556,398.111,457.87z"/>
		<path fill-rule="evenodd" clip-rule="evenodd" fill="#FB8E32" d="M397.116,495.87c0.268-9.008,0.536-18.016,0.804-27.023
			c0.362,3.204,0.913,6.4,1.04,9.614c0.178,4.479,0.182,8.979-0.049,13.454C398.841,493.261,397.743,494.553,397.116,495.87z"/>
		<path fill-rule="evenodd" clip-rule="evenodd" fill="#FB8E32" d="M400.114,381.87c0.27-9.007,0.54-18.014,0.81-27.021
			c0.36,3.204,0.909,6.4,1.037,9.614c0.177,4.479,0.181,8.978-0.05,13.452C401.841,379.262,400.742,380.554,400.114,381.87z"/>
		<path fill-rule="evenodd" clip-rule="evenodd" fill="#FB8E32" d="M399.119,418.87c0.266-8.675,0.531-17.351,0.797-26.025
			c0.363,3.536,0.879,7.064,1.048,10.609c0.181,3.813,0.196,7.652-0.053,11.458C400.822,416.265,399.745,417.553,399.119,418.87z"/>
		<path fill-rule="evenodd" clip-rule="evenodd" fill="#FA8B2D" d="M421.565,392.905c-0.17,10.671-0.341,21.341-0.512,32.011
			c-0.352-1.711-0.99-3.419-1.008-5.135c-0.098-8.962-0.039-17.927-0.035-26.89C420.529,392.896,421.047,392.9,421.565,392.905z"/>
		<path fill-rule="evenodd" clip-rule="evenodd" fill="#FB8E32" d="M395.161,573.864c0.255-9.338,0.511-18.676,0.766-28.014
			c0.36,2.868,0.938,5.729,1.032,8.606c0.167,5.138,0.166,10.29-0.045,15.425C396.857,571.231,395.772,572.538,395.161,573.864z"/>
		<path fill-rule="evenodd" clip-rule="evenodd" fill="#FB8E32" d="M396.56,535.253c0.123-9.467,0.245-18.935,0.367-28.401
			c0.36,2.525,0.954,5.044,1.03,7.577c0.159,5.283,0.156,10.578-0.025,15.859C397.875,531.957,397.039,533.599,396.56,535.253z"/>
		<path fill-rule="evenodd" clip-rule="evenodd" fill="#FB8E32" d="M421.565,392.905c-0.518-0.005-1.037-0.009-1.555-0.014
			c-0.002-4.299-0.125-8.603,0.059-12.893c0.064-1.513,0.877-2.994,1.349-4.492C421.468,381.305,421.517,387.105,421.565,392.905z"
			/>
		<path fill-rule="evenodd" clip-rule="evenodd" fill="#FB8E32" d="M394.65,596.173c0.089-3.442,0.178-6.885,0.266-10.328
			C394.827,589.288,394.739,592.73,394.65,596.173z"/>
	</g>
</g>
</svg>
