<?xml version="1.0" encoding="utf-8"?>
<!-- Generator: Adobe Illustrator 16.0.0, SVG Export Plug-In . SVG Version: 6.00 Build 0)  -->
<!DOCTYPE svg PUBLIC "-//W3C//DTD SVG 1.1//EN" "http://www.w3.org/Graphics/SVG/1.1/DTD/svg11.dtd">
<svg version="1.1" id="DESIGN" xmlns="http://www.w3.org/2000/svg" xmlns:xlink="http://www.w3.org/1999/xlink" x="0px" y="0px"
	 width="1800px" height="1029px" viewBox="0 0 1800 1029" enable-background="new 0 0 1800 1029" xml:space="preserve">
<circle fill="#00CBDD" stroke="#FFFFFF" stroke-width="10" stroke-miterlimit="10" cx="900" cy="514.5" r="260"/>
<circle fill="#00CBDD" stroke="#FFFFFF" stroke-width="10" stroke-miterlimit="10" cx="1342.5" cy="177.5" r="137.5"/>
<g id="Ventana_1_">
	<path fill="#90A9D1" d="M1044,539.571c0,3.006-2.348,5.429-5.333,5.429H761.708c-2.985,0-5.708-2.423-5.708-5.429v-182.46
		c0-3.005,2.723-6.111,5.708-6.111h276.959c2.985,0,5.333,3.106,5.333,6.111V539.571z"/>
	<rect x="767" y="380" fill="#EAEAEA" width="266" height="153"/>
	<circle fill="#DD433B" cx="772.94" cy="366.058" r="5.62"/>
	<circle fill="#F7E336" cx="788.04" cy="366.058" r="5.62"/>
	<circle fill="#78C251" cx="803.552" cy="366.058" r="5.62"/>
	<rect x="824" y="364" fill="#FFFFFF" width="209" height="6"/>
</g>
<g>
	<circle fill="#B18F6A" cx="900" cy="459.869" r="28.103"/>
	<g>
		<path fill="#B18F6A" d="M947.219,460.616c0.018-0.57,0.45-1.246,0.959-1.5l10.353-5.185c0.512-0.256,0.854-0.925,0.765-1.488
			l-2.387-11.002c-0.153-0.55-0.744-1.027-1.313-1.064l-11.773-0.762c-0.569-0.037-1.246-0.483-1.504-0.993l-1.6-2.943
			c-0.288-0.493-0.285-1.297,0.007-1.788l5.947-10.024c0.289-0.491,0.22-1.242-0.155-1.671l-8.012-8.169
			c-0.423-0.383-1.175-0.471-1.674-0.194l-10.243,5.685c-0.5,0.277-1.305,0.261-1.793-0.034l-2.769-1.572
			c-0.504-0.268-0.933-0.953-0.953-1.522l-0.422-11.744c-0.021-0.57-0.483-1.17-1.028-1.335l-11.096-2.655
			c-0.561-0.102-1.24,0.226-1.511,0.728l-5.509,10.256c-0.271,0.503-0.728,0.909-1.016,0.903c0,0,0,0-0.262,0
			c-1.6,0-3.704,0.158-3.704,0.158c-0.568,0.043-1.299-0.304-1.625-0.772l-6.736-9.697c-0.325-0.468-1.04-0.727-1.59-0.574
			l-10.598,3.575c-0.529,0.212-0.925,0.851-0.88,1.419l0.903,11.526c0.043,0.568-0.312,1.286-0.79,1.595l-3.37,2.333
			c-0.458,0.339-1.264,0.439-1.79,0.222l-10.912-4.518c-0.526-0.219-1.27-0.05-1.651,0.374l-6.801,8.432
			c-0.333,0.463-0.324,1.212,0.021,1.667l6.958,9.164c0.345,0.455,0.432,1.249,0.191,1.766l-1.892,4.531
			c-0.201,0.533-0.824,1.053-1.384,1.154l-11.577,2.091c-0.561,0.101-1.092,0.644-1.182,1.208c0,0-1.133,7.12-1.133,11.369
			c0,0.022,0,0.022,0,0.022c0,0.025,0.439,0.206,0.974,0.401l10.803,3.946c0.536,0.196,1.039,0.817,1.119,1.381l1.013,5.522
			c0.126,0.555-0.112,1.328-0.529,1.717l-8.557,7.969c-0.417,0.389-0.565,1.13-0.33,1.65l4.666,9.046
			c0.288,0.493,0.978,0.794,1.534,0.669l11.27-2.532c0.556-0.126,1.32,0.123,1.697,0.55l4.154,4.319
			c0.412,0.394,0.634,1.168,0.494,1.72l-2.869,11.245c-0.141,0.553,0.138,1.254,0.62,1.56l8.797,4.957
			c0.511,0.254,1.255,0.13,1.655-0.275l8.161-8.272c0.401-0.405,1.179-0.616,1.729-0.468l5.803,1.287
			c0.562,0.102,1.168,0.626,1.348,1.167l3.641,10.934c0.179,0.541,0.793,0.997,1.363,1.014c0,0,0.305,0.009,0.981,0.009
			c3.5,0,9.235-0.75,9.235-0.75c0.565-0.073,1.124-0.59,1.24-1.149l2.41-11.454c0.118-0.557,0.657-1.16,1.197-1.342l5.104-1.936
			c0.525-0.224,1.316-0.114,1.761,0.244l8.954,7.214c0.444,0.356,1.193,0.388,1.666,0.068l8.405-6.376
			c0.436-0.369,0.626-1.104,0.423-1.638l-4.191-11.01c-0.203-0.533-0.079-1.335,0.273-1.783l2.774-3.782
			c0.321-0.47,1.046-0.808,1.613-0.745l11.458,1.229c0.567,0.061,1.216-0.318,1.439-0.841l3.754-10.263
			c0.167-0.545-0.072-1.268-0.53-1.606l-9.509-7.018c-0.459-0.338-0.789-1.079-0.736-1.647L947.219,460.616z M900.075,494.483
			c-19.163,0-34.697-15.534-34.697-34.697c0-19.163,15.534-34.696,34.697-34.696c19.162,0,34.696,15.534,34.696,34.696
			C934.771,478.949,919.237,494.483,900.075,494.483z"/>
	</g>
</g>
<text transform="matrix(1 0 0 1 795.7739 654)" fill="#FFFFFF" font-family="'AmericanTypewriter'" font-size="110">SEO</text>
<line fill="none" stroke="#FFFFFF" stroke-width="10" stroke-miterlimit="10" x1="1109" y1="357.713" x2="1219.324" y2="243"/>
<line fill="none" stroke="#FFFFFF" stroke-width="10" stroke-miterlimit="10" x1="690.324" y1="357.713" x2="580" y2="243"/>
<line fill="none" stroke="#FFFFFF" stroke-width="10" stroke-miterlimit="10" x1="690.324" y1="669" x2="580" y2="783.713"/>
<line fill="none" stroke="#FFFFFF" stroke-width="10" stroke-miterlimit="10" x1="1109" y1="669" x2="1219.324" y2="783.713"/>
<line fill="none" stroke="#FFFFFF" stroke-width="10" stroke-miterlimit="10" x1="1161" y1="515" x2="1487" y2="515"/>
<line fill="none" stroke="#FFFFFF" stroke-width="10" stroke-miterlimit="10" x1="317" y1="515" x2="643" y2="515"/>
<circle fill="#00CBDD" stroke="#FFFFFF" stroke-width="10" stroke-miterlimit="10" cx="457.5" cy="177.5" r="137.5"/>
<g>
	<circle fill="#F27022" cx="457.499" cy="177.5" r="117.583"/>
	<g>
		<path fill="#FFFFFF" d="M433.202,160.541c0,0,0,0-0.002,0.005c-3.498-1.46-11.755-4.333-16.863-5.836
			c-0.439-0.14-0.504-0.159-0.504-1.971c0-1.5,0.612-3.008,1.212-4.284c0.658-1.392,1.428-3.727,1.702-5.818
			c0.779-0.897,1.833-2.675,2.51-6.056c0.599-2.987,0.318-4.068-0.076-5.088c-0.043-0.107-0.086-0.211-0.113-0.318
			c-0.15-0.696,0.054-4.332,0.562-7.151c0.355-1.93-0.087-6.043-2.751-9.447c-1.679-2.156-4.9-4.79-10.777-5.159l-3.223,0.004
			c-5.777,0.365-8.996,2.999-10.678,5.155c-2.664,3.404-3.104,7.517-2.751,9.447c0.512,2.819,0.716,6.455,0.57,7.137
			c-0.036,0.121-0.079,0.225-0.119,0.332c-0.396,1.02-0.673,2.101-0.08,5.088c0.68,3.381,1.736,5.159,2.51,6.056
			c0.279,2.091,1.051,4.426,1.702,5.818c0.479,1.01,0.699,2.393,0.699,4.347c0,1.813-0.063,1.836-0.475,1.966
			c-5.284,1.56-13.698,4.598-16.834,5.972c-0.022-0.028-0.043-0.054-0.067-0.083v13.271h53.845V160.541z"/>
		<path fill="#FFFFFF" d="M535.642,160.541c0,0,0,0-0.001,0.005c-3.496-1.46-11.756-4.333-16.863-5.836
			c-0.439-0.14-0.505-0.159-0.505-1.971c0-1.5,0.612-3.008,1.214-4.284c0.656-1.392,1.428-3.727,1.701-5.818
			c0.777-0.897,1.833-2.675,2.508-6.056c0.6-2.987,0.318-4.068-0.073-5.088c-0.043-0.107-0.087-0.211-0.116-0.318
			c-0.148-0.696,0.054-4.332,0.563-7.151c0.357-1.93-0.087-6.043-2.75-9.447c-1.679-2.156-4.898-4.79-10.776-5.159l-3.225,0.004
			c-5.777,0.365-8.994,2.999-10.675,5.155c-2.665,3.404-3.104,7.517-2.752,9.447c0.509,2.819,0.713,6.455,0.569,7.137
			c-0.036,0.121-0.079,0.225-0.117,0.332c-0.399,1.02-0.676,2.101-0.08,5.088c0.679,3.381,1.733,5.159,2.511,6.056
			c0.275,2.091,1.049,4.426,1.702,5.818c0.476,1.01,0.699,2.393,0.699,4.347c0,1.813-0.065,1.836-0.477,1.966
			c-5.285,1.56-13.699,4.598-16.833,5.972c-0.023-0.028-0.043-0.054-0.065-0.083v13.271h53.841V160.541z"/>
		<path fill="#FFFFFF" d="M494.887,179.101c0,0,0,0-0.004,0c-4.915-2.051-16.527-6.081-23.706-8.198
			c-0.615-0.199-0.711-0.229-0.711-2.779c0-2.105,0.864-4.225,1.708-6.021c0.919-1.95,2.005-5.229,2.39-8.171
			c1.094-1.265,2.578-3.761,3.526-8.516c0.844-4.192,0.449-5.714-0.103-7.152c-0.062-0.147-0.12-0.298-0.161-0.451
			c-0.211-0.976,0.076-6.086,0.793-10.045c0.498-2.72-0.124-8.502-3.868-13.28c-2.362-3.025-6.89-6.733-15.151-7.255l-4.528,0.005
			c-8.123,0.517-12.646,4.225-15.01,7.25c-3.746,4.778-4.364,10.561-3.869,13.28c0.717,3.959,1.007,9.069,0.802,10.03
			c-0.049,0.168-0.112,0.319-0.167,0.466c-0.557,1.438-0.947,2.959-0.11,7.152c0.954,4.755,2.437,7.251,3.528,8.516
			c0.389,2.942,1.475,6.221,2.391,8.171c0.673,1.427,0.986,3.369,0.986,6.116c0,2.55-0.093,2.58-0.672,2.765
			c-7.427,2.19-19.252,6.463-23.661,8.396c-0.035-0.041-0.064-0.082-0.093-0.121v18.657h75.69V179.101z"/>
	</g>
</g>
<text transform="matrix(1 0 0 1 368.1992 241.9985)" fill="#FFFFFF" font-family="'AmericanTypewriter'" font-size="29">COMMUNITY</text>
<circle fill="#F27022" cx="1343.498" cy="176.5" r="117.583"/>
<text transform="matrix(1 0 0 1 1278.1318 249.4321)" fill="#FFFFFF" font-family="'Roboto-Regular'" font-size="34">DESIGN</text>
<g>
	<g>
		<rect x="1268.746" y="125.917" fill="#90A9D1" width="45.193" height="2.989"/>
		<rect x="1393.427" y="125.917" fill="#90A9D1" width="23.436" height="2.989"/>
		<rect x="1363.86" y="125.917" fill="#90A9D1" width="23.432" height="2.989"/>
		<rect x="1334.289" y="125.917" fill="#90A9D1" width="23.435" height="2.989"/>
		<g>
			<g>
				<rect x="1268.746" y="140.259" fill="#90A9D1" width="66.684" height="66.055"/>
				<path fill="#90A9D1" d="M1336.328,207.12h-68.479v-67.665h68.479V207.12L1336.328,207.12z M1269.641,205.51h64.898v-64.442
					h-64.898V205.51L1269.641,205.51z"/>
			</g>
			<g>
				<path fill="#90A9D1" d="M1335.43,207.12h-66.684c-0.354,0-0.674-0.19-0.816-0.479c-0.15-0.294-0.086-0.635,0.154-0.87
					l66.684-66.053c0.248-0.244,0.639-0.331,0.988-0.209c0.346,0.119,0.572,0.42,0.572,0.75v66.055
					C1336.328,206.76,1335.922,207.12,1335.43,207.12L1335.43,207.12z M1270.773,205.51h63.766v-63.162L1270.773,205.51
					L1270.773,205.51z"/>
			</g>
			<g>
				<path fill="#90A9D1" d="M1335.43,207.12h-66.684c-0.494,0-0.896-0.36-0.896-0.806v-66.055c0-0.33,0.23-0.63,0.574-0.75
					c0.352-0.122,0.736-0.035,0.984,0.209l66.691,66.053c0.232,0.235,0.297,0.576,0.152,0.87
					C1336.107,206.93,1335.789,207.12,1335.43,207.12L1335.43,207.12z M1269.641,205.51h63.768l-63.768-63.162V205.51
					L1269.641,205.51z"/>
			</g>
		</g>
		<rect x="1345.197" y="141.517" fill="#F7E336" width="67.956" height="4.859"/>
		<rect x="1345.197" y="153.871" fill="#90A9D1" width="71.515" height="2.992"/>
		<rect x="1345.197" y="163.052" fill="#90A9D1" width="47.862" height="2.993"/>
		<rect x="1345.197" y="172.234" fill="#90A9D1" width="67.353" height="2.99"/>
		<rect x="1345.197" y="181.414" fill="#90A9D1" width="64.493" height="2.993"/>
		<g>
			<rect x="1345.197" y="193.056" fill="#B18F6A" width="23.147" height="8.739"/>
			<rect x="1349.081" y="195.927" fill="#FFFFFF" width="15.381" height="2.99"/>
		</g>
	</g>
	<g>
		<path fill="#90A9D1" d="M1424.493,106.895h-160.03c-2.67,0-4.832,1.945-4.832,4.348v8.244h169.694v-8.244
			C1429.325,108.839,1427.163,106.895,1424.493,106.895z"/>
		<g>
			<path fill="#FFFFFF" d="M1269.518,113.325c0,1.342-1.209,2.425-2.693,2.425c-1.496,0-2.701-1.083-2.701-2.425
				c0-1.339,1.205-2.426,2.701-2.426C1268.309,110.898,1269.518,111.986,1269.518,113.325z"/>
			<path fill="#FFFFFF" d="M1277.074,113.325c0,1.342-1.217,2.425-2.701,2.425c-1.494,0-2.699-1.083-2.699-2.425
				c0-1.339,1.205-2.426,2.699-2.426C1275.857,110.898,1277.074,111.986,1277.074,113.325z"/>
			<path fill="#FFFFFF" d="M1284.619,113.325c0,1.342-1.215,2.425-2.699,2.425c-1.482,0-2.699-1.083-2.699-2.425
				c0-1.339,1.217-2.426,2.699-2.426C1283.404,110.898,1284.619,111.986,1284.619,113.325z"/>
		</g>
		<rect x="1292.17" y="111.141" fill="#FFFFFF" width="130.106" height="4.369"/>
	</g>
</g>
<circle fill="#00CBDD" stroke="#FFFFFF" stroke-width="10" stroke-miterlimit="10" cx="1342.5" cy="851.5" r="137.5"/>
<circle fill="#F27022" cx="1342.498" cy="851.5" r="117.583"/>
<text transform="matrix(1 0 0 1 1258.4238 925.998)" fill="#FFFFFF" font-family="'AmericanTypewriter'" font-size="34">ANALYSIS</text>
<g>
	<rect x="1298.5" y="770.083" fill="#C9CACA" width="88" height="109.999"/>
	<rect x="1298.5" y="762.749" fill="#EFEFEF" width="88" height="110"/>
	<rect x="1303.389" y="767.639" fill="#DCDDDD" width="78.223" height="39.11"/>
	<rect x="1318.057" y="770.083" fill="#B5B5B6" width="1.467" height="34.222"/>
	<rect x="1318.057" y="802.838" fill="#B5B5B6" width="48.889" height="1.467"/>
	<polygon fill="#0085BD" points="1322.031,793.459 1333.5,772.97 1336.975,779.224 1343,774.705 1350.416,781.418 1366.744,787.097 
		1367.145,785.94 1351.051,780.345 1343.072,773.124 1337.363,777.403 1333.506,770.459 1320.965,792.863 	"/>
	<polygon fill="#DAB636" points="1321.508,798.338 1333.754,798.11 1337.396,794.588 1342.932,795.011 1350.691,797.147 
		1367.025,794.945 1366.863,793.734 1350.777,795.903 1343.141,793.801 1336.941,793.33 1333.25,796.896 1321.486,797.116 	"/>
	<polygon fill="#CA4844" points="1321.568,786.133 1333.934,784.682 1337.25,776.499 1342.717,786.543 1350.924,784.806 
		1367.193,777.585 1366.697,776.47 1350.545,783.638 1343.354,785.16 1337.088,773.645 1333.072,783.552 1321.424,784.919 	"/>
	<rect x="1303.389" y="811.639" fill="#B5B5B6" width="29.334" height="4.888"/>
	<rect x="1303.389" y="839.749" fill="#CA4844" width="78.223" height="4.889"/>
	<rect x="1303.389" y="845.86" fill="#CA4844" width="58.666" height="4.889"/>
	<rect x="1303.389" y="851.971" fill="#CA4844" width="68.445" height="4.89"/>
	<rect x="1303.389" y="818.972" fill="#B5B5B6" width="78.223" height="1.222"/>
	<rect x="1303.389" y="859.305" fill="#B5B5B6" width="78.223" height="1.222"/>
	<rect x="1303.389" y="861.749" fill="#B5B5B6" width="78.223" height="1.223"/>
	<rect x="1303.389" y="821.416" fill="#B5B5B6" width="78.223" height="1.222"/>
	<rect x="1303.389" y="823.86" fill="#B5B5B6" width="78.223" height="1.223"/>
	<rect x="1303.389" y="826.305" fill="#B5B5B6" width="53.779" height="1.223"/>
	<rect x="1303.389" y="828.749" fill="#B5B5B6" width="39.111" height="1.223"/>
</g>
<circle fill="#00CBDD" stroke="#FFFFFF" stroke-width="10" stroke-miterlimit="10" cx="457.5" cy="851.5" r="137.5"/>
<circle fill="#F27022" cx="457.498" cy="851.5" r="117.583"/>
<text transform="matrix(1 0 0 1 389.4097 919.583)" fill="#FFFFFF" font-family="'AmericanTypewriter'" font-size="34">PROFITS</text>
<text transform="matrix(1 0 0 1 411.8945 872.6074)" fill="#FFFFFF" font-family="'AmericanTypewriter'" font-size="140">$</text>
<g>
	<circle fill="#00CBDD" stroke="#FFFFFF" stroke-width="10" stroke-miterlimit="10" cx="1622.5" cy="514.5" r="137.5"/>
	<g>
		<circle fill="#F27022" cx="1622.934" cy="514.708" r="117.583"/>
		<text transform="matrix(1 0 0 1 1536.9785 520.792)" fill="#FFFFFF" font-family="'AmericanTypewriter'" font-size="72">&lt;h1&gt;</text>
		<text transform="matrix(1 0 0 1 1575.6465 567.793)" fill="#FFFFFF" font-family="'AmericanTypewriter'" font-size="34">HTML</text>
	</g>
</g>
<circle fill="#00CBDD" stroke="#FFFFFF" stroke-width="10" stroke-miterlimit="10" cx="177.5" cy="514.5" r="137.5"/>
<g>
	<circle fill="#F27022" cx="177.517" cy="514.5" r="117.583"/>
	<text transform="matrix(1 0 0 1 111.4526 576.168)" fill="#FFFFFF" font-family="'AmericanTypewriter'" font-size="34">SEARCH</text>
	<path fill="#FFFFFF" d="M223.113,517.054l-24.932-33.139c-0.491-0.655-1.048-1.21-1.662-1.697c1.376-1.834,2.589-3.823,3.603-5.966
		c8.531-17.988,0.41-39.755-18.086-48.534c-18.499-8.771-40.482-1.279-49.015,16.706c-8.53,17.985-0.426,39.76,18.075,48.531
		c9.289,4.402,19.451,4.708,28.348,1.643c0.306,0.85,0.741,1.673,1.311,2.431l24.936,33.13c3.068,4.074,8.866,4.901,12.95,1.825
		l2.64-1.979C225.364,526.932,226.178,521.131,223.113,517.054z M189.673,471.293c-5.803,12.242-20.855,17.251-33.617,11.199
		c-12.755-6.049-18.403-20.873-12.592-33.117c5.808-12.239,20.858-17.259,33.612-11.209
		C189.843,444.218,195.482,459.048,189.673,471.293z"/>
</g>
<text transform="matrix(1 0 0 1 1573 1203)" font-family="'Roboto-Regular'" font-size="12">t</text>
</svg>
