<?xml version="1.0" encoding="utf-8"?>
<!-- Generator: Adobe Illustrator 16.0.0, SVG Export Plug-In . SVG Version: 6.00 Build 0)  -->
<!DOCTYPE svg PUBLIC "-//W3C//DTD SVG 1.1//EN" "http://www.w3.org/Graphics/SVG/1.1/DTD/svg11.dtd">
<svg version="1.1" id="Layer_1" xmlns="http://www.w3.org/2000/svg" xmlns:xlink="http://www.w3.org/1999/xlink" x="0px" y="0px"
	 width="686.604px" height="535.78px" viewBox="273.75 329.908 686.604 535.78"
	 enable-background="new 273.75 329.908 686.604 535.78" xml:space="preserve">
<g>
	<path fill="#55CADB" stroke="#54777B" stroke-width="0.0938" d="M536.236,346.513c7.699-10.314,20.403-16.654,33.278-16.59
		c31.248-0.018,62.496-0.012,93.744-0.004c5.477-0.127,11.009,0.754,16.118,2.77c12.565,4.631,22.458,15.773,25.658,28.771
		c1.718,6.104,1.229,12.486,1.295,18.746c0.005,22.303,0,44.604,0.005,66.904c68.766,0.004,137.535,0,206.305,0
		c3.938,0.033,7.904-0.17,11.815,0.439c7.747,1.146,15.189,4.475,21.124,9.605c6.622,5.609,11.414,13.35,13.459,21.791
		c0.994,3.914,1.308,7.979,1.217,12.012c0.017,35.625-0.026,71.246,0.017,106.871c-58.021-0.1-116.043,0.004-174.07-0.053
		c-4.159,0.113-8.322-0.152-12.469,0.145c-14.185-29.238-36.864-54.252-64.438-71.422c-31.521-19.846-69.576-28.941-106.666-25.783
		c-21.105,1.703-41.898,7.307-60.979,16.492c-35.206,16.844-64.497,45.846-81.444,81.018c-0.527-0.457-1.221-0.383-1.856-0.379
		c-61.511,0.004-123.024-0.049-184.531,0.025c0.013-35.922,0-71.844,0.004-107.766c-0.205-8.287,2.058-16.643,6.553-23.621
		c5.956-9.443,15.853-16.271,26.796-18.5c5.102-1.16,10.359-0.828,15.548-0.875c4.159-0.006,8.323,0.008,12.482,0
		c24.154,0.016,48.304,0.012,72.454,0.004c40.027-0.004,80.058,0,120.086-0.004c0.009-25.201-0.004-50.398,0.009-75.6
		C527.773,362.554,530.804,353.642,536.236,346.513 M581.371,358.085c-7.138,0.91-13.791,4.939-17.955,10.803
		c-3.361,4.648-5.136,10.416-4.975,16.146c0.179,7.438,3.676,14.74,9.379,19.523c4.582,3.91,10.507,6.121,16.52,6.287
		c22.38,0.004,44.764-0.01,67.145,0.004c3.959-0.029,7.942-0.758,11.541-2.449c6.774-3.113,12.134-9.223,14.252-16.381
		c1.431-4.627,1.514-9.652,0.297-14.34c-1.608-6.424-5.816-12.082-11.354-15.666c-4.377-2.785-9.573-4.264-14.763-4.189
		c-21.494,0-42.989,0-64.483,0C585.104,357.845,583.22,357.746,581.371,358.085z"/>
	<path fill="#F1F1F1" stroke="#EDEBEC" stroke-width="0.0938" d="M581.371,358.085c1.849-0.34,3.73-0.24,5.603-0.262
		c21.494,0,42.989,0,64.483,0c5.188-0.074,10.386,1.402,14.763,4.189c5.537,3.582,9.745,9.242,11.354,15.664
		c1.217,4.688,1.134,9.715-0.297,14.34c-2.118,7.16-7.478,13.27-14.252,16.381c-3.599,1.691-7.582,2.42-11.541,2.451
		c-22.381-0.014-44.765,0-67.145-0.006c-6.013-0.166-11.938-2.375-16.52-6.287c-5.703-4.781-9.2-12.086-9.379-19.521
		c-0.161-5.73,1.612-11.498,4.975-16.146C567.58,363.025,574.233,358.996,581.371,358.085z"/>
	<path fill="#383838" stroke="#383838" stroke-width="0.0938" d="M357.535,399.679c9.278-0.035,18.56,0.078,27.833-0.057
		c0.179,5.59,0.004,11.188,0.092,16.781c-9.309,0.025-18.617,0.039-27.925-0.01C357.531,410.824,357.531,405.251,357.535,399.679z"
		/>
	<path fill="#F27022" stroke="#EBD077" stroke-width="0.0938" d="M335.194,416.548c3.541-0.479,7.107,0.113,10.657-0.158
		c3.894-0.117,7.787,0.059,11.685,0.004c9.308,0.051,18.616,0.035,27.925,0.01c7.402,0.041,14.806-0.078,22.214-0.01
		c0.331,4.354,0.052,8.73,0.152,13.096c-0.258,5.867,0.288,11.762-0.17,17.627c-24.15,0.008-48.3,0.014-72.454-0.004
		C335.199,436.921,335.221,426.736,335.194,416.548z"/>
	<path fill="#FD9846" stroke="#375152" stroke-width="0.0938" d="M602.63,500.716c37.09-3.156,75.145,5.939,106.666,25.785
		c27.572,17.17,50.253,42.182,64.438,71.42c17.647,35.674,22.223,77.498,13.184,116.225c-4.128,18.023-11.353,35.268-20.831,51.129
		c61.065,0.088,122.131,0.01,183.196,0.039c3.61,0.053,7.237-0.125,10.844,0.092l0.228,0.088
		c-22.586,0.188-45.179,0.008-67.769,0.082c-42.16-0.035-84.325,0.045-126.481-0.047c-0.978,0.822-1.481,2.053-2.192,3.09
		c-17.768,27.809-43.621,50.375-73.574,64.219c-33.594,15.688-72.271,20.033-108.559,12.531c-32.277-6.541-62.5-22.621-86.083-45.58
		c-10.717-10.285-19.974-22.039-27.77-34.666c-0.354-0.559-0.672-1.133-0.984-1.695c-8.965-15.217-15.696-31.754-19.707-48.959
		c-8.824-37.525-4.893-77.984,11.404-112.953c0.235-0.51,0.458-1.023,0.654-1.543c0.205-0.633,0.51-1.221,0.915-1.744
		c16.947-35.172,46.238-64.174,81.444-81.018C560.73,508.023,581.523,502.421,602.63,500.716 M610.173,517.728
		c-11.667,0.498-23.261,2.342-34.535,5.363c-19.616,5.371-38.142,14.619-54.26,27.01c-14.428,11.088-26.893,24.703-36.688,40.037
		c-9.92,15.504-17.064,32.777-20.993,50.764c-4.348,20.008-4.734,40.875-1.218,61.045c5.952,34.408,23.98,66.527,50.089,89.688
		c28.043,25.174,65.441,39.801,103.174,39.771c28.013,0.439,56.061-7.068,80.224-21.221c29.813-17.244,53.609-44.643,66.516-76.578
		c15.246-37.188,15.329-80.299,0.243-117.549c-6.627-16.555-16.14-31.941-27.946-45.305c-23.51-26.771-56.393-45.23-91.585-50.969
		C632.309,517.812,621.208,517.396,610.173,517.728z"/>
	<path fill="#FFFFFF" stroke="#FFFFFF" stroke-width="0.0938" d="M610.173,517.728c11.035-0.33,22.136,0.082,33.019,2.059
		c35.192,5.738,68.075,24.197,91.585,50.969c11.808,13.363,21.319,28.75,27.946,45.305c15.086,37.25,15.003,80.361-0.244,117.549
		c-12.904,31.938-36.7,59.334-66.515,76.578c-24.163,14.152-52.211,21.66-80.224,21.221c-37.731,0.029-75.131-14.6-103.174-39.771
		c-26.107-23.16-44.137-55.281-50.088-89.688c-3.519-20.17-3.131-41.037,1.217-61.045c3.929-17.984,11.073-35.26,20.992-50.764
		c9.798-15.334,22.263-28.949,36.689-40.037c16.118-12.391,34.645-21.639,54.26-27.01
		C586.912,520.07,598.506,518.226,610.173,517.728 M611.014,525.542c-21.643,0.885-43.133,6.436-62.347,16.484
		c-31.331,16.074-56.584,43.627-69.76,76.291c-15.183,36.906-14.566,79.951,1.679,116.4c6.492,14.764,15.456,28.434,26.334,40.34
		c23.684,26.033,56.846,43.371,91.852,47.428c18.431,2.332,37.286,1.076,55.293-3.484c18.461-4.682,35.936-13.066,51.281-24.318
		c27.791-20.336,48.169-50.58,56.394-84.039c4.909-19.59,5.646-40.178,2.493-60.109c-3.152-19.455-10.221-38.271-20.692-54.971
		c-17.227-27.688-43.8-49.387-74.354-60.762C650.672,527.857,630.747,524.775,611.014,525.542z"/>
	<path fill="#474E5E" stroke="#595959" stroke-width="0.0938" d="M611.014,525.542c19.733-0.768,39.658,2.314,58.171,9.26
		c30.556,11.375,57.13,33.074,74.354,60.762c10.473,16.697,17.54,35.516,20.692,54.971c3.151,19.934,2.416,40.52-2.493,60.109
		c-8.225,33.459-28.603,63.703-56.394,84.039c-15.347,11.252-32.82,19.637-51.28,24.318c-18.008,4.561-36.863,5.816-55.293,3.484
		c-35.007-4.057-68.168-21.395-91.853-47.428c-10.878-11.906-19.842-25.576-26.334-40.34c-16.245-36.449-16.86-79.494-1.679-116.4
		c13.176-32.664,38.429-60.217,69.76-76.291C567.881,531.978,589.371,526.427,611.014,525.542 M563.717,544.878
		c-30.672,12.553-56.529,36.396-71.538,65.939c-8.862,17.293-14.034,36.463-15.066,55.869c-1.134,19.686,1.957,39.613,9.024,58.025
		c6.295,16.338,15.612,31.57,27.556,44.381c-7.617-11.039-14.039-22.955-18.456-35.639c-6.906-19.494-9.378-40.535-7.172-61.096
		c1.947-18.422,7.65-36.43,16.575-52.656c7.294-13.35,16.694-25.518,27.616-36.096c26.316-25.512,61.346-41.498,97.65-45.854
		c4.011-0.633,8.083-0.654,12.09-1.262c-4.818-0.666-9.627-1.42-14.488-1.721C605.848,533.121,583.804,536.595,563.717,544.878
		 M610.269,630.32c-7.825,1.17-15.285,4.525-21.438,9.492c-6.301,5.117-11.166,11.973-13.892,19.619
		c-3.317,9.125-3.492,19.328-0.555,28.58c2.115,6.598,5.712,12.756,10.595,17.691c5.498,5.742,12.628,9.871,20.278,11.98
		c10.796,2.967,22.707,1.705,32.595-3.574c13.961-7.15,23.418-22.162,23.88-37.836c0.318-7.801-1.451-15.691-5.132-22.58
		c-4.188-8.082-10.979-14.771-19.079-18.908C629.226,630.447,619.516,628.882,610.269,630.32z"/>
	<path fill="#ACACAC" stroke="#ACACAC" stroke-width="0.0938" d="M563.717,544.878c20.087-8.283,42.131-11.758,63.791-10.105
		c4.861,0.301,9.67,1.055,14.488,1.723c-4.007,0.605-8.079,0.627-12.09,1.26c-36.307,4.355-71.334,20.344-97.65,45.855
		c-10.922,10.576-20.322,22.744-27.616,36.096c-8.925,16.227-14.628,34.234-16.575,52.654c-2.207,20.562,0.266,41.604,7.172,61.096
		c4.417,12.684,10.839,24.6,18.456,35.639c-11.942-12.809-21.261-28.043-27.556-44.379c-7.067-18.412-10.159-38.342-9.024-58.027
		c1.032-19.404,6.204-38.576,15.066-55.867C507.186,581.275,533.045,557.431,563.717,544.878z"/>
	<path fill="#F27022" stroke="#EBD077" stroke-width="0.0938" d="M773.732,597.921c4.146-0.297,8.31-0.029,12.469-0.143
		c58.026,0.057,116.049-0.051,174.07,0.051c0.104,54.043,0.019,108.088,0.049,162.131c-0.088,1.809,0.195,3.652-0.195,5.445
		c-3.606-0.219-7.233-0.039-10.844-0.092c-61.065-0.031-122.131,0.047-183.196-0.039c9.479-15.861,16.702-33.105,20.831-51.131
		C795.955,675.419,791.381,633.595,773.732,597.921z"/>
	<path fill="#F27022" stroke="#EBD077" stroke-width="0.0938" d="M273.767,598.062c6-0.322,12.025-0.053,18.033-0.141
		c54.348-0.004,108.693,0,163.041-0.004c1.403,0.035,2.921-0.188,4.233,0.453c0.279,0.498,0.353,1.033,0.218,1.6
		c-0.196,0.521-0.419,1.033-0.654,1.545c-16.297,34.967-20.229,75.428-11.404,112.953c4.011,17.203,10.742,33.74,19.707,48.957
		c0.273,0.51,0.462,1.021,0.701,1.578c-11.823,0.209-23.656,0.031-35.485,0.088c-50.724,0-101.447,0-152.171,0
		c-2.08-0.014-4.159,0.062-6.235-0.088C273.771,709.359,273.732,653.707,273.767,598.062z"/>
	<path fill="#ACACAC" stroke="#ACACAC" stroke-width="0.0938" d="M610.269,630.32c9.247-1.438,18.957,0.127,27.255,4.465
		c8.101,4.139,14.89,10.826,19.078,18.91c3.681,6.889,5.45,14.779,5.133,22.58c-0.462,15.674-9.919,30.686-23.881,37.836
		c-9.888,5.279-21.799,6.539-32.595,3.574c-7.65-2.109-14.78-6.238-20.277-11.98c-4.884-4.938-8.479-11.096-10.596-17.693
		c-2.938-9.252-2.764-19.453,0.555-28.58c2.726-7.645,7.591-14.5,13.892-19.619C594.982,634.847,602.442,631.49,610.269,630.32z"/>
	<path fill="#55CADB" stroke="#54777B" stroke-width="0.0938" d="M273.819,765.156c51.038,0.041,102.075,0.006,153.113,0.018
		c13.664-0.033,27.328,0.066,40.992-0.051c7.796,12.625,17.052,24.381,27.77,34.666c23.583,22.959,53.806,39.039,86.083,45.578
		c36.288,7.504,74.965,3.156,108.559-12.531c29.953-13.842,55.808-36.41,73.574-64.217c0.711-1.037,1.216-2.268,2.192-3.092
		c42.156,0.092,84.321,0.014,126.481,0.049c22.59-0.074,45.183,0.104,67.769-0.084c-0.224,18.947-0.031,37.914-0.097,56.867
		c0.213,7.699-1.618,15.475-5.473,22.156c-7.15,12.764-21.363,21.199-36.019,21.15c-198.529,0.021-397.057,0.004-595.583,0.01
		c-4.495-0.088-9.025,0.262-13.489-0.428c-8.689-1.234-16.956-5.297-23.204-11.463c-8.437-8.07-13.088-19.816-12.661-31.461
		C273.819,803.267,273.828,784.21,273.819,765.156 M858.694,801.548c-5.153,0.342-9.896,3.846-11.808,8.633
		c-1.442,3.275-0.945,6.926-1.046,10.398c-0.074,3.498,1.133,7.051,3.505,9.654c2.586,3.023,6.553,4.756,10.525,4.734
		c16.72,0,33.439,0.004,50.165-0.006c5.385,0.088,10.567-3.326,12.727-8.244c1.685-3.395,1.107-7.264,1.213-10.908
		c0.113-3.404-1.139-6.797-3.317-9.387c-2.69-3.205-6.871-5.055-11.048-4.928C892.637,801.527,875.663,801.423,858.694,801.548
		 M322.899,809.919c-5.258,0.367-10.067,4.025-11.898,8.957c-1.291,3.174-0.802,6.652-0.898,9.988
		c-0.162,4.119,1.591,8.277,4.73,10.973c2.481,2.285,5.851,3.459,9.204,3.516c13.965-0.01,27.93-0.006,41.896,0
		c3.353-0.057,6.731-1.227,9.203-3.531c3.139-2.688,4.874-6.85,4.717-10.961c-0.112-3.043,0.344-6.18-0.605-9.125
		c-1.26-4.16-4.564-7.635-8.672-9.053c-2.874-1.129-6-0.754-9.008-0.814C348.681,809.904,335.788,809.798,322.899,809.919z"/>
	<path fill="#F1F1F1" stroke="#FFFFFF" stroke-width="0.0938" d="M858.694,801.548c16.969-0.125,33.941-0.02,50.916-0.051
		c4.177-0.127,8.356,1.721,11.048,4.926c2.18,2.59,3.432,5.982,3.317,9.387c-0.104,3.646,0.472,7.514-1.213,10.91
		c-2.158,4.918-7.342,8.33-12.727,8.244c-16.726,0.008-33.445,0.004-50.165,0.004c-3.973,0.021-7.939-1.709-10.525-4.734
		c-2.372-2.604-3.579-6.156-3.505-9.652c0.101-3.475-0.396-7.125,1.046-10.398C848.798,805.394,853.541,801.89,858.694,801.548z"/>
	<path fill="#F1F1F1" stroke="#FFFFFF" stroke-width="0.0938" d="M322.899,809.919c12.888-0.121,25.78-0.016,38.668-0.051
		c3.008,0.061,6.134-0.314,9.008,0.814c4.107,1.416,7.412,4.893,8.672,9.051c0.949,2.947,0.493,6.082,0.605,9.127
		c0.157,4.109-1.578,8.273-4.717,10.961c-2.472,2.305-5.851,3.475-9.203,3.529c-13.966-0.004-27.931-0.008-41.896,0
		c-3.353-0.057-6.723-1.229-9.204-3.514c-3.139-2.695-4.892-6.854-4.73-10.975c0.096-3.334-0.393-6.814,0.898-9.988
		C312.832,813.945,317.641,810.287,322.899,809.919z"/>
</g>
</svg>
