<?xml version="1.0" encoding="utf-8"?>
<!-- Generator: Adobe Illustrator 16.0.0, SVG Export Plug-In . SVG Version: 6.00 Build 0)  -->
<!DOCTYPE svg PUBLIC "-//W3C//DTD SVG 1.1//EN" "http://www.w3.org/Graphics/SVG/1.1/DTD/svg11.dtd">
<svg version="1.1" id="Layer_1" xmlns="http://www.w3.org/2000/svg" xmlns:xlink="http://www.w3.org/1999/xlink" x="0px" y="0px"
	 width="500px" height="410px" viewBox="0 0 500 410" enable-background="new 0 0 500 410" xml:space="preserve">
<g id="Layer_1_1_">
	<g>
		<g>
			<path fill="#3C3C40" d="M501,25c0,92,0,184,0,276c-1.266,1.516-2.924,2.077-4.857,2.134c-2.164,0.064-4.33,0.103-6.494,0.103
				c-159.1,0.005-318.198,0.015-477.296-0.057c-3.84-0.002-8.1,1.268-11.351-2.18c0-92,0-184,0-276
				c0.965-6.025,2.35-11.718,6.86-16.438C12.647,3.553,18.605,1.964,25,1c150.667,0,301.334,0,452,0
				c8.349,0.963,15.325,4.116,20.242,11.418C499.887,16.345,499.567,20.871,501,25z"/>
			<path fill="#D2D2D6" d="M1,301c29.803-0.016,59.606-0.044,89.409-0.046c135.366-0.006,270.731-0.005,406.098-0.003
				c1.498,0,2.995,0.031,4.493,0.049c0,12,0,24,0,36c-3.331,17.671-13.548,26.17-31.822,26.191
				c-54.152,0.062-108.307,0.015-162.459,0.041c-2.672,0.001-5.316-0.391-7.984-0.339c-12.812,0.73-25.635,0.318-38.45,0.303
				c-18.978-0.024-37.958,0.397-56.931-0.251c-11.633,0.549-23.276,0.244-34.915,0.254c-45.069,0.037-90.138-0.007-135.207,0.053
				c-5.411,0.008-10.597-0.617-15.528-2.892C7.295,355.561,1.421,347.648,1,336C1,324.333,1,312.667,1,301z"/>
			<path fill="#D2D2D6" d="M304.996,396c5.775-0.003,11.553-0.078,17.326,0.022c3,0.053,7.076-1.138,8.104,2.814
				c1.071,4.126,2.139,8.88-2.426,12.162c-51.334,0-102.667,0-154,0c-4.572-3.277-3.202-7.932-2.491-12.184
				c0.409-2.442,2.891-2.832,5.182-2.824c6.766,0.023,13.531,0.008,20.297,0.008c1.648-2.087,3.995-2.176,6.347-2.183
				c31.772-0.091,63.544-0.091,95.315,0C301.002,393.824,303.354,393.902,304.996,396z"/>
			<path fill="#00CADC" d="M250.975,25.947c73.154,0,146.311,0.045,219.465-0.107c4.603-0.009,5.724,1.217,5.716,5.753
				c-0.143,79.653-0.136,159.308-0.011,238.96c0.007,4.243-0.817,5.575-5.405,5.57c-146.476-0.143-292.951-0.141-439.427-0.006
				c-4.487,0.004-5.47-1.168-5.462-5.514c0.136-79.653,0.135-159.308,0.004-238.96c-0.007-4.436,0.953-5.82,5.658-5.81
				C104.666,25.996,177.82,25.947,250.975,25.947z"/>
			<path fill="#95959C" d="M299.08,360.997c0.672,4.637,1.344,9.271,2.016,13.909c-0.295,3.005-2.629,3.043-4.781,3.186
				c-4.147,0.273-8.307,0.141-12.461,0.142c-24.268,0.007-48.534,0.012-72.8-0.002c-2.326-0.003-4.677,0.135-6.964-0.307
				c-2.027-0.39-3.983-1.085-3.077-3.901c0.647-4.343,1.295-8.684,1.942-13.024C234.997,360.998,267.039,360.997,299.08,360.997z"/>
			<path fill="#A7A7AE" d="M251.057,316.006c8.295,0.026,14.854,6.526,14.935,14.803c0.082,8.487-6.603,15.218-15.076,15.18
				c-8.27-0.037-14.838-6.58-14.906-14.847C235.938,322.548,242.469,315.979,251.057,316.006z"/>
			<path fill="#A7A7AE" d="M201.013,374.022c0.78,2.389,2.812,1.962,4.579,1.963c30.26,0.019,60.521,0.015,90.78,0.009
				c1.649,0,3.358,0.183,4.724-1.088c1.301,7.031,2.6,14.062,3.9,21.094c-36.002,0-72.005,0-108.008,0
				C198.33,388.674,199.671,381.349,201.013,374.022z"/>
			<path fill="#EFF1F1" d="M285.702,124.306c21.514,5.387,30.78,15.437,30.278,32.465c-0.435,14.762-10.946,25.271-29.267,28.521
				c5.04,4.657,9.666,8.991,14.356,13.254c6.652,6.044,13.382,12.006,20.017,18.07c1.83,1.673,2.945,2.642,5.647,0.55
				c8.115-6.277,18.893-5.871,26.24,0.33c7.435,6.275,9.726,16.175,5.75,24.844c-3.957,8.625-13.339,13.781-22.406,12.314
				c-9.59-1.553-16.812-9.397-17.963-19.435c-0.295-2.561-0.025-5.214,1.031-7.338c1.922-3.856,0.746-6.036-2.271-8.684
				c-11.767-10.321-23.308-20.898-34.841-31.481c-2.104-1.93-4.233-2.873-7.125-2.796c-6.469,0.175-12.946,0.055-19.809,0.055
				c1.645,8.786,3.189,17.088,4.758,25.385c0.308,1.619,1.244,2.252,2.957,2.763c5.469,1.631,8.174,5.558,7.93,10.655
				c-0.231,4.873-4.069,9.224-8.887,10.074c-4.301,0.76-8.992-1.718-11.175-5.898c-2.243-4.297-1.179-9.37,3.062-12.953
				c1.449-1.225,1.953-2.021,1.49-4.057c-1.691-7.449-3.141-14.963-4.381-22.502c-0.455-2.768-1.644-3.439-4.264-3.523
				c-16.668-0.532-16.665-0.587-28.47,11.207c-6.837,6.831-13.61,13.729-20.559,20.443c-2.377,2.299-3.392,3.964-1.447,7.453
				c3.219,5.775,1.279,12.838-3.7,17.105c-5.144,4.409-11.98,4.921-17.594,1.316c-5.796-3.721-8.205-10.367-6.142-16.943
				c1.983-6.322,7.691-10.529,14.2-10.467c0.333,0.004,0.733-0.113,0.99,0.029c6.418,3.564,9.733-1.074,13.5-4.929
				c7.989-8.174,16.108-16.22,25.013-25.16c-3.815,0-6.562,0.002-9.308,0c-11.211-0.01-19.326-5.114-23.272-14.636
				c-3.766-9.088-1.645-18.003,6.152-25.876c0.34-0.343,0.642-0.724,1.313-1.487c-11.726-4.265-23.217-8.425-34.689-12.635
				c-1.725-0.633-2.342,0.742-3.333,1.521c-4.614,3.618-9.273,4.079-13.199,0.778c-3.375-2.837-6.235-6.246-4.427-11.224
				c1.81-4.984,6.358-8.27,10.913-8.068c5.062,0.224,9.103,3.736,10.06,9.418c0.372,2.21,1.236,2.998,3.187,3.688
				c11.874,4.192,23.669,8.607,35.544,12.797c6.062,2.139,9.923,0.237,12.13-5.651c2.462-6.57,6.491-12.024,12.089-16.166
				c2.053-1.519,2.297-2.656,1.292-4.887c-5.046-11.205-9.996-22.456-14.808-33.764c-0.875-2.058-1.728-2.476-3.99-2.384
				c-8.288,0.336-14.676-4.958-16.365-13.043c-1.534-7.345,2.536-14.915,9.571-17.804c7.072-2.903,15.235-0.489,19.382,5.731
				c4.628,6.941,3.903,14.954-2.427,20.754c-2.322,2.128-2.474,3.64-1.256,6.314c4.82,10.581,9.476,21.238,14.018,31.941
				c1.019,2.4,1.987,2.88,4.345,1.688c4.375-2.21,9.171-3.057,14.023-2.812c3.161,0.16,4.674-0.71,4.696-4.021
				c0.01-1.638,0.354-3.348,0.918-4.891c0.906-2.486,0.551-3.992-1.771-5.772c-3.787-2.904-4.57-8.203-2.577-12.221
				c2.182-4.398,7.092-6.959,11.549-6.023c4.645,0.976,8.301,5.142,8.602,9.802c0.312,4.844-2.496,9.055-7.213,10.812
				c-2.767,1.03-6.65,10.46-5.143,12.859c0.438,0.697,1.635,0.984,2.535,1.314c6.346,2.32,12.109,5.584,16.387,10.909
				c1.928,2.398,2.869,1.646,4.311-0.36c10.768-14.998,21.529-30.001,32.5-44.85c1.721-2.327,0.953-3.566-0.211-5.58
				c-4.979-8.604-3.4-18.644,3.771-25.562c7.434-7.17,16.35-8.101,25.518-2.664c8.109,4.81,11.949,14.593,9.312,23.727
				c-2.64,9.14-11.378,15.42-21.036,15.256c-3.621-0.062-6.887-1.253-9.9-3.004c-1.633-0.948-2.598-1.034-3.711,0.511
				C307.35,94.342,296.57,109.254,285.702,124.306z"/>
			<path fill="#FE7011" d="M248.585,180.043c-11.992-0.004-23.983,0.021-35.975-0.011c-11.317-0.029-19.284-7.665-19.302-18.429
				c-0.016-10.08,7.395-17.204,18.48-17.321c3.156-0.033,4.257-1.129,5.002-4.061c3.415-13.436,11.806-22.302,25.439-25.275
				c13.873-3.025,25.253,1.675,33.855,12.887c1.736,2.263,3.348,2.96,6.28,2.521c14.503-2.164,27.669,8.589,28.722,23.156
				c1.043,14.43-10.021,26.281-25.029,26.499C273.568,180.19,261.076,180.047,248.585,180.043z"/>
			<path fill="#FE7111" d="M355.855,233.672c0.121,8.59-7.539,16.279-16.26,16.318c-8.772,0.039-16.265-7.399-16.307-16.191
				c-0.041-8.721,7.527-16.398,16.167-16.398C348.066,217.398,355.732,225.007,355.855,233.672z"/>
			<path fill="#FE7111" d="M332.531,76.91c-8.862,0.024-16.252-7.221-16.367-16.049c-0.114-8.679,7.367-16.131,16.217-16.155
				c8.871-0.024,16.379,7.307,16.398,16.014C348.799,69.458,341.344,76.887,332.531,76.91z"/>
			<path fill="#FE7011" d="M218.71,60.603c-0.092,6.344-4.697,10.77-11.188,10.752c-6.151-0.016-11.188-4.928-11.225-10.945
				c-0.038-6.163,5.308-11.237,11.652-11.061C214.261,49.524,218.802,54.273,218.71,60.603z"/>
			<path fill="#FE7112" d="M192.938,229.782c0.041,5.442-4.248,9.888-9.691,10.045c-5.583,0.161-10.321-4.479-10.229-10.019
				c0.089-5.336,4.677-9.91,9.943-9.916C188.168,219.887,192.898,224.575,192.938,229.782z"/>
			<path fill="#FC7014" d="M146.699,124.132c0.285-3.546,2.117-5.622,5.66-5.643c3.576-0.021,5.595,2.184,5.655,5.589
				c0.062,3.509-2.262,5.646-5.617,5.679C148.995,129.789,147.036,127.583,146.699,124.132z"/>
			<path fill="#FC7114" d="M254.693,87.041c0.385-3.709,2.172-5.822,5.719-5.861c3.594-0.041,5.629,2.126,5.629,5.561
				c0,3.423-2.171,5.723-5.584,5.739C257.045,92.496,255.197,90.172,254.693,87.041z"/>
			<path fill="#FC7013" d="M260.242,228.895c-3.281-0.403-5.469-2.103-5.412-5.703c0.057-3.571,2.369-5.652,5.658-5.641
				c3.336,0.014,5.595,2.273,5.561,5.754C266.016,226.771,263.916,228.682,260.242,228.895z"/>
			<path fill="#FC9745" d="M249.805,117.02c16.486,0.417,30.205,13.195,29.777,30.651c-0.436,17.798-13.051,29.801-30.644,29.859
				c-17.473,0.059-29.961-14.028-29.916-30.494C219.068,130.083,232.616,116.934,249.805,117.02z"/>
			<path fill="#FEFEFE" d="M234.013,155.008c-4.008,1.74-6.255,0.834-6.479-3.928c-0.196-4.145-0.984-8.265-1.127-12.409
				c-0.145-4.192,1.375-7.304,6.414-6.54c1.575,0.238,2.293-0.778,3.426-1.387c5.191-2.788,11.436-3.397,16.624-2.685
				c2.916,0.4,6.35,2.266,9.979,2.328c3.428,0.058,3.945,3.107,3.89,5.423c-0.171,6.969-0.808,13.929-1.325,20.887
				c-0.255,3.421-2.934,2.452-4.924,2.497c-2.012,0.045-3.467-0.464-3.364-3.106c0.187-4.823,0.054-9.658-0.969-14.522
				c-0.195,4.033-0.636,8.073-0.521,12.099c0.128,4.487-1.599,5.92-6.117,5.801c-4.793-0.127-4.178-2.935-4.18-5.975
				c-0.003-4.008,0.804-8.06,0.061-12.041c-0.511-0.012-1.022-0.024-1.534-0.036c0,3.653,0.052,7.308-0.011,10.96
				c-0.124,7.199-0.601,7.52-7.885,5.637c-1.341-3.774-0.879-7.7-0.967-11.183C234.451,149.264,236.04,152.344,234.013,155.008z"/>
			<path fill="#FEFCFA" d="M267.977,145.721c3.508,1.685,4.229,3.779,3.006,6.997c-1.35,3.547-2.217,7.276-3.289,10.928
				c-0.549,1.869-1.569,3.71-3.616,3.535c-4.769-0.407-9.503-1.232-14.244-1.94c-0.838-0.125-1.689-0.619-1.395-1.634
				c0.44-1.516,1.322-2.608,3.167-2.58c3.477,0.052,6.959-0.107,10.43,0.029c3.537,0.139,5.136-1.234,5.117-4.921
				C267.137,152.744,267.668,149.35,267.977,145.721z"/>
			<path fill="#FDAC6C" d="M234.013,155.008c0-4.703,0-9.406,0-14.108c0.442-0.021,0.885-0.042,1.328-0.062
				c0.978,5.657,0.458,11.445,0.628,17.173C235.316,157.009,234.665,156.008,234.013,155.008z"/>
		</g>
	</g>
	<path fill="#E09350" d="M218.834,147.428c-0.012-16.792,13.86-30.444,30.908-30.396c17.25,0.048,30.847,13.918,30.751,30.475
		c0.042,16.72-13.865,30.388-30.86,30.367C232.895,177.854,218.846,164.483,218.834,147.428"/>
	<path fill="#E09350" d="M264.568,161.252c-0.139-0.036-0.278-0.101-0.418-0.101c-4.41-0.006-8.821-0.006-13.232,0.004
		c-0.152,0-0.307,0.12-0.459,0.185c-0.079,0.078-0.16,0.154-0.239,0.234c-0.854,0.864-1.357,1.903-1.542,3.088
		c-0.1,0.639,0.083,0.881,0.724,0.987c1.095,0.179,2.19,0.34,3.286,0.506c3.75,0.572,7.502,1.13,11.248,1.722
		c1.58,0.25,3.771-1.01,4.213-2.514c1.549-5.243,3.09-10.488,4.611-15.738c0.057-0.193-0.039-0.504-0.18-0.661
		c-0.568-0.64-1.168-1.261-1.789-1.854c-0.708-0.677-1.452-1.319-2.134-1.933c-0.011,0.204-0.023,0.548-0.048,0.891
		c-0.293,4.256-0.594,8.511-0.879,12.767c-0.078,1.181-0.476,1.768-1.621,2.133C265.617,161.126,265.083,161.162,264.568,161.252z"
		/>
	<path fill="#E09350" d="M235.488,140.694c0.012,0.235,0.029,0.435,0.033,0.634c0.117,5.513,0.238,11.026,0.338,16.54
		c0.008,0.477,0.175,0.744,0.63,0.825c0.775,0.14,1.553,0.367,2.33,0.376c1.573,0.016,3.147-0.08,4.721-0.15
		c0.39-0.018,0.564-0.238,0.574-0.664c0.12-5.253,0.257-10.506,0.393-15.759c0.013-0.511,0.047-1.021,0.07-1.497
		c0.479,0,0.885,0,1.328,0c0,0.26,0.003,0.479,0,0.698c-0.089,5.552-0.179,11.102-0.269,16.654
		c-0.012,0.772,0.029,0.838,0.791,1.015c2.235,0.52,4.508,0.566,6.788,0.485c0.618-0.023,1.24-0.08,1.85-0.188
		c0.795-0.141,0.851-0.235,0.887-1.014c0.244-5.193,0.486-10.386,0.732-15.578c0.028-0.588,0.08-1.174,0.117-1.733
		c0.477,0,0.896,0,1.301,0c0,0.606,0.014,1.163-0.002,1.719c-0.136,5.085-0.264,10.17-0.432,15.255
		c-0.021,0.649,0.249,0.929,0.811,1.037c0.793,0.152,1.588,0.382,2.387,0.392c1.553,0.019,3.107-0.077,4.662-0.156
		c0.447-0.023,0.656-0.298,0.685-0.782c0.104-1.853,0.263-3.704,0.392-5.556c0.328-4.685,0.568-9.377,1.008-14.054
		c0.248-2.613-0.125-5.055-1.155-7.438c-0.308-0.71-0.776-1.127-1.612-1.165c-1.05-0.047-2.101-0.164-3.145-0.297
		c-0.874-0.111-1.65,0.043-2.43,0.475c-1.492,0.829-2.285,0.613-3.242-0.766c-0.436-0.628-0.846-1.271-1.291-1.893
		c-0.346-0.484-0.818-0.709-1.446-0.703c-1.354,0.013-2.711-0.006-4.066-0.054c-0.562-0.021-0.992,0.171-1.34,0.569
		c-0.392,0.45-0.75,0.93-1.143,1.378c-0.818,0.935-1.689,1.162-2.678,0.43c-1.086-0.804-2.214-1.008-3.49-0.812
		c-0.147,0.023-0.304,0.031-0.451,0.009c-1.818-0.267-2.988,0.529-3.924,2.042c-1.117,1.805-1.71,1.916-3.696,1.137
		c-0.591-0.232-1.148-0.26-1.747-0.025c-0.75,0.293-1.514,0.566-2.287,0.79c-0.729,0.211-1.169,0.692-1.362,1.36
		c-0.552,1.913-0.959,3.83-0.733,5.861c0.551,4.942,1.021,9.892,1.503,14.842c0.048,0.496,0.279,0.748,0.729,0.841
		c1.694,0.351,3.395,0.371,5.103,0.094c0.532-0.085,0.735-0.327,0.722-0.897c-0.109-4.566-0.183-9.133-0.267-13.7
		c-0.003-0.195,0-0.391,0-0.577C234.639,140.694,235.043,140.694,235.488,140.694z"/>
	<path fill="#FFFEFD" d="M235.488,140.694c-0.445,0-0.85,0-1.328,0c0,0.185-0.003,0.38,0.001,0.576
		c0.083,4.567,0.157,9.135,0.266,13.7c0.014,0.571-0.19,0.812-0.722,0.897c-1.708,0.277-3.408,0.256-5.103-0.094
		c-0.45-0.093-0.681-0.345-0.729-0.841c-0.481-4.949-0.952-9.9-1.503-14.842c-0.226-2.031,0.182-3.948,0.733-5.861
		c0.193-0.667,0.634-1.149,1.362-1.36c0.774-0.224,1.537-0.497,2.287-0.79c0.599-0.235,1.156-0.207,1.747,0.025
		c1.986,0.78,2.579,0.668,3.696-1.137c0.936-1.513,2.105-2.309,3.923-2.041c0.147,0.021,0.303,0.013,0.451-0.01
		c1.276-0.196,2.404,0.008,3.49,0.812c0.989,0.732,1.86,0.505,2.678-0.429c0.394-0.45,0.751-0.929,1.143-1.379
		c0.348-0.397,0.778-0.59,1.34-0.569c1.355,0.048,2.711,0.068,4.066,0.054c0.628-0.006,1.101,0.22,1.446,0.703
		c0.444,0.621,0.855,1.266,1.291,1.893c0.959,1.379,1.75,1.595,3.242,0.767c0.778-0.433,1.555-0.587,2.43-0.476
		c1.044,0.133,2.095,0.25,3.146,0.297c0.836,0.038,1.304,0.455,1.611,1.165c1.03,2.383,1.403,4.825,1.155,7.438
		c-0.438,4.676-0.681,9.369-1.008,14.055c-0.129,1.851-0.285,3.702-0.392,5.556c-0.028,0.483-0.235,0.758-0.685,0.781
		c-1.555,0.079-3.109,0.176-4.662,0.156c-0.799-0.01-1.594-0.24-2.387-0.392c-0.562-0.108-0.832-0.387-0.811-1.036
		c0.168-5.085,0.296-10.17,0.432-15.256c0.016-0.556,0.002-1.113,0.002-1.719c-0.404,0-0.824,0-1.299,0
		c-0.039,0.56-0.091,1.145-0.119,1.733c-0.246,5.192-0.488,10.385-0.732,15.578c-0.036,0.779-0.092,0.874-0.887,1.014
		c-0.608,0.108-1.23,0.165-1.85,0.188c-2.279,0.082-4.553,0.034-6.788-0.485c-0.761-0.176-0.802-0.242-0.791-1.015
		c0.089-5.552,0.179-11.102,0.269-16.654c0.003-0.218,0-0.438,0-0.698c-0.443,0-0.849,0-1.328,0
		c-0.023,0.476-0.057,0.986-0.07,1.497c-0.136,5.253-0.273,10.506-0.393,15.76c-0.01,0.425-0.184,0.646-0.574,0.663
		c-1.574,0.07-3.148,0.166-4.721,0.15c-0.777-0.009-1.555-0.235-2.33-0.376c-0.455-0.082-0.622-0.349-0.63-0.825
		c-0.1-5.514-0.221-11.027-0.338-16.54C235.517,141.129,235.5,140.93,235.488,140.694z"/>
	<path fill="#FFFDFC" d="M264.568,161.252c0.515-0.09,1.049-0.126,1.541-0.283c1.146-0.365,1.541-0.952,1.621-2.133
		c0.285-4.256,0.586-8.511,0.879-12.767c0.022-0.343,0.037-0.687,0.048-0.891c0.682,0.614,1.426,1.255,2.134,1.933
		c0.621,0.593,1.219,1.214,1.789,1.854c0.141,0.156,0.234,0.468,0.18,0.661c-1.521,5.25-3.062,10.496-4.611,15.738
		c-0.442,1.504-2.633,2.764-4.213,2.514c-3.746-0.592-7.498-1.15-11.248-1.722c-1.096-0.167-2.191-0.327-3.286-0.506
		c-0.64-0.105-0.823-0.348-0.724-0.987c0.185-1.185,0.688-2.225,1.542-3.088c0.079-0.08,0.16-0.156,0.239-0.234
		c0.096-0.008,0.188-0.025,0.281-0.025c3.556-0.002,7.113,0,10.671-0.008C262.464,161.304,263.518,161.271,264.568,161.252z"/>
</g>
<g id="Layer_2">
</g>
<path fill="#FFFEFD" d="M235.19,137.912c-0.37,0-0.707,0-1.104,0c0,0.156-0.002,0.321,0,0.486c0.07,3.854,0.131,7.709,0.222,11.562
	c0.012,0.482-0.158,0.685-0.601,0.757c-1.422,0.233-2.838,0.217-4.249-0.08c-0.375-0.079-0.566-0.291-0.607-0.71
	c-0.401-4.177-0.792-8.354-1.251-12.525c-0.188-1.714,0.151-3.333,0.61-4.946c0.161-0.564,0.528-0.971,1.134-1.149
	c0.645-0.189,1.279-0.419,1.904-0.667c0.498-0.198,0.962-0.174,1.454,0.021c1.654,0.658,2.147,0.564,3.077-0.959
	c0.779-1.277,1.753-1.949,3.267-1.723c0.122,0.019,0.252,0.012,0.375-0.007c1.062-0.166,2.001,0.006,2.906,0.685
	c0.823,0.618,1.549,0.426,2.23-0.363c0.327-0.379,0.625-0.783,0.952-1.163c0.289-0.336,0.647-0.498,1.116-0.481
	c1.127,0.041,2.256,0.058,3.384,0.046c0.523-0.005,0.917,0.186,1.205,0.594c0.371,0.524,0.713,1.067,1.076,1.597
	c0.796,1.164,1.455,1.346,2.699,0.647c0.648-0.364,1.293-0.495,2.021-0.401c0.869,0.112,1.744,0.21,2.619,0.25
	c0.695,0.032,1.086,0.384,1.341,0.983c0.858,2.011,1.168,4.073,0.964,6.278c-0.367,3.945-0.568,7.906-0.84,11.86
	c-0.107,1.562-0.237,3.125-0.326,4.688c-0.023,0.408-0.196,0.641-0.57,0.66c-1.293,0.067-2.588,0.147-3.881,0.131
	c-0.664-0.008-1.327-0.202-1.986-0.331c-0.468-0.091-0.693-0.327-0.675-0.874c0.14-4.291,0.246-8.583,0.358-12.875
	c0.013-0.469,0.002-0.938,0.002-1.451c-0.337,0-0.687,0-1.082,0c-0.032,0.472-0.075,0.967-0.098,1.462
	c-0.206,4.382-0.407,8.765-0.61,13.147c-0.03,0.657-0.076,0.737-0.739,0.856c-0.506,0.091-1.024,0.139-1.54,0.158
	c-1.897,0.069-3.79,0.03-5.651-0.409c-0.633-0.149-0.668-0.205-0.658-0.857c0.074-4.685,0.149-9.37,0.224-14.054
	c0.003-0.185,0-0.37,0-0.588c-0.369,0-0.708,0-1.106,0c-0.019,0.401-0.047,0.831-0.058,1.262c-0.113,4.433-0.227,8.866-0.327,13.3
	c-0.008,0.359-0.153,0.545-0.478,0.56c-1.31,0.059-2.621,0.14-3.93,0.126c-0.647-0.006-1.294-0.198-1.94-0.316
	c-0.379-0.07-0.518-0.295-0.525-0.696c-0.083-4.653-0.184-9.306-0.281-13.959C235.215,138.279,235.201,138.111,235.19,137.912z"/>
<path fill="#FFFDFC" d="M259.402,155.262c0.429-0.077,0.873-0.106,1.283-0.239c0.955-0.308,1.283-0.804,1.35-1.8
	c0.237-3.592,0.487-7.183,0.731-10.775c0.02-0.29,0.031-0.58,0.04-0.752c0.567,0.519,1.187,1.06,1.776,1.631
	c0.517,0.501,1.015,1.024,1.489,1.565c0.117,0.132,0.196,0.396,0.15,0.557c-1.268,4.431-2.551,8.858-3.84,13.283
	c-0.371,1.269-2.193,2.332-3.508,2.122c-3.119-0.5-6.243-0.971-9.365-1.454c-0.912-0.141-1.825-0.276-2.735-0.427
	c-0.533-0.088-0.687-0.293-0.603-0.833c0.155-1,0.572-1.877,1.284-2.606c0.065-0.067,0.133-0.132,0.2-0.197
	c0.078-0.008,0.156-0.021,0.234-0.021c2.961-0.002,5.922,0,8.884-0.007C257.649,155.306,258.525,155.278,259.402,155.262z"/>
<path fill="#FD9846" d="M280.269,147.508c0.043,16.825-13.764,30.578-30.637,30.557c-16.616-0.021-30.563-13.474-30.574-30.636
	c-0.011-16.899,13.759-30.636,30.684-30.587C266.864,116.89,280.363,130.847,280.269,147.508z M264.458,161.34
	c-0.137-0.036-0.274-0.102-0.414-0.102c-4.378-0.006-8.756-0.007-13.136,0.003c-0.152,0-0.304,0.121-0.455,0.186
	c-0.08,0.079-0.161,0.156-0.238,0.236c-0.848,0.87-1.347,1.915-1.531,3.108c-0.1,0.643,0.083,0.887,0.72,0.993
	c1.085,0.18,2.174,0.341,3.26,0.509c3.723,0.576,7.449,1.138,11.168,1.733c1.567,0.25,3.74-1.017,4.181-2.53
	c1.539-5.275,3.067-10.554,4.58-15.838c0.055-0.193-0.041-0.507-0.179-0.665c-0.567-0.644-1.161-1.268-1.777-1.865
	c-0.702-0.682-1.439-1.327-2.118-1.944c-0.009,0.205-0.023,0.551-0.047,0.896c-0.29,4.282-0.589,8.565-0.873,12.847
	c-0.077,1.188-0.47,1.778-1.608,2.146C265.5,161.213,264.971,161.249,264.458,161.34z M235.59,140.652
	c0.013,0.236,0.029,0.437,0.034,0.637c0.115,5.549,0.236,11.096,0.335,16.645c0.009,0.479,0.174,0.748,0.626,0.83
	c0.77,0.142,1.541,0.369,2.313,0.377c1.561,0.017,3.125-0.08,4.686-0.15c0.388-0.018,0.561-0.24,0.57-0.668
	c0.119-5.286,0.255-10.572,0.391-15.858c0.013-0.514,0.046-1.027,0.068-1.505c0.476,0,0.879,0,1.319,0
	c0,0.261,0.003,0.481-0.001,0.702c-0.089,5.586-0.178,11.172-0.267,16.758c-0.012,0.778,0.029,0.843,0.785,1.022
	c2.218,0.522,4.475,0.57,6.737,0.487c0.613-0.021,1.231-0.08,1.837-0.188c0.791-0.142,0.845-0.237,0.881-1.021
	c0.243-5.225,0.481-10.451,0.727-15.676c0.028-0.591,0.079-1.181,0.118-1.744c0.471,0,0.888,0,1.289,0
	c0,0.61,0.014,1.17-0.001,1.729c-0.136,5.118-0.263,10.235-0.429,15.353c-0.021,0.653,0.247,0.933,0.805,1.042
	c0.787,0.153,1.576,0.384,2.367,0.394c1.542,0.019,3.087-0.077,4.629-0.157c0.445-0.023,0.652-0.3,0.68-0.787
	c0.107-1.865,0.26-3.727,0.389-5.59c0.325-4.715,0.564-9.438,1.002-14.142c0.242-2.63-0.126-5.088-1.149-7.486
	c-0.304-0.715-0.77-1.134-1.6-1.172c-1.044-0.048-2.086-0.166-3.122-0.299c-0.868-0.112-1.638,0.044-2.411,0.478
	c-1.481,0.833-2.269,0.617-3.22-0.771c-0.431-0.631-0.839-1.28-1.281-1.904c-0.344-0.487-0.812-0.715-1.436-0.708
	c-1.346,0.014-2.692-0.006-4.036-0.055c-0.56-0.02-0.986,0.173-1.331,0.574c-0.389,0.453-0.744,0.936-1.134,1.387
	c-0.813,0.941-1.678,1.169-2.659,0.433c-1.078-0.81-2.198-1.015-3.464-0.817c-0.146,0.023-0.302,0.031-0.448,0.009
	c-1.805-0.269-2.966,0.532-3.895,2.054c-1.109,1.817-1.698,1.928-3.669,1.144c-0.587-0.233-1.14-0.262-1.735-0.025
	c-0.745,0.295-1.501,0.569-2.27,0.795c-0.724,0.212-1.161,0.696-1.352,1.37c-0.548,1.924-0.954,3.853-0.728,5.897
	c0.547,4.973,1.014,9.955,1.492,14.935c0.048,0.499,0.277,0.752,0.724,0.846c1.682,0.354,3.37,0.374,5.065,0.096
	c0.527-0.087,0.729-0.329,0.716-0.903c-0.108-4.595-0.181-9.191-0.265-13.787c-0.004-0.196,0-0.393,0-0.58
	C234.747,140.652,235.148,140.652,235.59,140.652z"/>
<path fill="#FFFEFD" d="M235.59,140.652c-0.441,0-0.843,0-1.317,0c0,0.186-0.003,0.383,0,0.579
	c0.083,4.596,0.157,9.192,0.265,13.787c0.013,0.574-0.189,0.816-0.716,0.903c-1.696,0.278-3.384,0.258-5.065-0.096
	c-0.447-0.093-0.676-0.346-0.724-0.846c-0.478-4.98-0.945-9.962-1.492-14.935c-0.225-2.044,0.18-3.973,0.728-5.897
	c0.191-0.674,0.628-1.157,1.352-1.37c0.769-0.226,1.525-0.5,2.271-0.795c0.594-0.236,1.147-0.208,1.734,0.025
	c1.971,0.784,2.561,0.673,3.669-1.144c0.93-1.522,2.09-2.323,3.896-2.054c0.145,0.022,0.301,0.015,0.447-0.009
	c1.267-0.197,2.386,0.007,3.464,0.817c0.981,0.736,1.848,0.509,2.659-0.432c0.391-0.452,0.745-0.935,1.134-1.387
	c0.347-0.401,0.771-0.594,1.331-0.574c1.344,0.05,2.69,0.069,4.036,0.055c0.623-0.007,1.092,0.221,1.436,0.708
	c0.442,0.625,0.851,1.273,1.281,1.904c0.951,1.388,1.738,1.604,3.221,0.771c0.772-0.435,1.542-0.59,2.41-0.479
	c1.036,0.133,2.078,0.251,3.123,0.299c0.829,0.038,1.295,0.457,1.599,1.172c1.023,2.398,1.395,4.856,1.149,7.486
	c-0.438,4.704-0.677,9.427-1.002,14.142c-0.129,1.863-0.281,3.726-0.388,5.59c-0.028,0.487-0.235,0.764-0.681,0.787
	c-1.542,0.08-3.087,0.176-4.629,0.157c-0.791-0.01-1.58-0.241-2.367-0.394c-0.558-0.109-0.826-0.389-0.805-1.042
	c0.166-5.117,0.293-10.235,0.429-15.353c0.015-0.559,0.001-1.119,0.001-1.729c-0.401,0-0.818,0-1.289,0
	c-0.039,0.562-0.09,1.152-0.118,1.744c-0.245,5.225-0.483,10.451-0.727,15.676c-0.036,0.784-0.09,0.88-0.881,1.021
	c-0.605,0.108-1.224,0.167-1.837,0.188c-2.263,0.083-4.52,0.036-6.737-0.487c-0.756-0.179-0.797-0.244-0.785-1.022
	c0.089-5.585,0.178-11.172,0.267-16.758c0.004-0.22,0.001-0.44,0.001-0.702c-0.44,0-0.844,0-1.318,0
	c-0.023,0.479-0.057,0.991-0.069,1.505c-0.135,5.286-0.272,10.572-0.391,15.858c-0.009,0.428-0.182,0.651-0.57,0.668
	c-1.561,0.07-3.125,0.167-4.686,0.15c-0.772-0.008-1.543-0.236-2.313-0.377c-0.453-0.083-0.618-0.352-0.626-0.83
	c-0.099-5.548-0.22-11.096-0.335-16.645C235.619,141.089,235.603,140.889,235.59,140.652z"/>
<path fill="#FFFDFC" d="M264.458,161.34c0.513-0.091,1.042-0.126,1.531-0.285c1.138-0.368,1.531-0.958,1.608-2.146
	c0.284-4.282,0.582-8.565,0.873-12.847c0.023-0.345,0.036-0.692,0.047-0.896c0.676,0.618,1.415,1.263,2.118,1.944
	c0.616,0.597,1.209,1.222,1.775,1.865c0.14,0.158,0.235,0.472,0.181,0.665c-1.513,5.284-3.042,10.562-4.58,15.838
	c-0.44,1.514-2.613,2.781-4.181,2.53c-3.719-0.596-7.445-1.157-11.168-1.733c-1.087-0.168-2.176-0.33-3.262-0.509
	c-0.636-0.106-0.817-0.35-0.718-0.993c0.185-1.193,0.682-2.238,1.53-3.108c0.078-0.08,0.159-0.157,0.238-0.236
	c0.093-0.009,0.186-0.025,0.278-0.025c3.532-0.002,7.062,0,10.593-0.009C262.368,161.392,263.414,161.358,264.458,161.34z"/>
</svg>
