<?xml version="1.0" encoding="utf-8"?>
<!-- Generator: Adobe Illustrator 16.0.0, SVG Export Plug-In . SVG Version: 6.00 Build 0)  -->
<!DOCTYPE svg PUBLIC "-//W3C//DTD SVG 1.1//EN" "http://www.w3.org/Graphics/SVG/1.1/DTD/svg11.dtd">
<svg version="1.1"
	 id="svg2" xmlns:rdf="http://www.w3.org/1999/02/22-rdf-syntax-ns#" xmlns:dc="http://purl.org/dc/elements/1.1/" xmlns:svg="http://www.w3.org/2000/svg" xmlns:inkscape="http://www.inkscape.org/namespaces/inkscape" xmlns:cc="http://creativecommons.org/ns#" xmlns:sodipodi="http://sodipodi.sourceforge.net/DTD/sodipodi-0.dtd" inkscape:version="0.91 r13725" sodipodi:docname="responsive.svg" inkscape:export-ydpi="76.200157" inkscape:export-filename="/home/clovis/Dropbox/embrace-responsive-web-design.svg.png" inkscape:export-xdpi="76.200157"
	 xmlns="http://www.w3.org/2000/svg" xmlns:xlink="http://www.w3.org/1999/xlink" x="0px" y="0px" width="2362.2px"
	 height="1417.2px" viewBox="0 0 2362.2 1417.2" enable-background="new 0 0 2362.2 1417.2" xml:space="preserve">
<path id="rect4268" inkscape:connector-curvature="0" d="M441.565,112.417c-9.972,0-18,8.028-18,18v521.21H262.25
	c-8.596,0-15.535,6.908-15.535,15.473v565.748c0,8.566,6.939,15.473,15.535,15.473h342.416v45.961c0,5.809,4.692,10.5,10.5,10.5
	h205.648c5.809,0,10.5-4.691,10.5-10.5v-194.498h111.934h196.291h97.423v94.863h-85.058l-9.703,2.527v37.875
	c0,0,10.271,11.281,16.117,11.281h190.179h560.695h190.178c5.846,0,16.117-11.281,16.117-11.281v-37.875l-9.699-2.527h-85.062
	V727.674c0-11.895-9.152-21.485-20.5-21.485h-341.006V130.417c0-9.972-8.027-18-18-18H441.565L441.565,112.417z M831.313,963.786
	h74.535c-0.155,3.463-0.386,8.193-0.707,13.645c-1.291,21.926-4.092,55.607-9.561,64.555c-6.517,10.666-47.227,34.648-64.268,44.383
	V963.786L831.313,963.786z M1176.937,963.786h60.025v114.109c-19.258-11.484-44.74-27.701-49.758-35.91
	c-5.467-8.947-8.269-42.629-9.56-64.555C1177.323,971.979,1177.092,967.249,1176.937,963.786L1176.937,963.786z"/>
<g id="g4591">
	<g id="g4581">
		<rect id="rect7976" x="440.876" y="140.915" fill="#397F7F" width="1200.46" height="803.292"/>
		<g id="g4784" transform="translate(-162.34041,-72.838509)">
			<rect id="rect4774" x="659.955" y="787.642" fill="#00CBDD" width="337.442" height="172.666"/>
			<rect id="rect4772" x="662.941" y="461.61" fill="#F27022" width="1078.025" height="286.677"/>
			<rect id="rect4782" x="1412.481" y="787.642" fill="#BCBCBC" width="325.498" height="172.666"/>
			<rect id="rect4768" x="659.955" y="270.491" fill="#FD9846" width="444.946" height="149.311"/>
			<rect id="rect4770" x="1146.708" y="270.491" fill="#FFFFFF" width="594.257" height="149.311"/>
			<rect id="rect4780" x="1033.232" y="787.642" fill="#00CBDD" width="337.443" height="172.666"/>
		</g>
	</g>
	<g id="g4195" transform="translate(-281.7892,-96.728268)">
		<path id="path4173" inkscape:connector-curvature="0" fill="#E8EBF0" d="M1190.133,1042.633l-2.252,12.01
			c0,0-2.253,70.561-10.51,84.072s-72.061,48.791-72.061,48.791v9.008h119.727h196.291h119.727v-9.008
			c0,0-63.805-35.279-72.061-48.791c-8.257-13.512-10.51-84.072-10.51-84.072l-2.252-12.01l-133.049,2.592L1190.133,1042.633
			L1190.133,1042.633z"/>
		<path id="rect4171" inkscape:connector-curvature="0" fill="#C4C4C4" d="M1190.133,1042.633l-2.252,12.01
			c0,0-0.291,8.338-0.949,19.518h272.502c-0.658-11.18-0.949-19.518-0.949-19.518l-2.252-12.01l-133.049,2.592L1190.133,1042.633z"
			/>
		<path id="rect4140" inkscape:connector-curvature="0" fill="#474E5E" d="M723.356,209.146c-9.973,0-18,8.028-18,18v815.37
			c0,9.973,8.027,18,18,18H1923.01c9.971,0,18-8.027,18-18v-815.37c0-9.972-8.029-18-18-18H723.356z M744.389,254.658h1157.588
			v760.346H744.389V254.658z"/>
	</g>
</g>
<g id="g4564">
	<g id="g4554">
		<rect id="rect7978" x="264.689" y="690.379" fill="#397F7F" width="424.043" height="522.588"/>
		<g id="g4414" transform="translate(-162.34041,-72.838509)">
			<rect id="rect4390" x="466.109" y="958.497" fill="#F27022" width="351.134" height="190.398"/>
			<rect id="rect4394" x="466.109" y="805.9" fill="#FD9846" width="351.134" height="58.105"/>
			<rect id="rect4396" x="466.109" y="881.448" fill="#FFFFFF" width="351.134" height="58.107"/>
			<rect id="rect4388" x="465.894" y="1163.128" fill="#00CBDD" width="110.046" height="99.598"/>
			<rect id="rect4392" x="711.306" y="1163.128" fill="#00CBDD" width="106.151" height="99.598"/>
			<rect id="rect4398" x="587.627" y="1163.128" fill="#00CBDD" width="110.046" height="99.598"/>
		</g>
	</g>
	<g id="g4547">
		<g id="g4247" transform="translate(-1344.8834,10.775646)">
			<path id="path4205" inkscape:connector-curvature="0" sodipodi:nodetypes="ssssssssssssssssss" fill="#7F8081" d="
				M1607.133,640.853c-8.596,0-15.535,6.908-15.535,15.473v565.749c0,8.564,6.939,15.473,15.535,15.473h440.14
				c8.597,0,15.533-6.908,15.533-15.473V656.326c0-8.564-6.937-15.473-15.533-15.473H1607.133z M1607.133,641.853h440.14
				c8.061,0,14.533,6.447,14.533,14.473v565.749c0,8.025-6.472,14.473-14.533,14.473h-440.14c-8.062,0-14.535-6.447-14.535-14.473
				V656.326C1592.598,648.301,1599.071,641.853,1607.133,641.853z"/>
		</g>
		<g id="g8030" transform="translate(-162.34041,-72.838509)">
			<path id="rect4193" inkscape:connector-curvature="0" fill="#474E5E" stroke="#474E5E" stroke-width="1.0002" d="M424.59,724.967
				c-8.329,0-15.035,6.678-15.035,14.973v565.749c0,8.295,6.706,14.973,15.035,14.973h440.14c8.329,0,15.033-6.678,15.033-14.973
				V739.94c0-8.295-6.704-14.973-15.033-14.973H424.59z M449.242,787.642h390.833v472.225H449.242V787.642L449.242,787.642z"/>
			
				<circle id="path8011" fill="#374054" stroke="#BEC1C7" stroke-width="0.9" stroke-linejoin="round" cx="644.659" cy="1289.912" r="19.411"/>
		</g>
	</g>
</g>
<g id="g4614">
	<g id="g4606">
		<rect id="rect7982" x="614.077" y="951.674" fill="#397F7F" width="208.288" height="313.553"/>
		<g id="g4422" transform="matrix(0.47995891,0,0,0.7111997,410.49309,402.11329)">
			<rect id="rect4424" x="466.108" y="958.496" fill="#F27022" width="351.135" height="190.399"/>
			<rect id="rect4426" x="466.108" y="805.898" fill="#FD9846" width="351.135" height="58.108"/>
			<rect id="rect4428" x="466.108" y="881.45" fill="#FFFFFF" width="351.135" height="58.105"/>
			<path id="rect4430" inkscape:connector-curvature="0" fill="#00CBDD" d="M465.893,1163.126v82.805h121.731h22.538h87.51h119.786
				v-82.805H697.671h-87.51h-22.538H465.893z"/>
		</g>
	</g>
	<g id="g4263" transform="translate(-1372.1045,-13.767862)">
		<path id="rect4265" inkscape:connector-curvature="0" fill="#7F8081" d="M1987.27,942.612c-5.809,0-10.5,4.691-10.5,10.5v354.939
			c0,5.807,4.691,10.5,10.5,10.5h205.648c5.809,0,10.5-4.693,10.5-10.5V953.112c0-5.809-4.691-10.5-10.5-10.5H1987.27z
			 M1987.27,943.612h205.648c5.271,0,9.5,4.229,9.5,9.5v354.939c0,5.271-4.229,9.5-9.5,9.5H1987.27c-5.271,0-9.5-4.229-9.5-9.5
			V953.112C1977.77,947.841,1981.998,943.612,1987.27,943.612z"/>
		<g id="g8058">
			<path id="rect4263" inkscape:connector-curvature="0" fill="#474E5E" d="M1987.27,943.112c-5.54,0-10,4.459-10,10v354.939
				c0,5.539,4.46,10,10,10h205.648c5.54,0,10-4.461,10-10V953.112c0-5.541-4.46-10-10-10H1987.27z M1994.602,975.598h190.984
				v294.133h-190.984V975.598z"/>
			
				<circle id="path8011-1" fill="#374054" stroke="#BEC1C7" stroke-width="0.5955" stroke-linejoin="round" cx="2090.094" cy="1293.926" r="12.843"/>
		</g>
	</g>
</g>
<g id="g4647">
	<g id="g4637">
		<rect id="rect7980" x="1259.1" y="726.213" fill="#397F7F" width="740.582" height="486.754"/>
		<g id="g4372" transform="matrix(0.60173159,0,0,0.60173159,907.03659,605.25772)">
			<rect id="rect4374" x="659.955" y="787.639" fill="#00CBDD" width="337.441" height="172.669"/>
			<rect id="rect4376" x="662.942" y="461.608" fill="#F27022" width="1078.024" height="286.679"/>
			<rect id="rect4378" x="1412.48" y="787.639" fill="#00CBDD" width="325.499" height="172.669"/>
			<rect id="rect4380" x="659.955" y="270.493" fill="#FD9846" width="444.946" height="149.309"/>
			<rect id="rect4382" x="1146.708" y="270.493" fill="#FFFFFF" width="594.258" height="149.309"/>
			<rect id="rect4384" x="1033.23" y="787.639" fill="#00CBDD" width="337.444" height="172.669"/>
		</g>
	</g>
	<g id="g4628">
		<g id="g4417" transform="translate(996.31289,4.803203)">
			<g id="g4286">
				<path id="rect4267" inkscape:connector-curvature="0" fill="#474E5E" d="M261.149,701.882c-11.08,0-20,8.92-20,20v484.436
					c0,11.08,8.92,20,20,20h742.762c11.08,0,20-8.92,20-20V721.883c0-11.08-8.92-20-20-20H261.149z M274.902,735.65h715.256v471.627
					H274.902V735.65z"/>
				<path id="rect4281" inkscape:connector-curvature="0" fill="#808080" d="M261.149,701.384c-11.348,0-20.498,9.59-20.498,21.485
					v483.268c0,11.895,9.15,21.488,20.498,21.488h742.762c11.348,0,20.5-9.594,20.5-21.488V722.869
					c0-11.895-9.152-21.484-20.5-21.484L261.149,701.384L261.149,701.384z M261.149,702.431h742.762
					c10.812,0,19.5,9.106,19.5,20.438v483.268c0,11.334-8.688,20.439-19.5,20.439H261.149c-10.812,0-19.5-9.105-19.5-20.439V722.869
					C241.649,711.537,250.336,702.431,261.149,702.431L261.149,702.431z"/>
			</g>
		</g>
		<g id="g8072" transform="translate(-162.34041,-72.838509)">
			<path id="path4290" inkscape:connector-curvature="0" fill="#E8EBF0" d="M1314.243,1267.484l-9.703,2.527v37.875
				c0,0,10.271,11.281,16.117,11.281h190.18h560.695h190.178c5.846,0,16.117-11.281,16.117-11.281v-37.875l-9.701-2.527h-196.594
				h-560.695H1314.243z"/>
			<path id="path8062" inkscape:connector-curvature="0" fill="#6B6B6B" d="M1757.39,1267.484l9.16,9.16h24.475h13.025h24.473
				l9.16-9.16h-33.633h-13.025H1757.39z"/>
		</g>
	</g>
</g>
</svg>
