<?xml version="1.0" encoding="utf-8"?>
<!-- Generator: Adobe Illustrator 16.0.0, SVG Export Plug-In . SVG Version: 6.00 Build 0)  -->
<!DOCTYPE svg PUBLIC "-//W3C//DTD SVG 1.1//EN" "http://www.w3.org/Graphics/SVG/1.1/DTD/svg11.dtd">
<svg version="1.1"
	 id="svg5689" xmlns:rdf="http://www.w3.org/1999/02/22-rdf-syntax-ns#" xmlns:dc="http://purl.org/dc/elements/1.1/" xmlns:cc="http://creativecommons.org/ns#" xmlns:ns1="http://sozi.baierouge.fr" xmlns:sodipodi="http://sodipodi.sourceforge.net/DTD/sodipodi-0.dtd" xmlns:inkscape="http://www.inkscape.org/namespaces/inkscape" xmlns:svg="http://www.w3.org/2000/svg" inkscape:version="0.91 r13725"
	 xmlns="http://www.w3.org/2000/svg" xmlns:xlink="http://www.w3.org/1999/xlink" x="0px" y="0px" width="4148.322px"
	 height="1809.763px" viewBox="1925.839 0 4148.322 1809.763" enable-background="new 1925.839 0 4148.322 1809.763"
	 xml:space="preserve">
<rect id="rect5359" x="1925.839" fill="#55CADB" width="4146.979" height="2000"/>
<path id="path5345" fill="#878888" d="M3372.818,1589.933c0,0,1003.356-826.174,1083.893-883.222
	c80.537-56.778,67.114-85.637,241.611,62.417c167.785,148.321,1194.631,1071.812,1194.631,1071.812L3372.818,1589.933z"/>
<path id="path5347" fill="#7D7E7E" d="M4537.248,660.671c-26.846,2.014-46.979,21.208-80.537,46.04
	c-80.536,57.048-1083.893,883.222-1083.893,883.222l1164.43,116.107V660.671L4537.248,660.671L4537.248,660.671z"/>
<path id="path5349" fill="#FFFFFF" fill-opacity="0.9453" d="M4537.248,660.671c-26.846,2.014-46.979,21.208-80.537,46.04
	c-13.422,11.41-73.825,56.376-147.65,118.121c0,22.819,0,44.967,6.711,55.705c20.135,27.517,114.094-25.504,114.094-25.504
	s13.424,71.142,107.383,71.142c73.826,0,80.537-91.275,80.537-91.275s127.517,82.55,167.785,39.598
	c6.712-5.369,6.712-12.752,6.712-22.148c-46.98-36.241-73.825-65.101-93.96-83.221
	C4604.362,685.906,4564.094,658.658,4537.248,660.671z"/>
<path id="path5351" fill="#F2F2F2" fill-opacity="0.5595" d="M4537.248,660.671c-26.846,2.014-46.979,21.208-80.537,46.04
	c-13.422,11.41-73.825,56.376-147.65,118.121c0,22.819,0,44.967,6.711,55.705c20.135,27.517,114.094-25.504,114.094-25.504
	s13.424,71.142,107.383,71.142h6.712V660.671C4537.248,660.671,4537.248,660.671,4537.248,660.671z"/>
<path id="path4811" fill="#878888" d="M3296.309,454.161c-28.188,2.014-50.336,25.906-93.289,56.645
	c-93.959,67.181-1171.812,981.812-1267.113,1060.335v30.202l3030.872,306.04c0,0-1255.033-1136.913-1469.127-1319.396
	C3379.53,485.302,3332.551,451.611,3296.309,454.161L3296.309,454.161z"/>
<path id="path5328" fill="#7D7E7E" d="M3295.638,454.161c-28.188,2.014-49.665,25.906-92.618,56.645
	c-89.933,64.496-1107.382,896.577-1277.181,1035.503v57.719l1375.168,136.912V454.161H3295.638z"/>
<path id="path5335" fill="#FFFFFF" fill-opacity="0.9453" d="M3295.638,454.161c-28.188,2.014-49.665,25.906-92.618,56.645
	c-20.134,14.295-89.262,69.329-183.893,145.771c-2.684,27.315-2.013,54.832,8.726,68.255
	c26.175,33.558,140.269-31.543,140.269-31.543s14.094,87.248,133.557,87.248c90.604,0,94.631-111.812,94.631-111.812
	s165.101,101.745,208.054,48.725c6.712-6.711,13.423-16.107,6.712-27.517c-47.651-44.362-88.591-80.335-113.424-101.946
	C3379.53,485.302,3331.879,451.61,3295.638,454.161z"/>
<path id="path5340" fill="#F2F2F2" fill-opacity="0.5595" d="M3295.638,454.161c-28.188,2.014-49.665,25.906-92.618,56.645
	c-20.134,14.295-89.262,69.329-183.893,145.771c-2.684,27.315-2.013,54.832,8.726,68.255
	c26.175,33.558,140.269-31.543,140.269-31.543s14.094,87.248,133.557,87.248h0.672V454.161
	C3300.336,454.161,3297.65,454.161,3295.638,454.161z"/>
<path id="path5357" fill="#ECE479" d="M5067.449,313.388c-29.461,71.486-111.296,105.555-182.783,76.094
	c-71.486-29.462-105.555-111.296-76.094-182.783c29.461-71.487,111.297-105.556,182.783-76.094
	c63.73,26.265,98.859,95.01,82.806,162.045"/>
<path id="rect5363" fill="#E09350" d="M6074.161,1367.785c-40.269,4.698-80.537,10.738-127.517,18.792
	c-221.477,40.269-899.329,226.846-1355.705,260.403c-449.664,32.886-1271.141-193.289-1664.43-206.712
	c-393.893-13.423-993.959,86.577-993.959,86.577l-6.712,6.04v466.443h4148.322V1367.785L6074.161,1367.785z"/>
<g>
	<path display="none" fill="#FFFFFF" d="M4750.062,438.266c0-118.961,0-237.922,0-356.883c119.041,0,238.082,0,357.121,0
		c0,118.961,0,237.922,0,356.883C4988.145,438.266,4869.104,438.266,4750.062,438.266z M4932.85,405.466
		c80.107,0.202,146.359-64.665,146.438-146.181c0.076-80.89-65.301-146.383-146.201-146.436
		c-81.502-0.054-146.326,66.06-146.443,146.083C4786.523,339.755,4852.137,405.527,4932.85,405.466z"/>
	<path fill-rule="evenodd" clip-rule="evenodd" fill="#FD9846" d="M4932.85,405.466c-80.713,0.062-146.326-65.711-146.207-146.533
		c0.117-80.024,64.941-146.137,146.443-146.083c80.9,0.053,146.277,65.546,146.201,146.436
		C5079.209,340.801,5012.957,405.667,4932.85,405.466z M4973.048,229.606c0,0.554,0.009,0.947-0.001,1.339
		c-0.075,2.933-0.153,5.865-0.23,8.797c-0.156,5.944-0.312,11.888-0.469,17.832c-0.164,6.3-0.326,12.6-0.491,18.899
		c-0.152,5.825-0.31,11.65-0.462,17.475c-0.162,6.142-0.325,12.283-0.481,18.426c-0.056,2.186,0.231,2.61,2.278,3.469
		c0.146,0.061,0.297,0.113,0.445,0.167c3.422,1.226,6.991,1.74,10.58,2.086c2.916,0.281,5.848,0.407,8.773,0.572
		c4.327,0.246,8.637,0.007,12.922-0.599c1.449-0.205,2.889-0.519,4.201-1.23c0.705-0.383,1.145-0.91,1.201-1.77
		c0.291-4.467,0.619-8.932,0.924-13.398c0.193-2.846,0.359-5.694,0.553-8.541c0.299-4.388,0.611-8.774,0.914-13.161
		c0.175-2.529,0.34-5.06,0.516-7.59c0.299-4.308,0.605-8.615,0.903-12.923c0.181-2.609,0.349-5.219,0.529-7.828
		c0.292-4.189,0.595-8.377,0.884-12.567c0.19-2.767,0.357-5.536,0.549-8.303c0.291-4.229,0.596-8.457,0.891-12.686
		c0.184-2.648,0.295-5.304,0.557-7.944c0.205-2.07,0.19-4.118-0.15-6.16c-1.053-6.31-2.715-12.459-5.018-18.428
		c-0.713-1.847-1.489-3.674-2.787-5.221c-0.846-1.007-1.826-1.748-3.176-1.892c-2.796-0.298-5.588-0.627-8.387-0.892
		c-3.904-0.369-7.824-0.6-11.717-1.064c-2.32-0.277-4.4,0.175-6.41,1.241c-1.121,0.594-2.23,1.21-3.365,1.777
		c-2.158,1.078-4.427,1.677-6.869,1.625c-1.29-0.027-2.465-0.345-3.399-1.193c-1.079-0.98-2.168-1.998-3.024-3.167
		c-1.543-2.107-2.892-4.357-4.371-6.514c-1.142-1.665-2.297-3.328-3.561-4.899c-1.266-1.572-2.861-2.59-5.029-2.419
		c-0.862,0.068-1.74-0.083-2.611-0.1c-6.144-0.121-12.289-0.194-18.431-0.37c-1.974-0.057-3.583,0.602-4.922,1.948
		c-1.06,1.066-2.026,2.226-3.005,3.369c-1.596,1.865-3.137,3.778-4.764,5.616c-0.819,0.926-1.862,1.599-3.044,2.02
		c-2.272,0.81-4.491,0.441-6.581-0.53c-1.461-0.68-2.793-1.643-4.172-2.495c-1.012-0.624-1.987-1.306-3.014-1.901
		c-1.049-0.607-2.199-0.881-3.422-0.819c-1.227,0.062-2.453,0.122-3.681,0.168c-4.634,0.174-9.269,0.364-13.903,0.5
		c-1.412,0.042-2.664,0.465-3.74,1.322c-0.863,0.688-1.725,1.423-2.408,2.28c-1.434,1.794-2.766,3.67-4.108,5.534
		c-1.483,2.059-2.905,4.163-4.793,5.893c-1.587,1.453-3.392,2.251-5.599,2.185c-2.069-0.062-3.965-0.694-5.85-1.437
		c-1.18-0.465-2.346-0.972-3.549-1.366c-1.701-0.558-3.409-0.562-5.127,0.063c-2.682,0.975-5.391,1.871-8.078,2.826
		c-2.128,0.755-4.246,1.538-6.359,2.332c-1.038,0.39-1.773,1.148-2.41,2.042c-1.358,1.912-2.074,4.087-2.672,6.314
		c-1.306,4.866-2.257,9.807-2.803,14.812c-0.234,2.156-0.267,4.35-0.199,6.521c0.062,1.974,0.393,3.938,0.59,5.909
		c0.353,3.547,0.686,7.097,1.043,10.644c0.354,3.507,0.736,7.012,1.09,10.519c0.356,3.547,0.682,7.097,1.039,10.645
		c0.438,4.334,0.902,8.667,1.338,13.001c0.434,4.296,0.836,8.595,1.268,12.891c0.443,4.414,0.932,8.823,1.338,13.24
		c0.088,0.954,0.451,1.611,1.312,1.92c1.188,0.426,2.386,0.904,3.62,1.111c2.184,0.366,4.393,0.6,6.601,0.787
		c4.595,0.39,9.189,0.312,13.759-0.313c1.402-0.192,2.782-0.596,4.148-0.984c0.986-0.28,1.396-0.953,1.359-2.055
		c-0.134-4.001-0.174-8.006-0.249-12.009c-0.075-4.003-0.154-8.007-0.226-12.01c-0.1-5.589-0.191-11.179-0.293-16.768
		c-0.054-2.933-0.131-5.865-0.182-8.798c-0.113-6.581-0.218-13.161-0.32-19.742c-0.005-0.343,0.041-0.687,0.062-1.01
		c1.476-0.218,5.477-0.118,6.326,0.151c0.074,2.207,0.163,4.422,0.219,6.639c0.091,3.646,0.16,7.292,0.239,10.938
		c0.158,7.332,0.316,14.664,0.474,21.996c0.16,7.372,0.326,14.743,0.475,22.115c0.128,6.382,0.232,12.764,0.355,19.146
		c0.021,1.109,0.105,2.217,0.121,3.326c0.01,0.616,0.242,1.079,0.76,1.385c0.373,0.221,0.75,0.476,1.16,0.586
		c1.833,0.491,3.659,1.044,5.523,1.374c3.513,0.622,7.071,0.853,10.636,1.045c4.958,0.269,9.906,0.247,14.837-0.333
		c1.562-0.184,3.104-0.604,4.627-1.02c0.908-0.248,1.381-0.875,1.396-1.937c0.055-3.645,0.221-7.289,0.318-10.934
		c0.174-6.379,0.326-12.76,0.49-19.14c0.152-5.904,0.311-11.808,0.466-17.712c0.163-6.261,0.333-12.522,0.487-18.783
		c0.125-5.112,0.229-10.226,0.354-15.338c0.018-0.705,0.102-1.407,0.154-2.12c2.158,0,4.232,0,6.354,0
		c0.021,0.385,0.057,0.656,0.051,0.925c-0.041,1.981-0.104,3.962-0.136,5.943c-0.085,5.233-0.159,10.465-0.235,15.698
		c-0.084,5.748-0.165,11.496-0.25,17.244c-0.074,5.113-0.152,10.227-0.227,15.341c-0.085,5.748-0.176,11.496-0.248,17.244
		c-0.055,4.361-0.039,8.725-0.158,13.084c-0.034,1.266,0.465,1.95,1.566,2.305c1.241,0.4,2.48,0.838,3.752,1.109
		c5.479,1.168,11.053,1.592,16.631,1.855c3.718,0.175,7.447,0.128,11.171,0.131c3.53,0.003,7.056-0.189,10.535-0.811
		c1.315-0.235,2.604-0.658,3.873-1.088c0.763-0.258,1.159-0.851,1.188-1.732c0.07-2.098,0.235-4.193,0.337-6.29
		c0.247-5.066,0.479-10.134,0.716-15.201c0.24-5.106,0.486-10.213,0.716-15.32c0.202-4.474,0.384-8.949,0.577-13.423
		c0.081-1.861,0.166-3.722,0.257-5.582c0.288-5.858,0.587-11.714,0.867-17.573c0.188-3.919,0.349-7.839,0.527-11.758
		c0.009-0.188,0.069-0.373,0.133-0.703C4968.82,229.474,4970.858,229.538,4973.048,229.606z M5023.494,247.225
		c-0.109,0.045-0.217,0.09-0.326,0.135c-0.052,0.347-0.128,0.692-0.152,1.041c-0.168,2.41-0.324,4.821-0.488,7.232
		c-0.314,4.624-0.632,9.247-0.946,13.87c-0.397,5.848-0.795,11.697-1.191,17.545c-0.319,4.702-0.639,9.405-0.956,14.107
		c-0.33,4.9-0.643,9.802-0.992,14.701c-0.182,2.54-1.262,4.627-3.283,6.215c-1.524,1.197-3.267,1.935-5.105,2.462
		c-3.686,1.059-7.475,1.401-11.284,1.404c-20.019,0.018-40.038,0.008-60.057-0.043c-1.386-0.003-2.415,0.38-3.347,1.37
		c-3.781,4.013-6.092,8.76-7.028,14.159c-0.197,1.135-0.024,2.367,0.161,3.525c0.139,0.866,0.766,1.379,1.736,1.521
		c4.582,0.669,9.156,1.398,13.736,2.098c5.4,0.825,10.803,1.631,16.203,2.463c5.398,0.832,10.794,1.688,16.191,2.532
		c4.381,0.685,8.762,1.363,13.142,2.052c4.106,0.646,8.205,1.339,12.319,1.928c1,0.144,2.069,0.079,3.07-0.096
		c4.619-0.809,8.57-2.995,12.021-6.108c1.547-1.396,2.791-3.037,3.4-5.076c0.566-1.897,1.11-3.801,1.662-5.703
		c3.961-13.653,7.923-27.307,11.883-40.96c2.967-10.231,5.919-20.466,8.916-30.688c0.248-0.847,0.086-1.376-0.505-1.988
		c-6.033-6.241-12.041-12.506-18.05-18.77C5023.953,247.87,5023.736,247.535,5023.494,247.225z"/>
	<path fill-rule="evenodd" clip-rule="evenodd" fill="#FFFFFF" d="M4973.048,229.606c-2.189-0.068-4.228-0.132-6.311-0.197
		c-0.063,0.33-0.124,0.515-0.133,0.703c-0.179,3.919-0.34,7.839-0.527,11.758c-0.28,5.858-0.579,11.715-0.867,17.573
		c-0.091,1.86-0.176,3.721-0.257,5.582c-0.193,4.475-0.375,8.949-0.577,13.423c-0.229,5.107-0.476,10.213-0.716,15.32
		c-0.237,5.067-0.469,10.134-0.716,15.201c-0.102,2.097-0.267,4.192-0.337,6.29c-0.029,0.882-0.426,1.474-1.188,1.732
		c-1.269,0.43-2.558,0.853-3.873,1.088c-3.479,0.622-7.005,0.814-10.535,0.811c-3.724-0.003-7.453,0.044-11.171-0.131
		c-5.578-0.263-11.151-0.687-16.631-1.855c-1.271-0.271-2.511-0.709-3.752-1.109c-1.102-0.355-1.601-1.04-1.566-2.305
		c0.119-4.359,0.104-8.723,0.158-13.084c0.072-5.748,0.163-11.496,0.248-17.244c0.074-5.114,0.152-10.228,0.227-15.341
		c0.085-5.748,0.166-11.496,0.25-17.244c0.076-5.233,0.15-10.465,0.235-15.698c0.032-1.981,0.095-3.962,0.136-5.943
		c0.006-0.27-0.029-0.54-0.051-0.925c-2.121,0-4.195,0-6.354,0c-0.053,0.712-0.137,1.415-0.154,2.12
		c-0.125,5.112-0.229,10.226-0.354,15.338c-0.154,6.261-0.324,12.522-0.487,18.783c-0.155,5.904-0.313,11.808-0.466,17.712
		c-0.164,6.38-0.316,12.761-0.49,19.14c-0.098,3.645-0.264,7.289-0.318,10.934c-0.016,1.062-0.488,1.689-1.396,1.937
		c-1.523,0.416-3.065,0.836-4.627,1.02c-4.931,0.58-9.879,0.602-14.837,0.333c-3.564-0.193-7.123-0.423-10.636-1.045
		c-1.864-0.33-3.69-0.883-5.523-1.374c-0.41-0.11-0.787-0.365-1.16-0.586c-0.518-0.307-0.75-0.77-0.76-1.385
		c-0.016-1.109-0.1-2.217-0.121-3.326c-0.123-6.382-0.228-12.764-0.355-19.146c-0.148-7.372-0.314-14.744-0.475-22.115
		c-0.157-7.332-0.315-14.664-0.474-21.996c-0.079-3.646-0.148-7.292-0.239-10.938c-0.056-2.217-0.145-4.432-0.219-6.639
		c-0.85-0.269-4.851-0.369-6.326-0.151c-0.021,0.324-0.067,0.667-0.062,1.01c0.103,6.581,0.207,13.161,0.32,19.742
		c0.051,2.933,0.128,5.865,0.182,8.798c0.102,5.589,0.193,11.178,0.293,16.768c0.071,4.003,0.15,8.006,0.226,12.01
		c0.075,4.003,0.115,8.007,0.249,12.009c0.037,1.103-0.373,1.775-1.359,2.055c-1.366,0.388-2.746,0.792-4.148,0.984
		c-4.569,0.626-9.164,0.703-13.759,0.313c-2.208-0.187-4.417-0.421-6.601-0.787c-1.234-0.207-2.432-0.685-3.62-1.111
		c-0.86-0.309-1.224-0.966-1.312-1.92c-0.406-4.417-0.895-8.827-1.338-13.24c-0.432-4.296-0.834-8.595-1.268-12.891
		c-0.436-4.334-0.9-8.667-1.338-13.001c-0.357-3.547-0.683-7.098-1.039-10.645c-0.354-3.507-0.736-7.011-1.09-10.519
		c-0.357-3.547-0.69-7.096-1.043-10.644c-0.197-1.971-0.527-3.936-0.59-5.909c-0.067-2.171-0.035-4.364,0.199-6.521
		c0.546-5.005,1.497-9.945,2.803-14.812c0.598-2.227,1.313-4.402,2.672-6.314c0.637-0.894,1.372-1.652,2.41-2.042
		c2.113-0.793,4.231-1.576,6.359-2.332c2.688-0.955,5.396-1.851,8.078-2.826c1.718-0.625,3.426-0.621,5.127-0.063
		c1.203,0.395,2.369,0.901,3.549,1.366c1.885,0.743,3.78,1.375,5.85,1.437c2.207,0.067,4.012-0.731,5.599-2.185
		c1.888-1.729,3.31-3.834,4.793-5.893c1.343-1.864,2.675-3.74,4.108-5.534c0.684-0.857,1.545-1.593,2.408-2.28
		c1.076-0.857,2.328-1.28,3.74-1.322c4.635-0.136,9.27-0.326,13.903-0.5c1.228-0.046,2.454-0.105,3.681-0.168
		c1.223-0.062,2.373,0.211,3.422,0.819c1.026,0.595,2.002,1.277,3.014,1.901c1.379,0.852,2.711,1.815,4.172,2.495
		c2.09,0.971,4.309,1.34,6.581,0.53c1.182-0.421,2.225-1.094,3.044-2.02c1.627-1.838,3.168-3.751,4.764-5.616
		c0.979-1.143,1.945-2.303,3.005-3.369c1.339-1.346,2.948-2.004,4.922-1.948c6.142,0.176,12.287,0.249,18.431,0.37
		c0.871,0.017,1.749,0.168,2.611,0.1c2.168-0.171,3.764,0.847,5.029,2.419c1.264,1.571,2.419,3.234,3.561,4.899
		c1.479,2.156,2.828,4.406,4.371,6.514c0.856,1.169,1.945,2.187,3.024,3.167c0.935,0.848,2.109,1.166,3.399,1.193
		c2.442,0.052,4.711-0.547,6.869-1.625c1.135-0.566,2.244-1.183,3.365-1.777c2.01-1.065,4.09-1.518,6.41-1.241
		c3.893,0.464,7.812,0.695,11.717,1.064c2.799,0.265,5.591,0.594,8.387,0.892c1.35,0.144,2.33,0.885,3.176,1.892
		c1.298,1.547,2.074,3.374,2.787,5.221c2.303,5.969,3.965,12.118,5.018,18.428c0.341,2.042,0.355,4.09,0.15,6.16
		c-0.262,2.64-0.373,5.295-0.557,7.944c-0.295,4.229-0.6,8.457-0.891,12.686c-0.191,2.767-0.358,5.536-0.549,8.303
		c-0.289,4.189-0.592,8.378-0.884,12.567c-0.181,2.609-0.349,5.218-0.529,7.828c-0.298,4.308-0.604,8.615-0.903,12.923
		c-0.176,2.53-0.341,5.061-0.516,7.59c-0.303,4.387-0.615,8.773-0.914,13.161c-0.193,2.846-0.359,5.694-0.553,8.541
		c-0.305,4.466-0.633,8.931-0.924,13.398c-0.057,0.859-0.496,1.386-1.201,1.77c-1.312,0.712-2.752,1.025-4.201,1.23
		c-4.285,0.606-8.595,0.845-12.922,0.599c-2.926-0.166-5.857-0.291-8.773-0.572c-3.589-0.346-7.158-0.86-10.58-2.086
		c-0.148-0.053-0.299-0.105-0.445-0.167c-2.047-0.858-2.334-1.283-2.278-3.469c0.156-6.143,0.319-12.284,0.481-18.426
		c0.152-5.825,0.31-11.65,0.462-17.475c0.165-6.3,0.327-12.6,0.491-18.899c0.156-5.944,0.312-11.888,0.469-17.832
		c0.077-2.932,0.155-5.864,0.23-8.797C4973.057,230.553,4973.048,230.16,4973.048,229.606z"/>
	<path fill-rule="evenodd" clip-rule="evenodd" fill="#FFFFFE" d="M5023.494,247.225c0.242,0.311,0.459,0.646,0.73,0.929
		c6.009,6.264,12.017,12.529,18.05,18.77c0.591,0.612,0.753,1.141,0.505,1.988c-2.997,10.222-5.949,20.457-8.916,30.688
		c-3.96,13.654-7.922,27.307-11.883,40.96c-0.552,1.901-1.096,3.806-1.662,5.703c-0.609,2.039-1.854,3.679-3.4,5.076
		c-3.451,3.113-7.402,5.299-12.021,6.108c-1.001,0.175-2.07,0.24-3.07,0.096c-4.114-0.589-8.213-1.282-12.319-1.928
		c-4.38-0.689-8.761-1.367-13.142-2.052c-5.397-0.844-10.793-1.7-16.191-2.532c-5.4-0.833-10.803-1.639-16.203-2.463
		c-4.58-0.699-9.154-1.428-13.736-2.098c-0.971-0.142-1.598-0.655-1.736-1.521c-0.186-1.158-0.358-2.391-0.161-3.525
		c0.937-5.398,3.247-10.146,7.028-14.159c0.932-0.99,1.961-1.374,3.347-1.37c20.019,0.051,40.038,0.061,60.057,0.043
		c3.81-0.003,7.599-0.346,11.284-1.404c1.839-0.528,3.581-1.266,5.105-2.462c2.021-1.587,3.102-3.675,3.283-6.215
		c0.35-4.899,0.662-9.8,0.992-14.701c0.317-4.703,0.637-9.405,0.956-14.107c0.396-5.849,0.794-11.697,1.191-17.545
		c0.314-4.624,0.632-9.247,0.946-13.87c0.164-2.411,0.32-4.822,0.488-7.232c0.024-0.349,0.101-0.694,0.152-1.041
		C5023.277,247.315,5023.385,247.27,5023.494,247.225z"/>
</g>
</svg>
