<?xml version="1.0" encoding="utf-8"?>
<!-- Generator: Adobe Illustrator 16.0.0, SVG Export Plug-In . SVG Version: 6.00 Build 0)  -->
<!DOCTYPE svg PUBLIC "-//W3C//DTD SVG 1.1//EN" "http://www.w3.org/Graphics/SVG/1.1/DTD/svg11.dtd">
<svg version="1.1" id="Layer_1" xmlns="http://www.w3.org/2000/svg" xmlns:xlink="http://www.w3.org/1999/xlink" x="0px" y="0px"
	 width="7849.891px" height="991.225px" viewBox="44.511 0 7849.891 991.225" enable-background="new 44.511 0 7849.891 991.225"
	 xml:space="preserve">
<g>
	<path display="none" fill="#FFFFFE" d="M0,991.225C0,660.816,0,330.408,0,0c2643.268,0,5286.535,0,7929.805,0
		c0,330.408,0,660.816,0,991.225C5286.535,991.225,2643.268,991.225,0,991.225z M910.3,494.162
		C911.639,258.513,720.696,61.1,478.5,60.408C239.117,59.723,44.351,254.022,44.511,493.037
		c0.163,242.755,197.431,433.049,432.458,433.337C715.614,926.668,910.891,732.136,910.3,494.162z M2224.178,854.936
		c-7.771,0-14.926-0.405-22.011,0.113c-7.336,0.54-14.694,1.571-21.881,3.132c-9.442,2.056-16.9,6.917-20.681,16.514
		c-10.364,26.305,4.85,49.769,33.026,49.846c74.522,0.202,149.044,0.101,223.566-0.023c4.962-0.007,10.471-0.08,14.749-2.145
		c5.892-2.841,12.807-6.472,15.887-11.746c15.784-27.029-1.076-55.741-32.104-55.781c-36.205-0.047-72.407-0.011-108.611-0.011
		c-2.546,0-5.096,0-7.418,0c0-64.477,0-128.111,0-192.697c17.337,19.346,36.688,34.192,58.961,45.211
		c43.146,21.348,88.82,27.165,136.26,22.292c66.152-6.798,119.323-36.821,155.777-92.334
		c43.504-66.245,47.713-139.112,21.012-211.516c-31.357-85.026-94.746-134.404-185.739-145.055
		c-70.751-8.281-132.397,12.08-183.555,62.394c-0.793,0.78-1.771,1.371-3.38,2.597c0-15.623,0.034-30.128-0.011-44.634
		c-0.042-13.966-6.335-21.435-20.458-21.686c-29.587-0.526-59.199-0.565-88.784,0.015c-15.834,0.31-26.756,9.149-30.278,22.181
		c-6.889,25.48,4.516,42.59,30.899,45.651c11.427,1.324,22.967,1.669,34.771,2.482
		C2224.178,517.881,2224.178,685.857,2224.178,854.936z M1644.929,349.726c0,103.778,0,207.473,0,310.271
		c-15.215,1.562-30.05,2.093-44.387,5.041c-6.159,1.267-13.385,6.354-16.518,11.784c-14.532,25.188,1.72,52.506,30.618,52.702
		c18.233,0.119,36.472,0.027,54.707,0.021c28.543-0.012,57.088,0.198,85.628-0.135c20.811-0.242,30.291-7.843,31.939-26.318
		c2.71-30.34-7.34-38.701-30.36-40.782c-11.979-1.078-24.139-0.188-36.623-0.188c-0.153-3.236-0.312-5.021-0.312-6.808
		c-0.012-85.633-0.018-171.261,0.029-256.891c0.002-2.324-0.004-4.953,1.004-6.924c10.214-19.989,23.77-36.905,45.251-45.592
		c33.979-13.741,67.134,0.843,79.17,35.47c3.57,10.271,5.692,21.592,5.755,32.45c0.516,86.418,0.338,172.839,0.49,259.26
		c0.016,8.971,0.472,17.969,1.294,26.902c1.804,19.616,10.56,29.013,28.417,29.358c24.568,0.479,49.16,0.475,73.727-0.004
		c15.601-0.302,26.062-10.784,27.588-26.25c0.391-3.931,0.471-7.922,0.307-11.87c-0.747-18.039-7.637-25.955-25.487-28.229
		c-10.623-1.354-21.381-1.65-32.151-2.43c0-69.748-0.16-139.254,0.155-208.757c0.055-11.808,1.376-23.745,3.479-35.378
		c4.009-22.174,12.198-42.688,29.3-58.278c17.515-15.966,38.204-20.955,60.962-14.359c21.229,6.151,28.91,23.567,31.764,43.159
		c2.77,19.011,5.088,38.271,5.264,57.441c0.701,77.163,0.482,154.338,0.646,231.508c0.015,6.072,0.063,12.171,0.571,18.218
		c1.979,23.562,14.439,35.233,38.045,35.432c20.876,0.175,41.759,0.213,62.632-0.079c18.366-0.257,29.812-11.396,30.804-29.267
		c1.357-24.425-5.498-34.451-26.268-37.187c-10.376-1.363-20.895-1.647-31.612-2.441c0-3.033,0-5.938,0-8.835
		c0-66.336,0.356-132.677-0.187-199.007c-0.2-24.515-1.291-49.16-4.303-73.458c-2.082-16.802-6.615-33.696-12.74-49.513
		c-14.203-36.669-42.057-56.875-81.002-61.888c-38.838-4.998-74.844,1.173-104.92,28.122c-9.48,8.495-17.437,18.694-26.256,28.295
		c-0.975-2.262-2.066-4.896-3.238-7.502c-10.683-23.745-27.938-40.689-53.492-46.594c-43.622-10.081-83.248-1.916-116.694,29.478
		c-2.543,2.386-5.065,4.792-8.183,7.739c-0.542-4.558-0.674-7.749-1.33-10.826c-2.734-12.793-7.62-17.229-20.601-17.335
		c-29.068-0.236-58.146-0.348-87.21,0.064c-16.316,0.232-27.336,8.667-31.041,22.179c-6.979,25.449,4.481,42.741,30.773,45.746
		C1621.805,348.552,1633.381,348.924,1644.929,349.726z M6383.238,345.794c-11.898-10.282-22.933-21.353-35.445-30.354
		c-45.209-32.519-96.5-40.396-150.6-34.819c-74.187,7.646-130.224,44.796-169.225,107.409
		c-32.146,51.603-38.589,108.591-29.993,167.714c9.17,63.073,40.465,113.136,92.037,150.104
		c44.146,31.646,94.188,40.817,147.396,34.863c53.785-6.018,99.398-28.372,135.396-69.302c1.109-1.266,1.729-2.964,2.574-4.462
		c1.896,12.256,1.771,23.025,1.951,33.796c0.087,5.256,0.288,10.581,1.217,15.731c1.682,9.309,5.756,12.939,15.016,12.985
		c33.301,0.164,66.607,0.323,99.908-0.062c17.273-0.198,28.479-12.362,30.271-31.35c1.715-18.222-6.771-30.897-23.868-34.687
		c-6.13-1.356-12.538-1.691-18.843-1.949c-7.851-0.319-15.722-0.076-24.291-0.076c0-3.805,0-6.904,0-10.006
		c0-178.417,0.004-356.836-0.01-535.255c-0.002-16.546-5.438-23.644-20.603-23.834c-38.057-0.477-76.131-0.678-114.18,0.094
		c-19.441,0.394-30.402,12.967-31.479,32.795c-1.059,19.464,6.847,30.157,26.615,33.66c11.361,2.013,23.062,2.372,34.644,2.876
		c10.437,0.456,20.91,0.096,31.508,0.096C6383.238,223.937,6383.238,284.955,6383.238,345.794z M3077.659,448.598
		c-1.607,0.11-2.439,0.372-3.153,0.188c-50.821-13.271-102.413-17.191-154.668-12.532c-34.088,3.039-67.048,10.456-98.107,25.446
		c-90.093,43.479-98.354,137.298-71.349,196.315c25.726,56.223,74.188,80.097,133.412,83.853
		c65.338,4.144,123.681-16.04,175.91-54.826c7.144-5.304,13.967-11.039,21.916-17.352c1.155,8.662,2.34,16.362,3.187,24.104
		c2.648,24.205,15.33,35.81,39.493,35.825c24.845,0.018,49.69,0.139,74.53-0.215c5.682-0.079,11.602-1.188,16.954-3.104
		c13.399-4.796,20.209-17.385,19.147-33.831c-1.062-16.526-7.104-25.221-22.746-27.765c-14.746-2.401-29.889-2.412-44.863-3.316
		c-4.61-0.277-9.252-0.045-14.139-0.045c0-4.08,0-6.965,0-9.85c0-68.984,0.223-137.969-0.158-206.949
		c-0.092-16.575-1.27-33.261-3.508-49.683c-9.168-67.259-56.811-114.449-124.185-123.531c-52.128-7.027-103.841-3.728-154.915,8.185
		c-23.124,5.393-45.566,13.224-64.671,28.186c-11.052,8.649-17.056,19.533-16.072,34.188c1.751,26.113,20.521,40.786,45.459,33.49
		c16.104-4.712,31.826-11.044,47.236-17.756c38.188-16.635,77.217-26.381,119.175-18.359c30.695,5.869,54.505,20.587,66.729,50.604
		C3075.865,408.5,3077.638,428.092,3077.659,448.598z M4399.404,650.718c-0.371,0.001-0.739,0.002-1.107,0.005
		c0,15.857-0.062,31.717,0.053,47.569c0.021,3.147,0.703,6.295,1.104,9.438c3.457,27.269,24.312,39.907,49.694,29.348
		c10.146-4.222,19.354-10.665,29.229-15.611c2.924-1.462,6.865-2.266,10.021-1.674c29.248,5.465,58.285,12.226,87.662,16.812
		c42.321,6.604,84.752,6.508,126.592-4.102c35.051-8.884,65.972-25.145,89.455-53.438c23.236-27.99,30.111-60.746,27.701-96.287
		c-3.164-46.695-24.541-80.934-67.649-100.604c-26.949-12.296-55.601-18.172-84.86-20.409c-31.599-2.413-63.381-2.51-94.931-5.34
		c-21.412-1.921-43.097-4.936-63.688-10.833c-28.24-8.085-39.992-32.791-32.033-61.229c7.17-25.636,26.035-40.172,49.711-47.88
		c43.092-14.031,85.994-10.397,127.521,6.866c28.266,11.754,49.145,33.258,69.012,55.784c5.738,6.512,11.769,12.982,18.592,18.281
		c20.199,15.691,43.595,7.834,47.926-17.33c5.853-33.969,5.096-68.521,0.592-102.574c-2.867-21.706-16.424-31.025-36.73-27.378
		c-9.546,1.713-18.878,6.479-27.423,11.396c-9.211,5.299-17.883,8.246-28.271,4.091c-4.851-1.939-10.185-2.626-15.23-4.109
		c-58.023-17.039-116.475-18.467-175.061-3.688c-31.496,7.944-59.942,22.098-81.291,47.534
		c-50.338,59.977-29.297,153.003,42.513,188.241c33.028,16.204,68.584,22.151,104.888,23.822c26.912,1.241,53.899,0.855,80.83,1.846
		c18.742,0.688,37.31,3.152,54.756,10.822c14.129,6.214,24.082,16.544,27.783,31.506c6.68,26.998,1.711,51.376-21.279,68.875
		c-10.285,7.826-22.234,14.716-34.52,18.442c-46.008,13.963-91.777,9.782-136.752-5.696c-37.217-12.812-66.817-34.396-81.869-72.47
		c-1.711-4.322-4.674-8.279-7.61-11.963c-9.537-11.952-22.164-13.107-35.837-9.398c-12.701,3.444-18.756,12.932-19.271,25.123
		C4398.816,613.218,4399.404,631.981,4399.404,650.718z M7883.301,498.249c-0.67-7.889-0.943-21.71-3.146-35.217
		c-12.619-77.271-55.396-132.942-124.607-167.711c-58.449-29.362-120.979-32.984-184.575-22.524
		c-119.407,19.637-217.601,120.088-193.894,273.562c12.938,83.744,61.979,141.066,139.234,173.837
		c54.507,23.116,111.656,24.92,169.494,15.745C7784.752,720.246,7883.801,641.549,7883.301,498.249z M5817.303,679.754
		c0,7.717-0.006,16.917,0,26.112c0.01,14.795,6.963,23.14,21.693,23.418c29.061,0.547,58.15,0.71,87.201-0.063
		c19.48-0.519,30.493-12.776,31.691-32.592c1.168-19.312-7.582-30.284-27.513-33.898c-5.41-0.983-11-1.176-16.521-1.329
		c-7.554-0.22-15.115-0.06-23.172-0.06c0-3.836,0-6.694,0-9.56c0-106.773,0.016-213.545-0.025-320.318
		c0-7.659-0.055-15.345-0.646-22.974c-1.537-19.813-9.225-28.93-26.332-29.132c-39.104-0.46-78.228-0.358-117.336,0.023
		c-9.957,0.097-19.771,3.171-25.369,12.265c-8.299,13.49-8.791,28.207-2.344,42.442c5.887,12.996,18.25,14.765,30.839,14.812
		c22.388,0.085,44.776,0.021,67.827,0.021c0,3.038,0.002,5.357,0.002,7.677c0,63.694-0.09,127.391,0.031,191.082
		c0.078,42.235-17.943,74.646-52.795,97.864c-32.812,21.864-69.006,25.771-106.967,19.104
		c-35.578-6.251-59.892-26.004-68.406-61.516c-4.262-17.763-6.314-36.439-6.48-54.732c-0.691-76.108-0.26-152.229-0.353-228.342
		c-0.006-6.578-0.54-13.19-1.341-19.727c-1.727-14.114-8.086-20.736-22.068-20.96c-29.326-0.47-58.678-0.574-87.996,0.076
		c-13.11,0.292-24.856,5.723-28.854,19.437c-5.953,20.43-3.477,45.413,29.451,48.433c11.691,1.072,23.434,1.633,35.384,2.443
		c0,3.319,0,6.223,0,9.12c0,68.452-0.456,136.906,0.272,205.352c0.226,21.004,1.985,42.306,6.024,62.889
		c9.271,47.237,34.229,83.567,81.074,100.154c49.209,17.424,99.356,18.165,147.344-3.648
		C5768.021,711.626,5792.117,694.564,5817.303,679.754z M3663.299,308.497c-12.634-5.612-24.051-10.935-35.658-15.8
		c-59.062-24.757-119.965-32.607-182.625-17.245c-128.907,31.604-212.271,160.845-167.332,306.692
		c26.869,87.201,111.414,151.022,202.275,158.727c80.163,6.799,152.703-12.619,217.951-59.086
		c11.229-7.995,21.517-18.156,29.805-29.148c5.662-7.515,9.37-18.062,9.986-27.517c1.693-25.911-21.471-42.567-45.646-32.646
		c-12.707,5.22-24.717,13.15-35.543,21.746c-38.031,30.198-79.479,51.455-128.957,54.367c-42.433,2.497-81.99-5.262-116.229-31.956
		c-37.64-29.349-56.625-68.766-60.041-115.779c-2.47-33.981,2.069-66.896,19.325-97.089
		c40.811-71.398,126.719-90.775,192.041-73.802c41.625,10.817,69.691,38.921,91.252,74.688c4.621,7.667,9.309,15.362,14.724,22.472
		c11.976,15.715,29.435,20.32,48.052,13.479c8.795-3.229,14.645-9.266,17.479-18.083c1.12-3.48,2.122-7.215,2.092-10.822
		c-0.343-41.206-0.598-82.417-1.606-123.609c-0.243-9.929-2.301-20.624-11.744-26.516c-14.122-8.808-29.455-7.401-44.165-1.741
		C3666.487,284.538,3663.26,295.491,3663.299,308.497z M5022.994,374.374c0,3.476,0,6.305,0,9.133
		c0,56.292-0.24,112.584,0.129,168.873c0.133,20.314,0.932,40.694,2.812,60.914c5.592,60.166,41.681,102.172,100.617,117.738
		c46.494,12.282,93.08,10.226,139.443-0.669c35.436-8.325,69.934-19.812,102.588-35.903c10.352-5.098,20.164-12.751,27.896-21.335
		c10.215-11.347,9.75-30.166,1.547-42.133c-8.442-12.316-21.438-17.572-37.648-12.161c-24.915,8.312-49.312,18.199-73.852,27.63
		c-37.902,14.566-76.174,26.128-117.729,21.465c-33.295-3.736-54.49-19.826-62.312-52.238c-4.236-17.563-7.049-35.886-7.336-53.916
		c-0.973-61.03-0.529-122.09-0.615-183.137c-0.002-1.239,0.185-2.478,0.324-4.261c3.34,0,6.193,0,9.045,0
		c63.164-0.028,126.326-0.015,189.488-0.161c4.962-0.011,10.049-0.632,14.859-1.833c14.506-3.624,22.557-14.147,22.946-29.257
		c0.5-19.367-5.513-29.439-21.592-33.918c-7.254-2.021-15.038-2.958-22.586-2.987c-61.312-0.23-122.625-0.13-183.938-0.13
		c-2.797,0-5.597,0-8.566,0c0-32.759,0.479-64.479-0.201-96.176c-0.354-16.28-2.305-32.58-4.473-48.746
		c-1.229-9.175-7.024-16.081-16.164-18.82c-23.812-7.136-53.517-4.043-54.615,34.87c-0.074,2.642-0.07,5.285-0.074,7.928
		c-0.004,37.527-0.002,75.055-0.002,112.583c0,2.567,0,5.135,0,8.36c-3.47,0-6.316-0.05-9.168,0.008
		c-26.396,0.532-52.818,0.54-79.185,1.81c-19.396,0.934-29.06,8.399-31.83,22.775c-0.983,5.111-0.782,10.537-0.515,15.789
		c0.724,14.147,8.188,23.315,22.041,26.077c7.17,1.43,14.658,1.693,22.008,1.751C4971.65,374.497,4996.959,374.374,5022.994,374.374
		z M3928.681,374.302c0,3.986,0,6.881,0,9.776c0.001,56.292-0.237,112.584,0.127,168.874c0.129,20.051,0.884,40.171,2.795,60.121
		c5.666,59.11,39.265,99.655,95.896,116.521c41.897,12.48,84.434,12.227,126.959,4.354c41.588-7.7,81.513-21.146,119.631-39.379
		c9.963-4.77,19.424-11.947,27.002-20.01c10.874-11.562,11.235-30.169,3.151-42.71c-8.426-13.068-21.826-18.528-38.748-12.938
		c-23.442,7.744-46.406,16.979-69.418,25.986c-39.037,15.277-78.395,27.779-121.366,23.039c-33.902-3.74-55.365-20.312-63.02-53.528
		c-4.059-17.616-6.614-35.949-6.892-54.003c-0.918-60.244-0.5-120.506-0.582-180.763c-0.001-1.521,0.146-3.047,0.262-5.271
		c3.218,0,6.056,0,8.896,0c63.162-0.027,126.324,0.021,189.484-0.206c5.954-0.022,12.131-1.071,17.807-2.895
		c14.361-4.608,20.437-14.652,20.271-31.896c-0.146-15.988-6.494-25.929-20.652-29.943c-7.496-2.125-15.545-3.179-23.353-3.211
		c-61.312-0.25-122.624-0.14-183.938-0.14c-2.816,0-5.637,0-8.791,0c0-32.326,0.486-63.757-0.196-95.162
		c-0.361-16.546-2.302-33.108-4.431-49.544c-1.234-9.545-7.298-16.623-16.729-19.257c-24.783-6.924-53.181-3.094-54.116,35.665
		c-0.057,2.376-0.052,4.756-0.052,7.134c-0.003,37.527-0.002,75.056-0.002,112.583c0,2.766,0,5.532,0,8.581
		c-5.031,0-8.973-0.069-12.912,0.011c-25.076,0.521-50.169,0.693-75.219,1.794c-10.249,0.45-21.104,2.229-27.337,11.806
		c-7.947,12.209-7.362,25.667-2.136,38.686c4.658,11.592,15.461,14.191,26.475,15.707c2.602,0.357,5.275,0.207,7.92,0.208
		C3872.907,374.307,3900.344,374.302,3928.681,374.302z M1301.143,348.911c0,104.695,0,208.378,0,312.436
		c-14.226,0-27.946-0.006-41.671,0.001c-37.52,0.021-75.043-0.235-112.559,0.188c-20.14,0.226-32.433,11.202-33.671,28.479
		c-1.633,22.786,7.178,35.316,27.654,38.959c3.604,0.645,7.366,0.552,11.059,0.552c126.037,0.021,252.074,0.021,378.111,0.009
		c3.433,0,6.903,0.12,10.287-0.338c11.729-1.592,23.066-4.826,25.708-18.229c1.696-8.594,1.687-17.781,0.856-26.554
		c-1.113-11.838-8.877-18.816-20.251-21.359c-5.092-1.141-10.433-1.624-15.658-1.637c-48.882-0.118-97.764-0.07-146.646-0.07
		c-2.774,0-5.549,0-8.746,0c0-3.972,0-6.847,0-9.719c0-115.468,0.002-230.937-0.002-346.403
		c-0.001-18.077-7.691-25.925-25.895-26.062c-18.759-0.141-37.521-0.033-56.279-0.033c-30.65,0.001-61.304-0.122-91.951,0.049
		c-21.412,0.12-33.267,10.525-35.354,30.458c-2.119,20.212,8.49,34.356,29.045,38.491c3.076,0.619,6.292,0.746,9.443,0.752
		C1236.588,348.931,1268.55,348.911,1301.143,348.911z M7177.062,659.759c0-4.058,0-6.937,0-9.812
		c0-115.997,0.008-231.993-0.014-347.989c-0.003-15.404-7.486-24.094-22.812-24.202c-51.521-0.362-103.047-0.373-154.569,0.021
		c-16.862,0.13-28.051,9.653-30.981,24.136c-5.496,27.152,8.817,45.085,36.691,45.352c29.591,0.283,59.188,0.117,88.777,0.146
		c2.795,0.002,5.592,0,8.396,0c0,104.682,0,208.355,0,312.352c-3.438,0-6.336,0-9.231,0c-48.088,0.018-96.182-0.167-144.27,0.146
		c-20.616,0.134-33.134,11.062-34.372,28.624c-1.604,22.751,7.265,35.299,27.763,38.873c3.862,0.673,7.896,0.533,11.85,0.535
		c122.869,0.053,245.732,0.077,368.604,0.094c5.812,0,11.646,0.141,17.431-0.301c19.815-1.511,28.31-10.291,29.399-30.087
		c0.129-2.368,0.127-4.758,0.03-7.131c-0.761-18.967-11.25-29.598-30.261-30.646c-2.899-0.16-5.812-0.104-8.722-0.104
		c-48.09-0.005-96.179-0.004-144.271-0.004C7183.639,659.759,7180.773,659.759,7177.062,659.759z M6721.982,588.391
		c-41.104-0.238-74.894,32.867-75.209,73.689c-0.328,42.354,32.053,76.637,72.694,76.964c42.295,0.339,76.146-32.487,76.371-74.057
		C6796.073,622.406,6763.51,588.636,6721.982,588.391z M7187.977,123.755c-1.699-13.606-3.002-27.764-5.354-41.744
		c-1.828-10.816-8.722-18.581-19.67-20.044c-13.451-1.797-27.351-3.654-40.683-2.169c-22.102,2.462-29.166,9.093-31.842,31.322
		c-2.567,21.332-2.699,43.088-2.166,64.614c0.332,13.334,6.535,24.354,21.643,27.322c18.062,3.551,36.079,3.772,54.104-0.101
		c10.602-2.278,17.586-8.398,19.158-19.349C7185.032,150.602,7186.341,137.516,7187.977,123.755z M1386.473,124.973
		c-1.633-13.209-3.001-26.817-5.076-40.318c-1.84-11.969-9.293-19.957-21.116-21.498c-13.191-1.72-26.856-3.228-39.937-1.655
		c-21.822,2.624-28.608,8.958-31.281,30.925c-2.592,21.328-2.979,43.096-2.265,64.602c0.563,16.967,7.552,24.408,22.159,27.64
		c17.688,3.914,35.562,3.709,53.336-0.021c10.932-2.295,18.009-8.695,19.583-19.93
		C1383.697,151.703,1384.923,138.604,1386.473,124.973z"/>
	<path fill="#FD9846" d="M910.3,494.162c0.591,237.975-194.686,432.507-433.331,432.213
		C241.941,926.086,44.673,735.792,44.511,493.037C44.351,254.022,239.117,59.723,478.5,60.408
		C720.696,61.1,911.639,258.513,910.3,494.162z M686.677,689.803c-1.954-0.5-3.907-1.434-5.859-1.436
		c-61.938-0.076-123.874-0.091-185.812,0.05c-2.146,0.007-4.29,1.717-6.434,2.635c-1.125,1.111-2.27,2.204-3.371,3.338
		c-11.998,12.292-19.042,27.086-21.65,43.946c-1.407,9.102,1.172,12.554,10.168,14.051c15.354,2.549,30.748,4.827,46.126,7.206
		c52.655,8.146,105.34,16.093,157.95,24.519c22.163,3.547,52.906-14.385,59.144-35.783c21.745-74.625,43.379-149.284,64.76-224.018
		c0.779-2.731-0.567-7.172-2.529-9.4c-8.011-9.116-16.401-17.938-25.119-26.386c-9.943-9.639-20.386-18.762-29.954-27.507
		c-0.149,2.905-0.341,7.805-0.674,12.689c-4.118,60.573-8.334,121.138-12.343,181.718c-1.112,16.802-6.66,25.151-22.75,30.354
		C701.399,688.016,693.91,688.515,686.677,689.803z M278.344,397.19c0.181,3.354,0.415,6.188,0.474,9.025
		c1.639,78.476,3.342,156.944,4.742,235.424c0.12,6.771,2.459,10.568,8.858,11.742c10.882,1.997,21.79,5.225,32.714,5.339
		c22.085,0.237,44.193-1.134,66.279-2.128c5.483-0.247,7.929-3.396,8.062-9.443c1.68-74.771,3.605-149.536,5.515-224.303
		c0.185-7.268,0.663-14.525,0.98-21.293c6.725,0,12.431,0,18.653,0c0,3.694,0.043,6.812-0.006,9.929
		c-1.252,79.011-2.521,158.02-3.769,237.027c-0.173,10.996,0.409,11.935,11.089,14.447c31.389,7.396,63.304,8.063,95.307,6.898
		c8.68-0.317,17.418-1.131,25.961-2.662c11.188-2.006,11.954-3.357,12.468-14.439c3.426-73.91,6.821-147.822,10.281-221.729
		c0.392-8.36,1.121-16.704,1.665-24.66c6.665,0,12.561,0,18.246,0c0,8.634,0.18,16.552-0.028,24.46
		c-1.904,72.382-3.697,144.768-6.05,217.135c-0.303,9.235,3.484,13.208,11.377,14.746c11.122,2.168,22.3,5.436,33.486,5.576
		c21.812,0.272,43.658-1.095,65.47-2.224c6.308-0.323,9.223-4.241,9.612-11.127c1.5-26.375,3.679-52.713,5.493-79.066
		c4.602-66.688,7.979-133.488,14.161-200.028c3.454-37.193-1.779-71.957-16.242-105.88c-4.308-10.103-10.895-16.041-22.625-16.578
		c-14.757-0.677-29.498-2.333-44.162-4.222c-12.278-1.583-23.166,0.623-34.102,6.768c-20.972,11.787-32.089,8.722-45.525-10.912
		c-6.11-8.931-11.883-18.1-18.129-26.933c-4.867-6.887-11.503-10.104-20.322-10.014c-19.023,0.196-38.064-0.082-57.077-0.774
		c-7.907-0.288-13.938,2.446-18.819,8.113c-5.511,6.399-10.529,13.224-16.047,19.616c-11.487,13.307-23.729,16.532-37.611,6.111
		c-15.248-11.446-31.085-14.35-49-11.549c-2.07,0.323-4.268,0.431-6.329,0.123c-25.528-3.812-41.953,7.52-55.095,29.049
		c-15.686,25.698-24.011,27.274-51.898,16.178c-8.298-3.302-16.123-3.698-24.529-0.364c-10.539,4.18-21.244,8.055-32.116,11.251
		c-10.227,3.005-16.413,9.851-19.124,19.371c-7.75,27.217-13.478,54.506-10.296,83.417c7.739,70.336,14.343,140.8,21.11,211.239
		c0.678,7.062,3.916,10.643,10.236,11.969c23.785,5,47.667,5.279,71.646,1.347c7.464-1.228,10.324-4.646,10.132-12.771
		c-1.53-64.992-2.564-130.002-3.742-195.006c-0.05-2.777-0.006-5.562-0.006-8.198C266.422,397.19,272.104,397.19,278.344,397.19z"/>
	<path fill="#282928" d="M2224.178,854.936c0-169.076,0-337.055,0-505.201c-11.805-0.812-23.345-1.158-34.771-2.482
		c-26.386-3.061-37.788-20.17-30.899-45.651c3.522-13.032,14.444-21.871,30.278-22.181c29.585-0.58,59.197-0.542,88.784-0.015
		c14.124,0.251,20.417,7.72,20.458,21.686c0.045,14.506,0.011,29.011,0.011,44.634c1.609-1.226,2.587-1.814,3.38-2.597
		c51.155-50.314,112.804-70.675,183.555-62.394c90.993,10.651,154.38,60.029,185.739,145.055
		c26.702,72.397,22.492,145.271-21.012,211.516c-36.454,55.512-89.625,85.536-155.777,92.334
		c-47.438,4.873-93.112-0.945-136.26-22.292c-22.272-11.019-41.625-25.866-58.961-45.211c0,64.586,0,128.224,0,192.697
		c2.324,0,4.872,0,7.418,0c36.205,0,72.408-0.036,108.613,0.011c31.023,0.04,47.886,28.752,32.102,55.781
		c-3.08,5.275-9.995,8.905-15.887,11.746c-4.278,2.062-9.787,2.138-14.749,2.145c-74.522,0.124-149.044,0.229-223.566,0.023
		c-28.179-0.077-43.393-23.541-33.028-49.846c3.78-9.597,11.237-14.458,20.683-16.514c7.187-1.561,14.545-2.592,21.881-3.132
		C2209.252,854.528,2216.405,854.936,2224.178,854.936z M2601.889,507.092c0.813-87.425-62.973-152.305-150.751-153.335
		c-89.625-1.051-153.085,60.995-155.054,149.271c-1.939,86.961,57.992,155.892,149.957,156.67
		C2537.523,660.472,2601.038,598.363,2601.889,507.092z"/>
	<path fill="#292929" d="M1644.929,349.726c-11.548-0.801-23.124-1.173-34.594-2.481c-26.292-3.004-37.753-20.296-30.775-45.746
		c3.705-13.511,14.726-21.947,31.041-22.179c29.064-0.412,58.145-0.301,87.21-0.064c12.98,0.106,17.864,4.542,20.603,17.335
		c0.656,3.077,0.788,6.268,1.33,10.826c3.114-2.947,5.64-5.353,8.183-7.739c33.447-31.394,73.073-39.559,116.694-29.478
		c25.557,5.905,42.812,22.85,53.491,46.594c1.172,2.604,2.267,5.24,3.239,7.502c8.819-9.601,16.773-19.8,26.254-28.295
		c30.078-26.949,66.083-33.12,104.919-28.122c38.947,5.012,66.799,25.217,81.004,61.888c6.123,15.813,10.66,32.711,12.74,49.513
		c3.01,24.298,4.104,48.943,4.301,73.458c0.545,66.332,0.188,132.671,0.188,199.007c0,2.897,0,5.802,0,8.835
		c10.72,0.794,21.236,1.078,31.612,2.44c20.769,2.733,27.625,12.763,26.267,37.188c-0.991,17.87-12.437,29.01-30.803,29.267
		c-20.874,0.292-41.756,0.253-62.632,0.079c-23.604-0.195-36.068-11.866-38.045-35.432c-0.508-6.047-0.562-12.146-0.571-18.218
		c-0.163-77.17,0.054-154.345-0.647-231.508c-0.175-19.173-2.493-38.433-5.263-57.441c-2.853-19.592-10.534-37.007-31.763-43.159
		c-22.758-6.596-43.449-1.605-60.962,14.359c-17.104,15.59-25.291,36.104-29.3,58.278c-2.104,11.635-3.429,23.571-3.479,35.378
		c-0.314,69.501-0.157,139.009-0.157,208.757c10.772,0.776,21.53,1.073,32.153,2.43c17.853,2.274,24.74,10.19,25.487,28.229
		c0.162,3.948,0.083,7.939-0.305,11.87c-1.526,15.466-11.99,25.948-27.59,26.25c-24.564,0.479-49.159,0.483-73.727,0.004
		c-17.857-0.349-26.613-9.742-28.417-29.358c-0.822-8.937-1.278-17.935-1.294-26.902c-0.152-86.421,0.023-172.842-0.49-259.26
		c-0.062-10.858-2.186-22.182-5.755-32.45c-12.037-34.626-45.189-49.211-79.17-35.47c-21.481,8.687-35.037,25.603-45.251,45.592
		c-1.008,1.971-1.002,4.601-1.004,6.924c-0.047,85.629-0.041,171.258-0.029,256.888c0,1.786,0.159,3.571,0.312,6.811
		c12.487,0,24.646-0.895,36.625,0.188c23.021,2.081,33.072,10.442,30.361,40.782c-1.65,18.479-11.131,26.076-31.941,26.318
		c-28.538,0.333-57.084,0.123-85.629,0.135c-18.232,0.01-36.471,0.102-54.707-0.021c-28.896-0.195-45.147-27.516-30.616-52.701
		c3.133-5.434,10.356-10.521,16.519-11.784c14.337-2.948,29.172-3.478,44.387-5.041
		C1644.929,557.196,1644.929,453.504,1644.929,349.726z"/>
	<path fill="#292928" d="M6383.238,345.794c0-60.839,0-121.857,0-184.025c-10.601,0-21.071,0.359-31.508-0.096
		c-11.578-0.505-23.279-0.863-34.646-2.876c-19.771-3.502-27.672-14.196-26.615-33.66c1.074-19.828,12.036-32.401,31.479-32.795
		c38.047-0.771,76.123-0.57,114.179-0.094c15.161,0.19,20.601,7.288,20.603,23.834c0.016,178.419,0.01,356.837,0.01,535.255
		c0,3.104,0,6.201,0,10.006c8.569,0,16.44-0.243,24.291,0.076c6.307,0.258,12.713,0.593,18.845,1.949
		c17.099,3.786,25.582,16.465,23.867,34.687c-1.791,18.984-12.994,31.148-30.271,31.35c-33.299,0.385-66.604,0.226-99.908,0.062
		c-9.258-0.046-13.334-3.68-15.015-12.983c-0.931-5.152-1.131-10.479-1.217-15.733c-0.179-10.769-0.054-21.54-1.951-33.796
		c-0.849,1.498-1.463,3.199-2.574,4.462c-35.996,40.93-81.608,63.284-135.396,69.302c-53.213,5.954-103.256-3.217-147.397-34.863
		c-51.571-36.97-82.867-87.029-92.037-150.104c-8.597-59.123-2.151-116.112,29.992-167.714
		c39.002-62.613,95.039-99.763,169.224-107.409c54.101-5.576,105.392,2.303,150.601,34.819
		C6360.309,324.442,6371.34,335.513,6383.238,345.794z M6384.08,506.523c0.016-29.395-5.422-54.994-17.508-77.067
		c-27.919-50.993-71.756-76.636-129.29-78.646c-46.761-1.633-87.96,12.023-119.968,47.927
		c-22.963,25.752-34.607,56.403-37.75,90.329c-3.426,36.984,0.323,72.956,20.672,105.195
		c28.883,45.768,71.422,68.114,124.938,69.996c31.465,1.105,61.614-4.799,88.336-22.272
		C6362.225,610.125,6383.852,563.806,6384.08,506.523z"/>
	<path fill="#292929" d="M3077.659,448.598c-0.021-20.506-1.794-40.097-9.382-58.729c-12.228-30.019-36.035-44.734-66.73-50.604
		c-41.958-8.021-80.987,1.727-119.175,18.359c-15.411,6.712-31.132,13.044-47.236,17.756c-24.938,7.295-43.708-7.377-45.459-33.49
		c-0.981-14.654,5.022-25.54,16.072-34.188c19.104-14.96,41.548-22.792,64.671-28.185c51.076-11.912,102.785-15.211,154.915-8.185
		c67.374,9.083,115.016,56.273,124.185,123.531c2.238,16.422,3.416,33.105,3.506,49.683c0.383,68.981,0.16,137.964,0.16,206.949
		c0,2.885,0,5.77,0,9.85c4.885,0,9.526-0.231,14.137,0.045c14.979,0.904,30.118,0.915,44.865,3.316
		c15.644,2.544,21.682,11.236,22.745,27.765c1.062,16.446-5.748,29.035-19.146,33.831c-5.354,1.914-11.272,3.023-16.954,3.104
		c-24.842,0.354-49.688,0.229-74.53,0.215c-24.163-0.019-36.845-11.62-39.493-35.825c-0.847-7.739-2.029-15.438-3.187-24.104
		c-7.949,6.312-14.773,12.047-21.916,17.351c-52.229,38.786-110.572,58.97-175.91,54.826
		c-59.222-3.756-107.688-27.63-133.412-83.853c-27.006-59.02-18.744-152.836,71.348-196.315
		c31.062-14.991,64.021-22.407,98.108-25.446c52.255-4.66,103.847-0.738,154.668,12.532
		C3075.22,448.969,3076.052,448.708,3077.659,448.598z M3077.759,545.186c0-7.923-0.284-15.859,0.105-23.77
		c0.237-4.852-1.439-6.631-6.146-8.128c-50.786-16.164-102.435-19.278-154.767-10.177c-26.182,4.554-50.961,13.227-72.192,30.002
		c-42.476,33.562-38.1,93.236,8.718,120.401c16.646,9.655,34.823,13.731,53.713,13.97c53.141,0.657,100.482-15.905,141.698-49.521
		c19.449-15.856,31.373-35.428,28.919-61.688C3077.464,552.611,3077.759,548.885,3077.759,545.186z"/>
	<path fill="#292929" d="M4399.404,650.718c0-18.734-0.588-37.5,0.209-56.203c0.518-12.191,6.569-21.679,19.271-25.123
		c13.673-3.709,26.3-2.554,35.837,9.398c2.938,3.684,5.898,7.641,7.609,11.963c15.051,38.07,44.652,59.657,81.869,72.47
		c44.976,15.479,90.744,19.659,136.752,5.696c12.281-3.729,24.232-10.616,34.521-18.442c22.992-17.499,27.959-41.877,21.278-68.875
		c-3.701-14.962-13.651-25.292-27.783-31.506c-17.445-7.67-36.014-10.136-54.756-10.82c-26.93-0.989-53.918-0.604-80.83-1.848
		c-36.303-1.671-71.854-7.617-104.887-23.821c-71.809-35.239-92.85-128.268-42.512-188.242
		c21.348-25.438,49.795-39.589,81.291-47.534c58.586-14.779,117.035-13.35,175.06,3.688c5.049,1.482,10.383,2.169,15.231,4.109
		c10.387,4.155,19.059,1.208,28.27-4.091c8.545-4.917,17.877-9.683,27.423-11.396c20.308-3.647,33.864,5.672,36.731,27.378
		c4.502,34.054,5.26,68.605-0.592,102.574c-4.332,25.164-27.729,33.021-47.926,17.33c-6.824-5.299-12.854-11.771-18.592-18.281
		c-19.867-22.526-40.746-44.029-69.013-55.781c-41.522-17.269-84.431-20.9-127.521-6.869c-23.676,7.708-42.541,22.246-49.711,47.88
		c-7.959,28.438,3.793,53.146,32.033,61.229c20.596,5.897,42.274,8.912,63.688,10.833c31.547,2.83,63.332,2.928,94.93,5.343
		c29.266,2.234,57.914,8.11,84.861,20.406c43.109,19.672,64.486,53.907,67.65,100.604c2.41,35.541-4.465,68.297-27.701,96.287
		c-23.484,28.293-54.403,44.554-89.455,53.438c-41.84,10.606-84.271,10.702-126.592,4.102c-29.377-4.588-58.414-11.35-87.662-16.812
		c-3.158-0.592-7.101,0.212-10.021,1.674c-9.876,4.946-19.08,11.393-29.229,15.611c-25.388,10.562-46.238-2.079-49.695-29.348
		c-0.396-3.146-1.08-6.291-1.104-9.438c-0.115-15.854-0.054-31.712-0.054-47.568C4398.665,650.72,4399.033,650.719,4399.404,650.718
		z"/>
	<path fill="#292929" d="M7883.301,498.249c0.5,143.301-98.549,221.997-197.494,237.69c-57.838,9.175-114.986,7.369-169.494-15.745
		c-77.256-32.771-126.3-90.094-139.234-173.837c-23.707-153.475,74.483-253.923,193.894-273.562
		c63.601-10.46,126.126-6.838,184.575,22.524c69.211,34.769,111.991,90.439,124.607,167.711
		C7882.357,476.538,7882.631,490.359,7883.301,498.249z M7458.688,504.11c-0.019,98.977,69.738,168.212,169.521,168.252
		c99.407,0.04,170.005-69.734,170.036-168.05c0.026-98.718-70.874-169.537-169.785-169.591
		C7529.35,334.672,7458.706,405.157,7458.688,504.11z"/>
	<path fill="#292929" d="M5817.303,679.754c-25.186,14.812-49.278,31.872-75.678,43.872c-47.986,21.813-98.135,21.072-147.344,3.648
		c-46.846-16.587-71.807-52.917-81.074-100.154c-4.039-20.583-5.802-41.885-6.025-62.889c-0.729-68.442-0.271-136.897-0.271-205.352
		c0-2.897,0-5.801,0-9.121c-11.952-0.812-23.688-1.373-35.384-2.442c-32.926-3.021-35.401-28.002-29.451-48.436
		c3.996-13.714,15.742-19.146,28.854-19.437c29.317-0.65,58.67-0.546,87.996-0.076c13.981,0.224,20.342,6.846,22.067,20.96
		c0.801,6.533,1.335,13.146,1.341,19.724c0.093,76.116-0.342,152.233,0.354,228.345c0.166,18.293,2.221,36.973,6.479,54.732
		c8.519,35.509,32.828,55.263,68.405,61.516c37.961,6.671,74.154,2.764,106.967-19.104c34.853-23.219,52.873-55.629,52.795-97.864
		c-0.121-63.691-0.03-127.388-0.03-191.082c0-2.316-0.002-4.639-0.002-7.677c-23.051,0-45.438,0.062-67.827-0.021
		c-12.589-0.051-24.952-1.813-30.839-14.812c-6.446-14.238-5.955-28.952,2.345-42.442c5.597-9.093,15.412-12.168,25.369-12.265
		c39.107-0.381,78.229-0.484,117.336-0.023c17.106,0.202,24.795,9.319,26.332,29.132c0.592,7.628,0.646,15.312,0.646,22.974
		c0.041,106.773,0.024,213.544,0.024,320.318c0,2.859,0,5.724,0,9.56c8.059,0,15.619-0.16,23.172,0.06
		c5.521,0.153,11.109,0.346,16.521,1.326c19.93,3.617,28.68,14.592,27.512,33.901c-1.199,19.812-12.211,32.073-31.69,32.592
		c-29.05,0.773-58.142,0.61-87.201,0.063c-14.729-0.278-21.685-8.623-21.692-23.418
		C5817.297,696.671,5817.303,687.471,5817.303,679.754z"/>
	<path fill="#292929" d="M3663.299,308.497c-0.04-13.006,3.188-23.959,15.43-28.67c14.711-5.66,30.043-7.067,44.166,1.741
		c9.445,5.892,11.5,16.587,11.743,26.516c1.013,41.192,1.27,82.404,1.609,123.609c0.028,3.607-0.972,7.342-2.093,10.822
		c-2.834,8.816-8.684,14.853-17.479,18.083c-18.618,6.844-36.078,2.236-48.052-13.479c-5.415-7.106-10.104-14.805-14.727-22.472
		c-21.558-35.769-49.627-63.87-91.252-74.688c-65.321-16.976-151.229,2.401-192.04,73.802
		c-17.257,30.193-21.795,63.105-19.326,97.089c3.416,47.017,22.4,86.434,60.041,115.779c34.239,26.694,73.802,34.453,116.232,31.956
		c49.475-2.912,90.924-24.169,128.957-54.367c10.826-8.596,22.836-16.526,35.543-21.746c24.173-9.924,47.337,6.732,45.645,32.646
		c-0.614,9.451-4.322,20.002-9.984,27.517c-8.288,10.992-18.576,21.153-29.807,29.148c-65.248,46.467-137.789,65.885-217.949,59.086
		c-90.861-7.701-175.406-71.522-202.276-158.728c-44.938-145.849,38.422-275.089,167.332-306.691
		c62.66-15.362,123.562-7.512,182.625,17.245C3639.249,297.562,3650.665,302.885,3663.299,308.497z"/>
	<path fill="#292929" d="M5022.994,374.374c-26.035,0-51.343,0.124-76.646-0.077c-7.351-0.058-14.838-0.322-22.008-1.751
		c-13.854-2.762-21.316-11.93-22.041-26.077c-0.27-5.252-0.472-10.678,0.516-15.789c2.771-14.376,12.438-21.844,31.83-22.775
		c26.361-1.27,52.785-1.274,79.186-1.81c2.851-0.058,5.699-0.008,9.168-0.008c0-3.226,0-5.793,0-8.36
		c0-37.528-0.002-75.056,0.002-112.583c0.002-2.643,0-5.286,0.074-7.928c1.101-38.914,30.801-42.006,54.615-34.87
		c9.139,2.739,14.937,9.645,16.164,18.82c2.168,16.166,4.117,32.465,4.472,48.746c0.683,31.696,0.201,63.417,0.201,96.176
		c2.974,0,5.771,0,8.567,0c61.312,0,122.629-0.1,183.938,0.13c7.548,0.028,15.332,0.966,22.586,2.987
		c16.081,4.479,22.092,14.552,21.592,33.918c-0.395,15.104-8.439,25.633-22.945,29.257c-4.812,1.201-9.898,1.822-14.86,1.833
		c-63.163,0.146-126.326,0.133-189.489,0.161c-2.851,0-5.705,0-9.045,0c-0.142,1.783-0.326,3.021-0.324,4.261
		c0.084,61.047-0.354,122.104,0.615,183.137c0.287,18.03,3.101,36.353,7.336,53.916c7.819,32.412,29.018,48.505,62.312,52.238
		c41.557,4.663,79.824-6.896,117.729-21.465c24.539-9.431,48.937-19.315,73.852-27.63c16.214-5.411,29.206-0.155,37.648,12.161
		c8.203,11.967,8.668,30.786-1.547,42.133c-7.73,8.584-17.547,16.237-27.896,21.335c-32.657,16.091-67.153,27.578-102.588,35.903
		c-46.365,10.895-92.951,12.951-139.444,0.669c-58.938-15.566-95.023-57.572-100.617-117.738c-1.881-20.22-2.681-40.6-2.812-60.914
		c-0.369-56.289-0.129-112.582-0.129-168.873C5022.994,380.678,5022.994,377.85,5022.994,374.374z"/>
	<path fill="#292929" d="M3928.681,374.302c-28.337,0-55.771,0.005-83.209-0.007c-2.642-0.001-5.319,0.149-7.92-0.208
		c-11.012-1.515-21.812-4.114-26.472-15.707c-5.229-13.019-5.814-26.477,2.133-38.686c6.233-9.578,17.09-11.354,27.337-11.806
		c25.05-1.101,50.146-1.272,75.22-1.794c3.938-0.081,7.879-0.011,12.912-0.011c0-3.049,0-5.815,0-8.581
		c0-37.528,0-75.056,0.002-112.583c0-2.377-0.006-4.757,0.054-7.134c0.936-38.759,29.333-42.589,54.114-35.665
		c9.436,2.635,15.493,9.712,16.729,19.257c2.13,16.437,4.067,32.998,4.429,49.544c0.688,31.405,0.198,62.835,0.198,95.162
		c3.155,0,5.973,0,8.791,0c61.312,0,122.625-0.112,183.937,0.14c7.809,0.032,15.854,1.089,23.354,3.214
		c14.16,4.014,20.506,13.952,20.652,29.94c0.162,17.24-5.91,27.284-20.271,31.896c-5.674,1.818-11.854,2.867-17.807,2.893
		c-63.162,0.229-126.322,0.179-189.485,0.206c-2.838,0-5.679,0-8.896,0c-0.114,2.227-0.263,3.751-0.262,5.274
		c0.082,60.254-0.336,120.516,0.582,180.76c0.274,18.054,2.833,36.387,6.892,54.003c7.651,33.216,29.114,49.788,63.02,53.529
		c42.977,4.739,82.33-7.763,121.367-23.039c23.014-9.007,45.977-18.243,69.418-25.987c16.921-5.59,30.32-0.13,38.748,12.939
		c8.084,12.541,7.725,31.146-3.15,42.71c-7.578,8.062-17.039,15.239-27.002,20.009c-38.119,18.229-78.043,31.679-119.631,39.379
		c-42.524,7.87-85.061,8.127-126.959-4.354c-56.633-16.867-90.229-57.41-95.896-116.521c-1.912-19.95-2.667-40.07-2.795-60.121
		c-0.364-56.289-0.126-112.582-0.127-168.874C3928.681,381.184,3928.681,378.288,3928.681,374.302z"/>
	<path fill="#282828" d="M1301.143,348.911c-32.592,0-64.554,0.02-96.515-0.031c-3.151-0.006-6.368-0.133-9.443-0.752
		c-20.555-4.135-31.163-18.279-29.045-38.491c2.088-19.933,13.94-30.339,35.354-30.458c30.647-0.17,61.301-0.047,91.952-0.049
		c18.76,0,37.521-0.107,56.278,0.033c18.2,0.137,25.894,7.985,25.895,26.062c0.005,115.468,0.002,230.936,0.002,346.403
		c0,2.872,0,5.747,0,9.719c3.198,0,5.972,0,8.746,0c48.882,0,97.765-0.048,146.646,0.07c5.229,0.013,10.566,0.496,15.658,1.637
		c11.374,2.543,19.138,9.521,20.251,21.359c0.827,8.771,0.84,17.96-0.855,26.554c-2.643,13.399-13.98,16.64-25.709,18.229
		c-3.384,0.458-6.854,0.338-10.287,0.338c-126.037,0.016-252.074,0.016-378.111-0.009c-3.689,0-7.453,0.093-11.059-0.552
		c-20.479-3.643-29.289-16.173-27.654-38.959c1.238-17.276,13.531-28.256,33.671-28.479c37.515-0.423,75.039-0.164,112.559-0.188
		c13.724-0.007,27.446,0,41.671,0C1301.143,557.289,1301.143,453.606,1301.143,348.911z"/>
	<path fill="#282828" d="M7177.062,659.759c3.711,0,6.574,0,9.438,0c48.092,0,96.182-0.001,144.271,0.004
		c2.903,0,5.815-0.059,8.719,0.104c19.012,1.05,29.5,11.681,30.262,30.646c0.097,2.373,0.099,4.765-0.033,7.131
		c-1.092,19.796-9.584,28.576-29.397,30.087c-5.783,0.438-11.619,0.301-17.433,0.301c-122.867-0.017-245.729-0.041-368.602-0.094
		c-3.951-0.002-7.984,0.138-11.848-0.535c-20.498-3.574-29.364-16.122-27.765-38.873c1.235-17.562,13.756-28.49,34.372-28.624
		c48.088-0.312,96.182-0.127,144.27-0.146c2.896,0,5.795,0,9.231,0c0-103.993,0-207.669,0-312.352c-2.802,0-5.603,0.002-8.396,0
		c-29.595-0.029-59.188,0.137-88.777-0.146c-27.874-0.266-42.188-18.194-36.689-45.352c2.932-14.483,14.119-24.006,30.979-24.136
		c51.521-0.394,103.051-0.383,154.569-0.021c15.322,0.108,22.812,8.798,22.812,24.202c0.02,115.997,0.014,231.992,0.014,347.989
		C7177.062,652.823,7177.062,655.702,7177.062,659.759z"/>
	<path fill="#292929" d="M6721.982,588.391c41.524,0.245,74.09,34.018,73.856,76.6c-0.228,41.566-34.076,74.396-76.371,74.057
		c-40.646-0.327-73.022-34.607-72.694-76.964C6647.092,621.258,6680.881,588.15,6721.982,588.391z"/>
	<path fill="#292929" d="M7187.977,123.755c-1.635,13.761-2.941,26.846-4.811,39.851c-1.572,10.951-8.561,17.071-19.158,19.349
		c-18.027,3.874-36.041,3.652-54.105,0.101c-15.104-2.969-21.31-13.988-21.641-27.322c-0.534-21.526-0.404-43.283,2.166-64.614
		c2.676-22.229,9.74-28.86,31.842-31.322c13.332-1.485,27.229,0.372,40.68,2.169c10.951,1.463,17.842,9.229,19.67,20.044
		C7184.975,95.991,7186.277,110.149,7187.977,123.755z"/>
	<path fill="#292929" d="M1386.473,124.973c-1.55,13.631-2.772,26.729-4.597,39.745c-1.574,11.235-8.65,17.635-19.583,19.93
		c-17.774,3.731-35.65,3.935-53.336,0.021c-14.605-3.232-21.596-10.673-22.159-27.64c-0.715-21.506-0.327-43.274,2.265-64.602
		c2.673-21.967,9.459-28.301,31.281-30.925c13.078-1.573,26.742-0.065,39.937,1.655c11.821,1.541,19.276,9.528,21.118,21.498
		C1383.471,98.156,1384.84,111.764,1386.473,124.973z"/>
	<path fill="#FFFEFD" d="M278.344,397.19c-6.24,0-11.922,0-18.63,0c0,2.637-0.044,5.419,0.006,8.196
		c1.177,65.003,2.211,130.015,3.742,195.006c0.192,8.125-2.668,11.548-10.132,12.771c-23.979,3.936-47.862,3.653-71.646-1.347
		c-6.32-1.326-9.558-4.905-10.236-11.969c-6.768-70.439-13.371-140.903-21.11-211.239c-3.181-28.912,2.547-56.201,10.296-83.417
		c2.71-9.52,8.897-16.366,19.124-19.371c10.872-3.196,21.577-7.071,32.116-11.251c8.406-3.334,16.23-2.938,24.529,0.364
		c27.887,11.096,36.212,9.52,51.898-16.178c13.142-21.529,29.566-32.861,55.095-29.049c2.061,0.308,4.259,0.2,6.329-0.123
		c17.915-2.801,33.752,0.103,49,11.549c13.885,10.42,26.124,7.195,37.611-6.111c5.52-6.393,10.536-13.217,16.047-19.616
		c4.882-5.667,10.912-8.401,18.819-8.113c19.012,0.692,38.054,0.97,57.077,0.774c8.819-0.091,15.456,3.127,20.322,10.014
		c6.246,8.833,12.019,18.002,18.131,26.933c13.437,19.634,24.554,22.699,45.523,10.912c10.938-6.146,21.821-8.351,34.104-6.768
		c14.665,1.89,29.403,3.545,44.163,4.222c11.729,0.537,18.314,6.476,22.624,16.578c14.462,33.924,19.694,68.688,16.24,105.88
		c-6.182,66.54-9.562,133.339-14.158,200.028c-1.817,26.354-3.994,52.691-5.494,79.066c-0.394,6.886-3.31,10.804-9.614,11.128
		c-21.81,1.127-43.655,2.495-65.469,2.223c-11.188-0.144-22.366-3.408-33.487-5.576c-7.89-1.538-11.679-5.511-11.377-14.746
		c2.353-72.367,4.146-144.753,6.05-217.135c0.208-7.908,0.028-15.826,0.028-24.46c-5.688,0-11.581,0-18.246,0
		c-0.544,7.956-1.273,16.3-1.665,24.66c-3.459,73.906-6.854,147.818-10.281,221.729c-0.514,11.082-1.28,12.437-12.468,14.439
		c-8.543,1.531-17.281,2.345-25.961,2.662c-32.002,1.165-63.918,0.497-95.304-6.898c-10.683-2.516-11.265-3.451-11.092-14.447
		c1.245-79.01,2.517-158.019,3.769-237.027c0.05-3.115,0.006-6.232,0.006-9.928c-6.226,0-11.931,0-18.653,0
		c-0.317,6.768-0.798,14.024-0.98,21.293c-1.907,74.766-3.835,149.53-5.515,224.302c-0.136,6.051-2.575,9.196-8.062,9.443
		c-22.086,0.994-44.194,2.365-66.279,2.128c-10.924-0.114-21.832-3.342-32.714-5.339c-6.399-1.174-8.738-4.973-8.858-11.741
		c-1.399-78.479-3.103-156.95-4.742-235.425C278.758,403.379,278.524,400.544,278.344,397.19z"/>
	<path fill="#FFFDFC" d="M686.677,689.803c7.233-1.288,14.725-1.787,21.647-4.024c16.09-5.199,21.639-13.552,22.75-30.354
		c4.009-60.58,8.225-121.146,12.343-181.718c0.333-4.887,0.522-9.784,0.674-12.689c9.567,8.745,20.009,17.868,29.954,27.504
		c8.718,8.447,17.108,17.271,25.119,26.389c1.962,2.229,3.311,6.669,2.529,9.399c-21.381,74.731-43.015,149.394-64.761,224.019
		c-6.233,21.397-36.979,39.33-59.143,35.783c-52.609-8.426-105.295-16.37-157.95-24.519c-15.379-2.379-30.772-4.657-46.126-7.206
		c-8.996-1.497-11.575-4.947-10.168-14.051c2.608-16.86,9.652-31.654,21.65-43.946c1.104-1.134,2.246-2.227,3.368-3.338
		c1.314-0.124,2.629-0.354,3.941-0.354c49.941-0.042,99.882-0.002,149.824-0.122C657.116,690.541,671.896,690.073,686.677,689.803z"
		/>
	<path display="none" fill="#DC8436" d="M686.677,689.803c-14.782,0.271-29.561,0.737-44.341,0.772
		c-49.941,0.12-99.883,0.08-149.824,0.122c-1.312,0-2.627,0.229-3.939,0.354c2.145-0.918,4.288-2.628,6.435-2.635
		c61.938-0.141,123.874-0.126,185.812-0.05C682.77,688.37,684.723,689.303,686.677,689.803z"/>
	<path display="none" fill="#FEFEFE" d="M2601.889,507.092c-0.851,91.271-64.365,153.38-155.849,152.604
		c-91.965-0.778-151.896-69.709-149.957-156.67c1.969-88.273,65.429-150.319,155.054-149.271
		C2538.916,354.788,2602.702,419.667,2601.889,507.092z"/>
	<path display="none" fill="#FEFEFE" d="M6384.08,506.523c-0.229,57.28-21.855,103.602-70.57,135.458
		c-26.721,17.477-56.869,23.381-88.334,22.272c-53.518-1.882-96.057-24.229-124.938-69.996
		c-20.35-32.236-24.1-68.211-20.672-105.195c3.145-33.926,14.787-64.577,37.75-90.329c32.008-35.9,73.207-49.56,119.968-47.927
		c57.534,2.012,101.371,27.652,129.29,78.646C6378.658,451.529,6384.096,477.131,6384.08,506.523z"/>
	<path display="none" fill="#FDFDFD" d="M3077.759,545.186c0,3.699-0.295,7.428,0.048,11.094
		c2.455,26.263-9.47,45.831-28.918,61.688c-41.217,33.612-88.562,50.178-141.696,49.521c-18.892-0.235-37.068-4.312-53.713-13.97
		c-46.818-27.164-51.194-86.841-8.72-120.401c21.23-16.775,46.014-25.448,72.191-30.002c52.333-9.104,103.98-5.987,154.768,10.177
		c4.707,1.497,6.386,3.276,6.146,8.128C3077.475,529.324,3077.759,537.263,3077.759,545.186z"/>
	<path display="none" fill="#FEFEFE" d="M7458.688,504.11c0.021-98.953,70.662-169.438,169.771-169.389
		c98.911,0.054,169.812,70.873,169.785,169.59c-0.029,98.313-70.629,168.091-170.036,168.051
		C7528.426,672.322,7458.669,603.086,7458.688,504.11z"/>
</g>
</svg>
