<?xml version="1.0" encoding="utf-8"?>
<!-- Generator: Adobe Illustrator 16.0.0, SVG Export Plug-In . SVG Version: 6.00 Build 0)  -->
<!DOCTYPE svg PUBLIC "-//W3C//DTD SVG 1.1//EN" "http://www.w3.org/Graphics/SVG/1.1/DTD/svg11.dtd">
<svg version="1.1" id="Layer_1" xmlns="http://www.w3.org/2000/svg" xmlns:xlink="http://www.w3.org/1999/xlink" x="0px" y="0px"
	 width="7929.805px" height="991.225px" viewBox="0 0 7929.805 991.225" enable-background="new 0 0 7929.805 991.225"
	 xml:space="preserve">
<g>
	<path display="none" fill="#FFFFFE" d="M0,991.225C0,660.816,0,330.408,0,0c2643.268,0,5286.535,0,7929.805,0
		c0,330.408,0,660.816,0,991.225C5286.535,991.225,2643.268,991.225,0,991.225z M910.3,494.162
		C911.639,258.513,720.696,61.1,478.5,60.408C239.117,59.723,44.351,254.022,44.511,493.037
		c0.163,242.755,197.431,433.049,432.458,433.337C715.614,926.668,910.891,732.136,910.3,494.162z M2224.178,854.936
		c-7.773,0-14.926-0.408-22.011,0.113c-7.336,0.54-14.694,1.571-21.881,3.132c-9.442,2.053-16.9,6.917-20.681,16.511
		c-10.364,26.305,4.85,49.769,33.029,49.846c74.522,0.202,149.044,0.101,223.566-0.023c4.962-0.007,10.471-0.08,14.749-2.145
		c5.892-2.841,12.807-6.471,15.887-11.746c15.784-27.029-1.076-55.741-32.102-55.781c-36.205-0.047-72.409-0.011-108.613-0.011
		c-2.546,0-5.094,0-7.418,0c0-64.476,0-128.111,0-192.697c17.337,19.345,36.689,34.192,58.961,45.211
		c43.148,21.345,88.822,27.165,136.26,22.292c66.152-6.798,119.323-36.824,155.777-92.334
		c43.504-66.245,47.713-139.115,21.012-211.516c-31.359-85.026-94.746-134.404-185.739-145.055
		c-70.751-8.281-132.4,12.08-183.555,62.394c-0.793,0.78-1.771,1.371-3.38,2.597c0-15.623,0.034-30.128-0.011-44.634
		c-0.042-13.966-6.335-21.435-20.458-21.686c-29.587-0.526-59.199-0.565-88.784,0.015c-15.834,0.31-26.756,9.149-30.278,22.181
		c-6.889,25.48,4.513,42.59,30.899,45.651c11.427,1.324,22.967,1.669,34.771,2.482
		C2224.178,517.881,2224.178,685.857,2224.178,854.936z M1644.929,349.726c0,103.778,0,207.47,0,310.268
		c-15.215,1.565-30.05,2.093-44.387,5.041c-6.159,1.267-13.385,6.354-16.518,11.784c-14.532,25.188,1.72,52.506,30.618,52.702
		c18.236,0.122,36.472,0.03,54.707,0.021c28.543-0.012,57.088,0.198,85.628-0.135c20.811-0.242,30.291-7.843,31.942-26.318
		c2.71-30.34-7.34-38.701-30.362-40.782c-11.979-1.081-24.137-0.189-36.624-0.189c-0.153-3.236-0.312-5.021-0.312-6.808
		c-0.012-85.63-0.018-171.258,0.029-256.888c0.002-2.324-0.004-4.953,1.004-6.924c10.214-19.989,23.77-36.905,45.251-45.592
		c33.98-13.741,67.134,0.843,79.17,35.47c3.57,10.27,5.692,21.592,5.755,32.45c0.516,86.418,0.338,172.839,0.49,259.26
		c0.016,8.971,0.472,17.969,1.294,26.902c1.804,19.616,10.56,29.013,28.417,29.361c24.568,0.479,49.16,0.472,73.727-0.004
		c15.598-0.302,26.061-10.784,27.588-26.25c0.388-3.931,0.468-7.922,0.304-11.87c-0.747-18.039-7.635-25.955-25.487-28.232
		c-10.623-1.354-21.381-1.65-32.153-2.429c0-69.749-0.16-139.254,0.157-208.755c0.053-11.808,1.376-23.747,3.479-35.378
		c4.009-22.174,12.199-42.691,29.3-58.281c17.513-15.964,38.204-20.955,60.962-14.359c21.228,6.151,28.91,23.567,31.763,43.159
		c2.768,19.011,5.088,38.271,5.262,57.444c0.702,77.163,0.485,154.336,0.648,231.505c0.013,6.075,0.064,12.171,0.571,18.218
		c1.977,23.565,14.441,35.235,38.045,35.432c20.876,0.174,41.759,0.213,62.632-0.079c18.366-0.257,29.81-11.396,30.803-29.267
		c1.358-24.425-5.499-34.451-26.267-37.185c-10.376-1.365-20.893-1.649-31.612-2.443c0-3.033,0-5.935,0-8.835
		c0-66.336,0.357-132.676-0.187-199.007c-0.2-24.512-1.291-49.16-4.301-73.458c-2.081-16.799-6.617-33.696-12.741-49.51
		c-14.204-36.671-42.056-56.876-81.003-61.888c-38.836-4.998-74.841,1.173-104.919,28.122c-9.481,8.495-17.435,18.694-26.254,28.295
		c-0.975-2.262-2.069-4.898-3.24-7.502c-10.681-23.745-27.936-40.689-53.493-46.594c-43.622-10.081-83.248-1.916-116.694,29.478
		c-2.543,2.386-5.067,4.792-8.183,7.739c-0.542-4.558-0.673-7.749-1.33-10.826c-2.736-12.793-7.62-17.229-20.6-17.335
		c-29.069-0.236-58.146-0.348-87.21,0.064c-16.317,0.232-27.336,8.667-31.041,22.179c-6.979,25.449,4.483,42.741,30.775,45.746
		C1621.805,348.552,1633.381,348.924,1644.929,349.726z M6383.238,345.794c-11.898-10.282-22.93-21.353-35.445-30.356
		c-45.209-32.516-96.5-40.395-150.599-34.819c-74.185,7.646-130.222,44.796-169.223,107.409
		c-32.145,51.603-38.589,108.591-29.993,167.714c9.17,63.073,40.465,113.136,92.037,150.105
		c44.144,31.646,94.186,40.817,147.398,34.863c53.785-6.018,99.398-28.372,135.395-69.302c1.111-1.263,1.727-2.964,2.574-4.462
		c1.898,12.256,1.773,23.028,1.951,33.796c0.087,5.256,0.288,10.581,1.217,15.734c1.681,9.306,5.756,12.939,15.014,12.985
		c33.302,0.164,66.609,0.323,99.908-0.062c17.275-0.198,28.479-12.362,30.27-31.347c1.715-18.222-6.771-30.9-23.868-34.687
		c-6.13-1.356-12.538-1.691-18.843-1.949c-7.85-0.319-15.721-0.076-24.291-0.076c0-3.805,0-6.904,0-10.006
		c0-178.417,0.004-356.836-0.01-535.255c-0.002-16.546-5.44-23.644-20.602-23.834c-38.055-0.477-76.131-0.678-114.178,0.094
		c-19.442,0.394-30.404,12.967-31.479,32.795c-1.057,19.464,6.846,30.157,26.615,33.66c11.363,2.013,23.064,2.372,34.643,2.876
		c10.437,0.456,20.91,0.096,31.508,0.096C6383.238,223.937,6383.238,284.955,6383.238,345.794z M3077.659,448.598
		c-1.607,0.11-2.439,0.372-3.153,0.185c-50.821-13.27-102.413-17.191-154.668-12.532c-34.088,3.039-67.048,10.456-98.108,25.446
		c-90.092,43.482-98.354,137.298-71.348,196.318c25.724,56.22,74.189,80.094,133.412,83.85
		c65.338,4.144,123.681-16.04,175.91-54.826c7.143-5.304,13.967-11.039,21.916-17.351c1.155,8.664,2.34,16.364,3.187,24.104
		c2.648,24.205,15.33,35.81,39.493,35.825c24.844,0.018,49.691,0.139,74.53-0.215c5.682-0.079,11.602-1.188,16.954-3.103
		c13.401-4.796,20.209-17.385,19.149-33.831c-1.063-16.528-7.104-25.221-22.745-27.765c-14.747-2.401-29.889-2.412-44.866-3.316
		c-4.61-0.279-9.251-0.045-14.136-0.045c0-4.08,0-6.965,0-9.85c0-68.984,0.221-137.968-0.16-206.949
		c-0.091-16.575-1.268-33.261-3.506-49.683c-9.169-67.257-56.811-114.449-124.185-123.531
		c-52.128-7.027-103.839-3.728-154.915,8.185c-23.124,5.393-45.566,13.224-64.671,28.185c-11.05,8.652-17.054,19.534-16.072,34.191
		c1.751,26.113,20.52,40.786,45.459,33.49c16.104-4.712,31.826-11.044,47.236-17.756c38.188-16.635,77.217-26.381,119.175-18.359
		c30.695,5.869,54.505,20.587,66.73,50.603C3075.865,408.5,3077.638,428.092,3077.659,448.598z M4399.404,650.718
		c-0.371,0.001-0.739,0.002-1.107,0.005c0,15.857-0.062,31.714,0.053,47.569c0.021,3.147,0.703,6.295,1.102,9.438
		c3.457,27.269,24.311,39.91,49.696,29.348c10.147-4.222,19.352-10.665,29.228-15.611c2.924-1.462,6.865-2.266,10.022-1.674
		c29.249,5.465,58.286,12.226,87.663,16.812c42.321,6.604,84.752,6.508,126.592-4.099c35.05-8.884,65.969-25.145,89.455-53.438
		c23.236-27.99,30.111-60.746,27.701-96.287c-3.165-46.695-24.541-80.931-67.652-100.602
		c-26.949-12.296-55.599-18.172-84.863-20.409c-31.596-2.415-63.381-2.51-94.928-5.34c-21.412-1.921-43.094-4.936-63.688-10.833
		c-28.241-8.085-39.992-32.791-32.033-61.232c7.17-25.635,26.035-40.172,49.71-47.88c43.093-14.031,85.995-10.397,127.521,6.869
		c28.264,11.752,49.143,33.255,69.011,55.784c5.739,6.51,11.767,12.982,18.591,18.281c20.199,15.691,43.594,7.834,47.926-17.33
		c5.852-33.969,5.095-68.521,0.593-102.574c-2.868-21.706-16.425-31.025-36.732-27.378c-9.546,1.713-18.878,6.479-27.423,11.396
		c-9.211,5.299-17.883,8.246-28.269,4.091c-4.85-1.939-10.184-2.626-15.232-4.109c-58.024-17.039-116.474-18.467-175.059-3.688
		c-31.496,7.944-59.944,22.098-81.291,47.534c-50.339,59.977-29.298,153.003,42.511,188.242
		c33.029,16.206,68.584,22.153,104.886,23.824c26.913,1.241,53.901,0.855,80.831,1.845c18.742,0.688,37.308,3.153,54.755,10.823
		c14.13,6.214,24.083,16.544,27.784,31.506c6.678,26.998,1.711,51.376-21.281,68.875c-10.285,7.826-22.236,14.713-34.519,18.442
		c-46.008,13.963-91.778,9.782-136.751-5.696c-37.217-12.812-66.819-34.399-81.869-72.47c-1.711-4.322-4.674-8.279-7.612-11.963
		c-9.537-11.952-22.164-13.107-35.837-9.398c-12.701,3.444-18.756,12.929-19.273,25.123
		C4398.817,613.218,4399.404,631.981,4399.404,650.718z M7883.301,498.249c-0.67-7.889-0.943-21.71-3.147-35.217
		c-12.618-77.271-55.398-132.942-124.609-167.711c-58.449-29.362-120.978-32.984-184.575-22.524
		c-119.407,19.637-217.598,120.088-193.891,273.56c12.935,83.746,61.979,141.069,139.234,173.837
		c54.507,23.117,111.656,24.92,169.494,15.745C7784.752,720.246,7883.801,641.549,7883.301,498.249z M5817.303,679.754
		c0,7.717-0.006,16.917,0,26.112c0.01,14.795,6.963,23.14,21.693,23.418c29.061,0.547,58.151,0.71,87.201-0.063
		c19.48-0.519,30.493-12.779,31.692-32.592c1.167-19.312-7.583-30.284-27.511-33.901c-5.41-0.983-11-1.173-16.52-1.329
		c-7.553-0.217-15.116-0.057-23.172-0.057c0-3.836,0-6.697,0-9.56c0-106.773,0.014-213.545-0.027-320.318
		c0-7.659-0.053-15.345-0.645-22.974c-1.537-19.813-9.225-28.93-26.332-29.132c-39.107-0.46-78.228-0.358-117.337,0.023
		c-9.956,0.097-19.773,3.171-25.368,12.265c-8.299,13.49-8.791,28.204-2.344,42.442c5.887,12.996,18.25,14.762,30.839,14.81
		c22.388,0.085,44.776,0.023,67.827,0.023c0,3.038,0.002,5.357,0.002,7.677c0,63.694-0.09,127.388,0.031,191.082
		c0.079,42.235-17.943,74.646-52.795,97.864c-32.811,21.864-69.006,25.771-106.967,19.101
		c-35.578-6.251-59.889-26.004-68.406-61.513c-4.262-17.763-6.315-36.442-6.481-54.735c-0.693-76.108-0.259-152.226-0.352-228.342
		c-0.006-6.578-0.54-13.19-1.341-19.724c-1.727-14.114-8.086-20.736-22.068-20.96c-29.326-0.47-58.678-0.574-87.997,0.076
		c-13.112,0.292-24.858,5.723-28.854,19.437c-5.953,20.43-3.475,45.413,29.451,48.433c11.693,1.072,23.432,1.633,35.384,2.445
		c0,3.32,0,6.221,0,9.121c0,68.452-0.456,136.906,0.274,205.349c0.224,21.004,1.986,42.306,6.025,62.889
		c9.269,47.237,34.229,83.567,81.074,100.154c49.209,17.424,99.357,18.165,147.344-3.648
		C5768.021,711.626,5792.117,694.564,5817.303,679.754z M3663.299,308.497c-12.634-5.612-24.051-10.935-35.659-15.8
		c-59.064-24.757-119.964-32.607-182.625-17.245c-128.909,31.604-212.271,160.845-167.332,306.692
		c26.87,87.204,111.415,151.025,202.276,158.727c80.163,6.799,152.703-12.619,217.951-59.086
		c11.229-7.995,21.517-18.156,29.805-29.148c5.662-7.515,9.37-18.065,9.986-27.517c1.693-25.911-21.471-42.567-45.644-32.644
		c-12.707,5.217-24.717,13.15-35.543,21.746c-38.033,30.198-79.482,51.455-128.957,54.367
		c-42.433,2.497-81.993-5.262-116.232-31.956c-37.64-29.349-56.625-68.766-60.041-115.779c-2.469-33.984,2.069-66.896,19.326-97.089
		c40.81-71.401,126.718-90.778,192.04-73.802c41.625,10.817,69.694,38.921,91.252,74.687c4.622,7.667,9.309,15.365,14.724,22.472
		c11.975,15.715,29.434,20.32,48.052,13.479c8.795-3.232,14.642-9.266,17.477-18.083c1.12-3.483,2.122-7.215,2.092-10.825
		c-0.343-41.206-0.598-82.417-1.609-123.609c-0.243-9.929-2.298-20.624-11.744-26.516c-14.122-8.808-29.455-7.401-44.165-1.741
		C3666.487,284.538,3663.26,295.491,3663.299,308.497z M5022.994,374.374c0,3.476,0,6.305,0,9.133
		c0,56.292-0.24,112.584,0.129,168.873c0.133,20.314,0.932,40.694,2.812,60.914c5.593,60.166,41.681,102.172,100.618,117.738
		c46.494,12.282,93.08,10.226,139.445-0.669c35.434-8.325,69.931-19.812,102.588-35.903c10.35-5.098,20.164-12.751,27.896-21.335
		c10.216-11.347,9.751-30.166,1.548-42.133c-8.444-12.316-21.437-17.572-37.65-12.161c-24.915,8.314-49.312,18.199-73.85,27.63
		c-37.904,14.566-76.175,26.128-117.729,21.465c-33.295-3.736-54.49-19.826-62.311-52.238c-4.237-17.566-7.049-35.886-7.336-53.916
		c-0.971-61.033-0.53-122.09-0.615-183.137c-0.002-1.239,0.184-2.478,0.324-4.261c3.34,0,6.195,0,9.046,0
		c63.163-0.028,126.326-0.015,189.489-0.161c4.962-0.011,10.049-0.632,14.861-1.833c14.506-3.624,22.555-14.15,22.947-29.257
		c0.5-19.367-5.511-29.439-21.592-33.918c-7.254-2.021-15.038-2.958-22.586-2.987c-61.311-0.23-122.625-0.13-183.939-0.13
		c-2.798,0-5.596,0-8.568,0c0-32.759,0.48-64.479-0.201-96.176c-0.354-16.28-2.303-32.58-4.471-48.746
		c-1.229-9.175-7.026-16.081-16.164-18.82c-23.814-7.136-53.516-4.043-54.615,34.87c-0.074,2.642-0.072,5.285-0.074,7.928
		c-0.004,37.527-0.002,75.055-0.002,112.583c0,2.567,0,5.135,0,8.36c-3.469,0-6.318-0.05-9.169,0.008
		c-26.397,0.532-52.819,0.54-79.183,1.807c-19.396,0.934-29.059,8.402-31.83,22.778c-0.984,5.111-0.782,10.537-0.514,15.789
		c0.723,14.147,8.188,23.315,22.041,26.077c7.171,1.43,14.658,1.693,22.009,1.751
		C4971.651,374.497,4996.959,374.374,5022.994,374.374z M3928.681,374.302c0,3.986,0,6.881,0,9.776
		c0.001,56.292-0.237,112.584,0.127,168.874c0.129,20.051,0.884,40.171,2.795,60.121c5.666,59.113,39.265,99.655,95.896,116.524
		c41.9,12.48,84.434,12.224,126.959,4.354c41.588-7.7,81.512-21.146,119.631-39.379c9.963-4.767,19.424-11.947,27.002-20.007
		c10.874-11.565,11.236-30.169,3.152-42.71c-8.426-13.071-21.827-18.531-38.748-12.941c-23.443,7.744-46.407,16.982-69.418,25.987
		c-39.037,15.279-78.393,27.781-121.367,23.04c-33.902-3.742-55.365-20.314-63.017-53.53c-4.059-17.616-6.617-35.949-6.892-54.003
		c-0.918-60.244-0.5-120.506-0.582-180.76c-0.001-1.522,0.147-3.047,0.262-5.274c3.218,0,6.056,0,8.894,0
		c63.163-0.027,126.325,0.021,189.487-0.206c5.954-0.022,12.131-1.071,17.805-2.893c14.363-4.61,20.436-14.654,20.273-31.895
		c-0.148-15.988-6.494-25.929-20.654-29.943c-7.496-2.125-15.545-3.179-23.351-3.211c-61.312-0.252-122.624-0.14-183.937-0.14
		c-2.818,0-5.636,0-8.791,0c0-32.326,0.487-63.757-0.198-95.162c-0.361-16.546-2.299-33.108-4.429-49.544
		c-1.236-9.545-7.297-16.623-16.73-19.257c-24.783-6.924-53.181-3.094-54.116,35.665c-0.057,2.376-0.052,4.756-0.052,7.134
		c-0.003,37.527-0.002,75.056-0.002,112.583c0,2.766,0,5.532,0,8.581c-5.031,0-8.973-0.069-12.912,0.011
		c-25.076,0.519-50.169,0.693-75.219,1.794c-10.249,0.45-21.104,2.226-27.337,11.803c-7.947,12.209-7.362,25.667-2.133,38.686
		c4.658,11.592,15.46,14.191,26.472,15.707c2.601,0.357,5.278,0.207,7.92,0.208C3872.907,374.307,3900.344,374.302,3928.681,374.302
		z M1301.143,348.911c0,104.695,0,208.378,0,312.436c-14.226,0-27.949-0.006-41.671,0.001c-37.52,0.021-75.043-0.238-112.559,0.185
		c-20.14,0.226-32.433,11.202-33.671,28.481c-1.633,22.786,7.178,35.316,27.655,38.959c3.605,0.642,7.368,0.549,11.058,0.549
		c126.037,0.024,252.074,0.024,378.112,0.009c3.432,0,6.905,0.12,10.289-0.338c11.726-1.589,23.066-4.826,25.708-18.226
		c1.696-8.594,1.684-17.781,0.856-26.554c-1.113-11.838-8.877-18.816-20.251-21.359c-5.092-1.141-10.43-1.624-15.658-1.637
		c-48.882-0.118-97.764-0.07-146.646-0.07c-2.774,0-5.547,0-8.746,0c0-3.972,0-6.847,0-9.719c0-115.468,0.002-230.936-0.002-346.403
		c-0.001-18.077-7.691-25.925-25.892-26.062c-18.759-0.141-37.521-0.033-56.281-0.033c-30.651,0.001-61.302-0.122-91.952,0.049
		c-21.412,0.12-33.264,10.525-35.352,30.458c-2.119,20.212,8.49,34.356,29.045,38.491c3.076,0.619,6.292,0.746,9.443,0.752
		C1236.588,348.931,1268.55,348.911,1301.143,348.911z M7177.063,659.759c0-4.058,0-6.937,0-9.815
		c0-115.997,0.007-231.993-0.012-347.989c-0.003-15.404-7.489-24.094-22.812-24.202c-51.521-0.362-103.048-0.373-154.571,0.021
		c-16.863,0.13-28.051,9.653-30.982,24.136c-5.497,27.154,8.818,45.085,36.692,45.352c29.591,0.283,59.186,0.117,88.779,0.146
		c2.794,0.002,5.592,0,8.394,0c0,104.682,0,208.358,0,312.352c-3.439,0-6.336,0-9.233,0c-48.088,0.016-96.18-0.167-144.268,0.143
		c-20.616,0.134-33.134,11.062-34.372,28.624c-1.603,22.751,7.264,35.299,27.762,38.873c3.863,0.673,7.896,0.536,11.848,0.537
		c122.869,0.051,245.734,0.078,368.602,0.092c5.811,0,11.646,0.141,17.43-0.299c19.816-1.51,28.309-10.291,29.4-30.086
		c0.129-2.369,0.127-4.758,0.032-7.131c-0.761-18.967-11.25-29.598-30.261-30.647c-2.9-0.16-5.812-0.102-8.719-0.102
		c-48.09-0.005-96.178-0.004-144.27-0.004C7183.638,659.759,7180.773,659.759,7177.063,659.759z M6721.982,588.391
		c-41.102-0.241-74.891,32.867-75.208,73.689c-0.329,42.354,32.052,76.637,72.696,76.964c42.295,0.339,76.146-32.487,76.371-74.057
		C6796.073,622.406,6763.51,588.636,6721.982,588.391z M7187.976,123.755c-1.698-13.606-3.001-27.764-5.356-41.744
		c-1.828-10.816-8.72-18.581-19.67-20.044c-13.451-1.797-27.348-3.654-40.68-2.169c-22.102,2.462-29.166,9.093-31.842,31.322
		c-2.57,21.332-2.7,43.088-2.166,64.614c0.331,13.334,6.535,24.354,21.64,27.322c18.065,3.551,36.079,3.772,54.106-0.101
		c10.599-2.278,17.586-8.398,19.158-19.349C7185.032,150.602,7186.341,137.516,7187.976,123.755z M1386.473,124.973
		c-1.633-13.209-3.001-26.817-5.077-40.318c-1.839-11.969-9.293-19.957-21.118-21.498c-13.191-1.72-26.856-3.228-39.934-1.655
		c-21.822,2.624-28.611,8.958-31.281,30.925c-2.592,21.328-2.98,43.096-2.265,64.602c0.563,16.967,7.552,24.408,22.159,27.64
		c17.687,3.914,35.562,3.709,53.336-0.021c10.932-2.295,18.009-8.695,19.583-19.93
		C1383.697,151.703,1384.923,138.604,1386.473,124.973z"/>
	<path fill-rule="evenodd" clip-rule="evenodd" fill="#E09350" d="M910.3,494.162c0.591,237.975-194.686,432.507-433.331,432.213
		C241.941,926.086,44.673,735.792,44.511,493.037C44.351,254.022,239.117,59.723,478.5,60.408
		C720.696,61.1,911.639,258.513,910.3,494.162z M686.677,689.803c-1.954-0.5-3.907-1.434-5.862-1.436
		c-61.937-0.076-123.874-0.091-185.811,0.05c-2.147,0.007-4.29,1.717-6.434,2.635c-1.125,1.111-2.267,2.204-3.371,3.338
		c-11.998,12.292-19.042,27.086-21.65,43.946c-1.407,9.102,1.172,12.554,10.168,14.051c15.351,2.549,30.748,4.827,46.126,7.206
		c52.655,8.146,105.34,16.093,157.95,24.516c22.163,3.547,52.906-14.383,59.143-35.783c21.746-74.625,43.377-149.284,64.758-224.016
		c0.782-2.733-0.567-7.171-2.529-9.402c-8.011-9.116-16.401-17.938-25.119-26.386c-9.944-9.636-20.386-18.759-29.954-27.504
		c-0.152,2.905-0.341,7.802-0.674,12.689c-4.118,60.573-8.334,121.138-12.343,181.718c-1.112,16.802-6.66,25.151-22.75,30.351
		C701.399,688.016,693.91,688.515,686.677,689.803z M278.344,397.19c0.181,3.354,0.415,6.189,0.474,9.028
		c1.639,78.473,3.342,156.944,4.742,235.424c0.12,6.77,2.459,10.568,8.858,11.742c10.882,1.997,21.79,5.222,32.714,5.339
		c22.085,0.237,44.193-1.134,66.279-2.128c5.486-0.247,7.929-3.396,8.064-9.446c1.677-74.77,3.605-149.536,5.512-224.3
		c0.185-7.268,0.663-14.528,0.983-21.293c6.722,0,12.428,0,18.653,0c0,3.694,0.043,6.811-0.006,9.926
		c-1.252,79.011-2.521,158.02-3.766,237.03c-0.173,10.996,0.409,11.932,11.089,14.447c31.386,7.396,63.301,8.063,95.304,6.898
		c8.68-0.317,17.418-1.13,25.961-2.662c11.188-2.006,11.954-3.357,12.468-14.439c3.426-73.91,6.821-147.823,10.281-221.731
		c0.392-8.36,1.121-16.704,1.665-24.66c6.665,0,12.561,0,18.246,0c0,8.634,0.18,16.552-0.028,24.46
		c-1.904,72.382-3.697,144.768-6.05,217.135c-0.301,9.235,3.487,13.208,11.377,14.746c11.122,2.168,22.3,5.436,33.487,5.576
		c21.813,0.275,43.66-1.095,65.469-2.221c6.308-0.326,9.223-4.244,9.614-11.127c1.5-26.375,3.677-52.713,5.494-79.069
		c4.599-66.688,7.979-133.488,14.161-200.028c3.454-37.193-1.78-71.957-16.243-105.88c-4.307-10.103-10.894-16.041-22.624-16.578
		c-14.757-0.677-29.499-2.333-44.163-4.222c-12.28-1.583-23.167,0.623-34.101,6.768c-20.972,11.787-32.089,8.722-45.526-10.912
		c-6.112-8.931-11.882-18.1-18.128-26.933c-4.869-6.887-11.503-10.104-20.325-10.014c-19.023,0.196-38.064-0.082-57.077-0.774
		c-7.907-0.288-13.937,2.446-18.819,8.113c-5.511,6.399-10.529,13.224-16.047,19.616c-11.487,13.307-23.729,16.532-37.611,6.111
		c-15.248-11.446-31.086-14.35-49-11.549c-2.07,0.323-4.268,0.431-6.329,0.123c-25.528-3.812-41.953,7.52-55.095,29.049
		c-15.686,25.698-24.011,27.274-51.898,16.178c-8.298-3.302-16.123-3.698-24.529-0.364c-10.539,4.18-21.244,8.055-32.116,11.251
		c-10.227,3.005-16.413,9.851-19.124,19.371c-7.75,27.217-13.478,54.506-10.296,83.417c7.739,70.336,14.343,140.8,21.11,211.242
		c0.678,7.061,3.916,10.64,10.236,11.966c23.785,5,47.667,5.282,71.646,1.347c7.464-1.225,10.324-4.646,10.132-12.77
		c-1.53-64.994-2.564-130.002-3.742-195.006c-0.05-2.78-0.006-5.562-0.006-8.199C266.422,397.19,272.104,397.19,278.344,397.19z"/>
	<path fill-rule="evenodd" clip-rule="evenodd" fill="#282928" d="M2224.178,854.936c0-169.079,0-337.055,0-505.204
		c-11.805-0.812-23.345-1.158-34.771-2.482c-26.386-3.061-37.788-20.17-30.899-45.651c3.522-13.032,14.444-21.871,30.278-22.181
		c29.585-0.58,59.197-0.542,88.784-0.015c14.124,0.251,20.417,7.72,20.458,21.686c0.045,14.506,0.011,29.011,0.011,44.634
		c1.609-1.226,2.587-1.817,3.38-2.597c51.155-50.314,112.804-70.675,183.555-62.394c90.993,10.651,154.38,60.029,185.739,145.055
		c26.702,72.4,22.492,145.271-21.012,211.516c-36.454,55.51-89.625,85.536-155.777,92.334c-47.438,4.873-93.112-0.947-136.26-22.292
		c-22.272-11.019-41.625-25.866-58.961-45.211c0,64.586,0,128.222,0,192.697c2.324,0,4.872,0,7.418,0
		c36.205,0,72.409-0.036,108.613,0.011c31.026,0.04,47.886,28.752,32.102,55.781c-3.08,5.275-9.995,8.905-15.887,11.746
		c-4.278,2.064-9.787,2.138-14.749,2.145c-74.522,0.124-149.044,0.226-223.566,0.023c-28.179-0.077-43.393-23.541-33.029-49.846
		c3.781-9.594,11.238-14.458,20.681-16.511c7.187-1.561,14.545-2.592,21.881-3.132
		C2209.252,854.528,2216.405,854.936,2224.178,854.936z M2601.889,507.092c0.813-87.425-62.973-152.305-150.751-153.335
		c-89.625-1.051-153.085,60.995-155.054,149.269c-1.94,86.961,57.992,155.892,149.957,156.67
		C2537.523,660.472,2601.038,598.363,2601.889,507.092z"/>
	<path fill-rule="evenodd" clip-rule="evenodd" fill="#292929" d="M1644.929,349.726c-11.548-0.801-23.124-1.173-34.594-2.484
		c-26.292-3.004-37.753-20.296-30.775-45.746c3.705-13.511,14.723-21.947,31.041-22.179c29.064-0.412,58.142-0.301,87.21-0.064
		c12.98,0.106,17.864,4.542,20.6,17.335c0.657,3.077,0.788,6.268,1.33,10.826c3.116-2.947,5.64-5.353,8.183-7.739
		c33.447-31.394,73.073-39.559,116.694-29.478c25.557,5.905,42.812,22.85,53.493,46.594c1.17,2.604,2.265,5.24,3.24,7.502
		c8.819-9.601,16.773-19.8,26.254-28.295c30.078-26.949,66.083-33.12,104.919-28.122c38.947,5.012,66.799,25.217,81.003,61.888
		c6.124,15.813,10.661,32.711,12.741,49.51c3.01,24.298,4.101,48.946,4.301,73.458c0.544,66.332,0.187,132.671,0.187,199.007
		c0,2.9,0,5.802,0,8.835c10.72,0.794,21.236,1.078,31.612,2.443c20.769,2.733,27.625,12.76,26.267,37.185
		c-0.993,17.87-12.437,29.01-30.803,29.267c-20.874,0.292-41.756,0.253-62.632,0.079c-23.604-0.196-36.068-11.866-38.045-35.432
		c-0.507-6.047-0.559-12.143-0.571-18.218c-0.163-77.169,0.054-154.342-0.648-231.505c-0.174-19.173-2.495-38.433-5.262-57.444
		c-2.853-19.592-10.535-37.007-31.763-43.159c-22.758-6.596-43.449-1.605-60.962,14.359c-17.102,15.59-25.291,36.107-29.3,58.281
		c-2.103,11.632-3.426,23.571-3.479,35.378c-0.317,69.501-0.157,139.006-0.157,208.755c10.772,0.778,21.53,1.075,32.153,2.429
		c17.852,2.277,24.74,10.193,25.487,28.232c0.164,3.948,0.083,7.939-0.304,11.87c-1.527,15.466-11.99,25.948-27.588,26.25
		c-24.567,0.476-49.159,0.483-73.727,0.004c-17.857-0.349-26.613-9.745-28.417-29.361c-0.822-8.934-1.278-17.932-1.294-26.902
		c-0.152-86.421,0.025-172.842-0.49-259.26c-0.063-10.858-2.186-22.18-5.755-32.45c-12.037-34.626-45.19-49.211-79.17-35.47
		c-21.481,8.687-35.037,25.603-45.251,45.592c-1.008,1.971-1.002,4.601-1.004,6.924c-0.047,85.629-0.041,171.258-0.029,256.888
		c0,1.786,0.159,3.571,0.312,6.808c12.487,0,24.645-0.892,36.624,0.189c23.022,2.081,33.073,10.442,30.362,40.782
		c-1.651,18.476-11.131,26.076-31.942,26.318c-28.54,0.333-57.085,0.123-85.628,0.135c-18.235,0.01-36.471,0.102-54.707-0.021
		c-28.898-0.196-45.15-27.514-30.618-52.702c3.132-5.431,10.358-10.518,16.518-11.784c14.337-2.948,29.172-3.476,44.387-5.041
		C1644.929,557.196,1644.929,453.504,1644.929,349.726z"/>
	<path fill-rule="evenodd" clip-rule="evenodd" fill="#292928" d="M6383.238,345.794c0-60.839,0-121.857,0-184.025
		c-10.598,0-21.071,0.359-31.508-0.096c-11.578-0.505-23.279-0.863-34.643-2.876c-19.77-3.502-27.672-14.196-26.615-33.66
		c1.074-19.828,12.036-32.401,31.479-32.795c38.047-0.771,76.123-0.57,114.178-0.094c15.161,0.19,20.6,7.288,20.602,23.834
		c0.014,178.419,0.01,356.837,0.01,535.255c0,3.102,0,6.201,0,10.006c8.57,0,16.441-0.243,24.291,0.076
		c6.305,0.258,12.713,0.593,18.843,1.949c17.097,3.786,25.583,16.465,23.868,34.687c-1.791,18.984-12.994,31.148-30.27,31.347
		c-33.299,0.385-66.606,0.226-99.908,0.062c-9.258-0.046-13.333-3.68-15.014-12.985c-0.929-5.153-1.13-10.479-1.217-15.734
		c-0.178-10.768-0.053-21.54-1.951-33.796c-0.848,1.498-1.463,3.199-2.574,4.462c-35.996,40.93-81.609,63.284-135.395,69.302
		c-53.213,5.954-103.255-3.217-147.398-34.863c-51.572-36.97-82.867-87.032-92.037-150.105
		c-8.596-59.123-2.151-116.112,29.993-167.714c39.001-62.613,95.038-99.763,169.223-107.409
		c54.099-5.576,105.39,2.303,150.599,34.819C6360.309,324.442,6371.34,335.513,6383.238,345.794z M6384.08,506.523
		c0.016-29.392-5.422-54.994-17.508-77.067c-27.919-50.993-71.756-76.636-129.29-78.646c-46.761-1.633-87.96,12.023-119.968,47.924
		c-22.963,25.752-34.607,56.406-37.75,90.329c-3.426,36.987,0.323,72.958,20.672,105.198
		c28.883,45.765,71.422,68.114,124.938,69.996c31.465,1.105,61.614-4.799,88.335-22.275
		C6362.225,610.125,6383.852,563.806,6384.08,506.523z"/>
	<path fill-rule="evenodd" clip-rule="evenodd" fill="#292929" d="M3077.659,448.598c-0.021-20.506-1.794-40.097-9.382-58.729
		c-12.225-30.016-36.035-44.734-66.73-50.603c-41.958-8.022-80.987,1.724-119.175,18.359c-15.411,6.712-31.132,13.044-47.236,17.756
		c-24.939,7.295-43.708-7.377-45.459-33.49c-0.981-14.657,5.022-25.54,16.072-34.191c19.105-14.96,41.548-22.792,64.671-28.185
		c51.076-11.912,102.786-15.211,154.915-8.185c67.374,9.083,115.016,56.274,124.185,123.531c2.238,16.422,3.416,33.108,3.506,49.683
		c0.38,68.981,0.16,137.964,0.16,206.949c0,2.885,0,5.77,0,9.85c4.885,0,9.526-0.234,14.136,0.045
		c14.977,0.904,30.119,0.915,44.866,3.316c15.641,2.544,21.682,11.236,22.745,27.765c1.06,16.446-5.748,29.035-19.149,33.831
		c-5.353,1.914-11.272,3.023-16.954,3.103c-24.839,0.354-49.686,0.232-74.53,0.215c-24.163-0.016-36.845-11.62-39.493-35.825
		c-0.847-7.739-2.031-15.439-3.187-24.104c-7.949,6.312-14.773,12.047-21.916,17.351c-52.229,38.786-110.572,58.97-175.91,54.826
		c-59.222-3.756-107.688-27.63-133.412-83.85c-27.006-59.02-18.744-152.836,71.348-196.318c31.06-14.991,64.02-22.407,98.108-25.446
		c52.255-4.66,103.847-0.738,154.668,12.532C3075.22,448.969,3076.052,448.708,3077.659,448.598z M3077.759,545.186
		c0-7.923-0.284-15.862,0.105-23.77c0.238-4.852-1.439-6.631-6.146-8.128c-50.786-16.164-102.435-19.278-154.767-10.177
		c-26.181,4.554-50.961,13.227-72.192,30.002c-42.476,33.563-38.1,93.239,8.718,120.404c16.645,9.655,34.823,13.731,53.713,13.967
		c53.138,0.66,100.482-15.905,141.698-49.518c19.449-15.859,31.373-35.428,28.919-61.69
		C3077.464,552.611,3077.759,548.885,3077.759,545.186z"/>
	<path fill-rule="evenodd" clip-rule="evenodd" fill="#292929" d="M4399.404,650.718c0-18.737-0.587-37.5,0.209-56.203
		c0.518-12.194,6.572-21.679,19.273-25.123c13.673-3.709,26.3-2.554,35.837,9.398c2.938,3.684,5.901,7.641,7.612,11.963
		c15.05,38.07,44.652,59.657,81.869,72.47c44.973,15.479,90.743,19.659,136.751,5.696c12.282-3.729,24.233-10.616,34.519-18.442
		c22.992-17.499,27.959-41.877,21.281-68.875c-3.701-14.962-13.654-25.292-27.784-31.506c-17.447-7.67-36.013-10.136-54.755-10.823
		c-26.93-0.989-53.918-0.604-80.831-1.845c-36.302-1.671-71.856-7.618-104.886-23.824c-71.809-35.239-92.85-128.265-42.511-188.242
		c21.347-25.436,49.795-39.589,81.291-47.534c58.585-14.779,117.034-13.35,175.059,3.688c5.049,1.482,10.383,2.169,15.232,4.109
		c10.386,4.155,19.058,1.208,28.269-4.091c8.545-4.917,17.877-9.683,27.423-11.396c20.308-3.647,33.864,5.672,36.732,27.378
		c4.502,34.054,5.259,68.605-0.593,102.574c-4.332,25.164-27.727,33.021-47.926,17.33c-6.824-5.299-12.852-11.771-18.591-18.281
		c-19.868-22.529-40.747-44.032-69.011-55.784c-41.525-17.266-84.428-20.9-127.521-6.869c-23.675,7.708-42.54,22.246-49.71,47.88
		c-7.959,28.441,3.792,53.146,32.033,61.232c20.594,5.897,42.275,8.912,63.688,10.833c31.547,2.83,63.332,2.925,94.928,5.34
		c29.265,2.237,57.914,8.113,84.863,20.409c43.111,19.671,64.487,53.907,67.652,100.602c2.41,35.541-4.465,68.297-27.701,96.287
		c-23.486,28.293-54.405,44.554-89.455,53.438c-41.84,10.606-84.271,10.702-126.592,4.099
		c-29.377-4.586-58.414-11.347-87.663-16.812c-3.157-0.592-7.099,0.212-10.022,1.674c-9.876,4.946-19.08,11.39-29.228,15.611
		c-25.386,10.562-46.239-2.079-49.696-29.348c-0.398-3.144-1.08-6.291-1.102-9.438c-0.115-15.855-0.053-31.712-0.053-47.569
		C4398.665,650.72,4399.033,650.719,4399.404,650.718z"/>
	<path fill-rule="evenodd" clip-rule="evenodd" fill="#292929" d="M7883.301,498.249c0.5,143.301-98.549,221.997-197.494,237.69
		c-57.838,9.175-114.987,7.372-169.494-15.745c-77.256-32.768-126.3-90.091-139.234-173.837
		c-23.707-153.472,74.483-253.923,193.891-273.56c63.598-10.46,126.126-6.838,184.575,22.524
		c69.211,34.769,111.991,90.439,124.609,167.711C7882.357,476.538,7882.631,490.359,7883.301,498.249z M7458.688,504.11
		c-0.019,98.977,69.738,168.212,169.519,168.252c99.407,0.04,170.005-69.734,170.036-168.049
		c0.029-98.716-70.874-169.538-169.785-169.589C7529.35,334.672,7458.706,405.157,7458.688,504.11z"/>
	<path fill-rule="evenodd" clip-rule="evenodd" fill="#292929" d="M5817.303,679.754c-25.186,14.81-49.281,31.872-75.678,43.872
		c-47.986,21.813-98.135,21.072-147.344,3.648c-46.846-16.587-71.806-52.917-81.074-100.154
		c-4.039-20.583-5.802-41.885-6.025-62.889c-0.73-68.442-0.274-136.897-0.274-205.349c0-2.9,0-5.801,0-9.121
		c-11.952-0.812-23.69-1.373-35.384-2.445c-32.926-3.02-35.404-28.002-29.451-48.433c3.996-13.714,15.742-19.146,28.854-19.437
		c29.319-0.65,58.671-0.546,87.997-0.076c13.982,0.224,20.342,6.846,22.068,20.96c0.801,6.533,1.335,13.146,1.341,19.724
		c0.093,76.116-0.342,152.233,0.352,228.342c0.166,18.293,2.22,36.973,6.481,54.735c8.518,35.509,32.828,55.262,68.406,61.513
		c37.961,6.671,74.156,2.764,106.967-19.101c34.852-23.219,52.874-55.629,52.795-97.864c-0.121-63.694-0.031-127.388-0.031-191.082
		c0-2.319-0.002-4.639-0.002-7.677c-23.051,0-45.439,0.062-67.827-0.023c-12.589-0.048-24.952-1.813-30.839-14.81
		c-6.447-14.238-5.955-28.952,2.344-42.442c5.595-9.093,15.412-12.168,25.368-12.265c39.109-0.381,78.229-0.484,117.337-0.023
		c17.107,0.202,24.795,9.319,26.332,29.132c0.592,7.628,0.645,15.315,0.645,22.974c0.041,106.773,0.027,213.544,0.027,320.318
		c0,2.862,0,5.724,0,9.56c8.056,0,15.619-0.16,23.172,0.057c5.52,0.156,11.109,0.346,16.52,1.329
		c19.928,3.617,28.678,14.589,27.511,33.901c-1.199,19.812-12.212,32.073-31.692,32.592c-29.05,0.773-58.141,0.61-87.201,0.063
		c-14.73-0.278-21.684-8.623-21.693-23.418C5817.297,696.671,5817.303,687.471,5817.303,679.754z"/>
	<path fill-rule="evenodd" clip-rule="evenodd" fill="#292929" d="M3663.299,308.497c-0.04-13.006,3.188-23.959,15.43-28.67
		c14.71-5.66,30.043-7.067,44.165,1.741c9.446,5.892,11.501,16.587,11.744,26.516c1.012,41.192,1.267,82.404,1.609,123.609
		c0.029,3.61-0.972,7.342-2.092,10.825c-2.834,8.816-8.682,14.85-17.477,18.083c-18.618,6.841-36.078,2.236-48.052-13.479
		c-5.415-7.106-10.102-14.805-14.724-22.472c-21.558-35.766-49.627-63.87-91.252-74.687c-65.322-16.976-151.23,2.401-192.04,73.802
		c-17.257,30.193-21.795,63.105-19.326,97.089c3.415,47.014,22.4,86.431,60.041,115.779c34.239,26.694,73.799,34.453,116.232,31.956
		c49.475-2.912,90.924-24.169,128.957-54.367c10.826-8.596,22.836-16.529,35.543-21.746c24.173-9.924,47.337,6.732,45.644,32.644
		c-0.616,9.451-4.324,20.002-9.986,27.517c-8.288,10.992-18.576,21.153-29.805,29.148c-65.248,46.467-137.788,65.885-217.951,59.086
		c-90.861-7.701-175.406-71.522-202.276-158.727c-44.94-145.847,38.422-275.087,167.332-306.692
		c62.66-15.362,123.56-7.512,182.625,17.245C3639.249,297.562,3650.665,302.885,3663.299,308.497z"/>
	<path fill-rule="evenodd" clip-rule="evenodd" fill="#292929" d="M5022.994,374.374c-26.035,0-51.343,0.124-76.646-0.077
		c-7.351-0.058-14.838-0.322-22.009-1.751c-13.854-2.762-21.318-11.93-22.041-26.077c-0.269-5.252-0.471-10.678,0.514-15.789
		c2.771-14.376,12.435-21.844,31.83-22.778c26.363-1.267,52.785-1.274,79.183-1.807c2.851-0.058,5.7-0.008,9.169-0.008
		c0-3.226,0-5.793,0-8.36c0-37.528-0.002-75.056,0.002-112.583c0.002-2.643,0-5.286,0.074-7.928
		c1.1-38.914,30.801-42.006,54.615-34.87c9.138,2.739,14.936,9.645,16.164,18.82c2.168,16.166,4.117,32.465,4.471,48.746
		c0.682,31.696,0.201,63.417,0.201,96.176c2.973,0,5.771,0,8.568,0c61.314,0,122.629-0.1,183.939,0.13
		c7.548,0.028,15.332,0.966,22.586,2.987c16.081,4.479,22.092,14.552,21.592,33.918c-0.393,15.106-8.441,25.633-22.947,29.257
		c-4.812,1.201-9.899,1.822-14.861,1.833c-63.163,0.146-126.326,0.133-189.489,0.161c-2.851,0-5.706,0-9.046,0
		c-0.141,1.783-0.326,3.021-0.324,4.261c0.085,61.047-0.355,122.104,0.615,183.137c0.287,18.03,3.099,36.35,7.336,53.916
		c7.82,32.412,29.016,48.502,62.311,52.238c41.554,4.663,79.824-6.898,117.729-21.465c24.538-9.431,48.935-19.315,73.85-27.63
		c16.214-5.411,29.206-0.155,37.65,12.161c8.203,11.967,8.668,30.786-1.548,42.133c-7.731,8.584-17.546,16.237-27.896,21.335
		c-32.657,16.091-67.154,27.578-102.588,35.903c-46.365,10.895-92.951,12.951-139.445,0.669
		c-58.938-15.566-95.025-57.572-100.618-117.738c-1.88-20.22-2.679-40.6-2.812-60.914c-0.369-56.289-0.129-112.582-0.129-168.873
		C5022.994,380.678,5022.994,377.85,5022.994,374.374z"/>
	<path fill-rule="evenodd" clip-rule="evenodd" fill="#292929" d="M3928.681,374.302c-28.337,0-55.774,0.005-83.209-0.007
		c-2.642-0.001-5.319,0.149-7.92-0.208c-11.012-1.515-21.813-4.114-26.472-15.707c-5.229-13.019-5.814-26.477,2.133-38.686
		c6.233-9.578,17.089-11.354,27.337-11.803c25.05-1.101,50.143-1.275,75.219-1.794c3.938-0.081,7.88-0.011,12.912-0.011
		c0-3.049,0-5.815,0-8.581c0-37.528,0-75.056,0.002-112.583c0-2.377-0.005-4.757,0.052-7.134
		c0.936-38.759,29.333-42.589,54.116-35.665c9.434,2.635,15.494,9.712,16.73,19.257c2.13,16.437,4.067,32.998,4.429,49.544
		c0.686,31.405,0.198,62.835,0.198,95.162c3.155,0,5.973,0,8.791,0c61.312,0,122.625-0.112,183.937,0.14
		c7.806,0.032,15.854,1.086,23.351,3.211c14.16,4.014,20.506,13.955,20.654,29.943c0.162,17.24-5.91,27.284-20.273,31.895
		c-5.674,1.821-11.851,2.87-17.805,2.893c-63.162,0.228-126.324,0.179-189.487,0.206c-2.838,0-5.676,0-8.894,0
		c-0.114,2.227-0.263,3.751-0.262,5.274c0.082,60.254-0.336,120.516,0.582,180.76c0.274,18.054,2.833,36.387,6.892,54.003
		c7.651,33.216,29.114,49.788,63.017,53.53c42.975,4.741,82.33-7.761,121.367-23.04c23.011-9.005,45.975-18.243,69.418-25.987
		c16.921-5.59,30.322-0.13,38.748,12.941c8.084,12.541,7.722,31.145-3.152,42.71c-7.578,8.06-17.039,15.24-27.002,20.007
		c-38.119,18.232-78.043,31.679-119.631,39.379c-42.525,7.87-85.059,8.127-126.959-4.354
		c-56.631-16.869-90.23-57.411-95.896-116.524c-1.912-19.95-2.667-40.07-2.795-60.121c-0.364-56.289-0.126-112.582-0.127-168.874
		C3928.681,381.184,3928.681,378.288,3928.681,374.302z"/>
	<path fill-rule="evenodd" clip-rule="evenodd" fill="#282828" d="M1301.143,348.911c-32.592,0-64.554,0.02-96.515-0.031
		c-3.151-0.006-6.368-0.133-9.443-0.752c-20.555-4.135-31.164-18.279-29.045-38.491c2.088-19.933,13.94-30.339,35.352-30.458
		c30.65-0.17,61.301-0.047,91.952-0.049c18.76,0,37.521-0.107,56.281,0.033c18.2,0.137,25.891,7.985,25.892,26.062
		c0.005,115.468,0.002,230.936,0.002,346.403c0,2.872,0,5.747,0,9.719c3.199,0,5.972,0,8.746,0c48.882,0,97.765-0.048,146.646,0.07
		c5.228,0.013,10.566,0.496,15.658,1.637c11.374,2.543,19.138,9.521,20.251,21.359c0.827,8.772,0.84,17.96-0.856,26.554
		c-2.642,13.399-13.982,16.637-25.708,18.226c-3.384,0.458-6.857,0.338-10.289,0.338c-126.038,0.016-252.075,0.016-378.112-0.009
		c-3.69,0-7.453,0.093-11.058-0.549c-20.478-3.643-29.289-16.173-27.655-38.959c1.239-17.279,13.532-28.256,33.671-28.481
		c37.515-0.423,75.039-0.164,112.559-0.185c13.722-0.007,27.446-0.001,41.671-0.001
		C1301.143,557.289,1301.143,453.606,1301.143,348.911z"/>
	<path fill-rule="evenodd" clip-rule="evenodd" fill="#282828" d="M7177.063,659.759c3.71,0,6.574,0,9.438,0
		c48.092,0,96.18-0.001,144.27,0.004c2.906,0,5.818-0.059,8.719,0.102c19.011,1.05,29.5,11.681,30.261,30.647
		c0.095,2.373,0.097,4.762-0.032,7.131c-1.092,19.795-9.584,28.576-29.4,30.086c-5.783,0.439-11.619,0.299-17.43,0.299
		c-122.867-0.014-245.732-0.041-368.602-0.092c-3.951-0.001-7.984,0.136-11.848-0.537c-20.498-3.574-29.364-16.122-27.762-38.873
		c1.238-17.562,13.756-28.49,34.372-28.624c48.088-0.31,96.18-0.127,144.268-0.143c2.897,0,5.794,0,9.233,0
		c0-103.993,0-207.669,0-312.352c-2.802,0-5.6,0.002-8.394,0c-29.594-0.029-59.188,0.137-88.779-0.146
		c-27.874-0.266-42.189-18.197-36.692-45.352c2.932-14.483,14.119-24.006,30.982-24.136c51.523-0.394,103.051-0.383,154.571-0.021
		c15.323,0.108,22.81,8.798,22.812,24.202c0.019,115.997,0.012,231.992,0.012,347.989
		C7177.063,652.823,7177.063,655.702,7177.063,659.759z"/>
	<path fill-rule="evenodd" clip-rule="evenodd" fill="#292929" d="M6721.982,588.391c41.527,0.245,74.091,34.015,73.859,76.597
		c-0.225,41.569-34.076,74.396-76.371,74.057c-40.645-0.327-73.025-34.609-72.696-76.964
		C6647.092,621.258,6680.881,588.15,6721.982,588.391z"/>
	<path fill-rule="evenodd" clip-rule="evenodd" fill="#292929" d="M7187.976,123.755c-1.635,13.761-2.943,26.846-4.81,39.851
		c-1.572,10.951-8.56,17.071-19.158,19.349c-18.027,3.874-36.041,3.652-54.106,0.101c-15.104-2.969-21.309-13.988-21.64-27.322
		c-0.534-21.526-0.404-43.283,2.166-64.614c2.676-22.229,9.74-28.86,31.842-31.322c13.332-1.485,27.229,0.372,40.68,2.169
		c10.95,1.463,17.842,9.229,19.67,20.044C7184.975,95.991,7186.277,110.149,7187.976,123.755z"/>
	<path fill-rule="evenodd" clip-rule="evenodd" fill="#292929" d="M1386.473,124.973c-1.55,13.631-2.775,26.729-4.597,39.745
		c-1.574,11.235-8.65,17.635-19.583,19.93c-17.774,3.731-35.65,3.935-53.336,0.021c-14.606-3.232-21.596-10.673-22.159-27.64
		c-0.715-21.506-0.327-43.274,2.265-64.602c2.67-21.967,9.458-28.301,31.281-30.925c13.078-1.573,26.742-0.065,39.934,1.655
		c11.824,1.541,19.279,9.528,21.118,21.498C1383.471,98.156,1384.84,111.764,1386.473,124.973z"/>
	<path fill-rule="evenodd" clip-rule="evenodd" fill="#FFFEFD" d="M278.344,397.19c-6.24,0-11.922,0-18.63,0
		c0,2.637-0.044,5.419,0.006,8.199c1.177,65.003,2.211,130.012,3.742,195.006c0.192,8.124-2.668,11.545-10.132,12.77
		c-23.979,3.936-47.862,3.653-71.646-1.347c-6.32-1.326-9.558-4.905-10.236-11.966c-6.768-70.442-13.371-140.906-21.11-211.242
		c-3.181-28.912,2.547-56.201,10.296-83.417c2.71-9.52,8.897-16.366,19.124-19.371c10.872-3.196,21.577-7.071,32.116-11.251
		c8.406-3.334,16.23-2.938,24.529,0.364c27.887,11.096,36.212,9.52,51.898-16.178c13.142-21.529,29.566-32.861,55.095-29.049
		c2.061,0.308,4.259,0.2,6.329-0.123c17.915-2.801,33.752,0.103,49,11.549c13.882,10.42,26.124,7.195,37.611-6.111
		c5.519-6.393,10.536-13.217,16.047-19.616c4.882-5.667,10.912-8.401,18.819-8.113c19.012,0.692,38.054,0.97,57.077,0.774
		c8.822-0.091,15.456,3.127,20.325,10.014c6.246,8.833,12.016,18.002,18.128,26.933c13.437,19.634,24.554,22.699,45.526,10.912
		c10.935-6.146,21.821-8.351,34.101-6.768c14.665,1.89,29.406,3.545,44.163,4.222c11.73,0.537,18.317,6.476,22.624,16.578
		c14.462,33.924,19.697,68.687,16.243,105.88c-6.182,66.54-9.562,133.339-14.161,200.028c-1.817,26.356-3.994,52.694-5.494,79.069
		c-0.391,6.883-3.307,10.801-9.614,11.127c-21.809,1.126-43.655,2.496-65.469,2.221c-11.187-0.141-22.366-3.408-33.487-5.576
		c-7.89-1.538-11.679-5.511-11.377-14.746c2.353-72.367,4.146-144.753,6.05-217.135c0.208-7.908,0.028-15.826,0.028-24.46
		c-5.685,0-11.581,0-18.246,0c-0.544,7.956-1.273,16.3-1.665,24.66c-3.459,73.908-6.855,147.821-10.281,221.731
		c-0.514,11.082-1.28,12.434-12.468,14.439c-8.543,1.532-17.281,2.345-25.961,2.662c-32.002,1.165-63.918,0.497-95.304-6.898
		c-10.68-2.516-11.262-3.451-11.089-14.447c1.245-79.01,2.514-158.019,3.766-237.03c0.05-3.115,0.006-6.232,0.006-9.926
		c-6.226,0-11.931,0-18.653,0c-0.32,6.766-0.798,14.025-0.983,21.293c-1.907,74.764-3.835,149.531-5.512,224.3
		c-0.136,6.051-2.578,9.199-8.064,9.446c-22.086,0.994-44.194,2.365-66.279,2.128c-10.924-0.117-21.832-3.342-32.714-5.339
		c-6.399-1.174-8.738-4.973-8.858-11.742c-1.399-78.48-3.103-156.952-4.742-235.424C278.758,403.379,278.524,400.544,278.344,397.19
		z"/>
	<path fill-rule="evenodd" clip-rule="evenodd" fill="#FFFDFC" d="M686.677,689.803c7.233-1.288,14.722-1.787,21.647-4.027
		c16.09-5.199,21.639-13.549,22.75-30.351c4.009-60.58,8.225-121.146,12.343-181.718c0.333-4.887,0.522-9.784,0.674-12.689
		c9.567,8.745,20.009,17.868,29.954,27.504c8.718,8.447,17.108,17.27,25.119,26.386c1.962,2.231,3.311,6.669,2.529,9.402
		c-21.381,74.731-43.012,149.391-64.758,224.016c-6.236,21.4-36.98,39.33-59.143,35.783c-52.609-8.423-105.295-16.37-157.95-24.516
		c-15.379-2.379-30.775-4.657-46.126-7.206c-8.996-1.497-11.575-4.949-10.168-14.051c2.608-16.86,9.652-31.654,21.65-43.946
		c1.104-1.134,2.246-2.227,3.37-3.338c1.315-0.124,2.627-0.354,3.942-0.354c49.941-0.042,99.882-0.002,149.824-0.122
		C657.116,690.541,671.896,690.073,686.677,689.803z"/>
	<path display="none" fill-rule="evenodd" clip-rule="evenodd" fill="#DC8436" d="M686.677,689.803
		c-14.782,0.27-29.561,0.737-44.341,0.772c-49.941,0.12-99.883,0.08-149.824,0.122c-1.315,0-2.627,0.23-3.942,0.354
		c2.145-0.918,4.288-2.628,6.435-2.635c61.937-0.141,123.874-0.126,185.811-0.05C682.77,688.37,684.723,689.303,686.677,689.803z"/>
	<path display="none" fill-rule="evenodd" clip-rule="evenodd" fill="#FEFEFE" d="M2601.889,507.092
		c-0.851,91.271-64.365,153.38-155.849,152.604c-91.965-0.778-151.896-69.709-149.957-156.67
		c1.969-88.273,65.429-150.319,155.054-149.269C2538.916,354.788,2602.702,419.667,2601.889,507.092z"/>
	<path display="none" fill-rule="evenodd" clip-rule="evenodd" fill="#FEFEFE" d="M6384.08,506.523
		c-0.229,57.283-21.855,103.602-70.57,135.458c-26.721,17.477-56.87,23.381-88.335,22.275
		c-53.517-1.882-96.056-24.231-124.938-69.996c-20.349-32.239-24.098-68.211-20.672-105.198
		c3.143-33.923,14.787-64.577,37.75-90.329c32.008-35.9,73.207-49.557,119.968-47.924c57.534,2.009,101.371,27.652,129.29,78.646
		C6378.658,451.529,6384.096,477.131,6384.08,506.523z"/>
	<path display="none" fill-rule="evenodd" clip-rule="evenodd" fill="#FDFDFD" d="M3077.759,545.186
		c0,3.699-0.295,7.425,0.048,11.091c2.454,26.263-9.47,45.831-28.919,61.69c-41.216,33.612-88.561,50.178-141.698,49.518
		c-18.89-0.235-37.068-4.312-53.713-13.967c-46.818-27.165-51.194-86.841-8.718-120.404c21.231-16.775,46.012-25.448,72.192-30.002
		c52.333-9.101,103.981-5.987,154.767,10.177c4.707,1.497,6.384,3.276,6.146,8.128
		C3077.475,529.324,3077.759,537.263,3077.759,545.186z"/>
	<path display="none" fill-rule="evenodd" clip-rule="evenodd" fill="#FEFEFE" d="M7458.688,504.11
		c0.019-98.953,70.662-169.438,169.77-169.386c98.911,0.051,169.814,70.873,169.785,169.589
		c-0.031,98.314-70.629,168.089-170.036,168.049C7528.426,672.322,7458.669,603.086,7458.688,504.11z"/>
</g>
</svg>
